<svg version="1.2" xmlns="http://www.w3.org/2000/svg" viewBox="0 0 600 600" width="600" height="600"><style>tspan{white-space:pre}.a{fill:#1e3b63}.b{fill:#232339}.c{fill:#feaa6a}.d{fill:#f36935}.e{fill:#fefeee}.f{fill:#fcefc1}.g{fill:#df3f2d}.h{fill:#3b2524}.i{fill:#fe8c4e}.j{font-size: 102px;fill: #d92b2b;font-weight: 400;font-family: "Domine-Regular", "Domine"}</style><path class="a" d="m379.9 277.1l0.1-0.4c4.7-13.6 5.1-31 19.9-38.3 2.5-1.2 5.5-2.3 8.3-2.7 2.9-0.3 6.1-0.1 9 0 3.9 0 7.9 0 11.8 0.3 7 0.6 14.1 1.9 21 2.9 18.1 2.7 35.8 5.7 53.6 9.8 11 2.5 21.8 5.2 32.4 8.9 9.2 3.2 16.7 7.1 21 16.2 2.3 5 2.3 10.8 2 16.1-0.6 9.6-2.8 19.4-4.9 28.8-4 17.4-8.6 35-14.8 51.8-6.5 17.6-14.5 35.8-27 49.9-1.8 2.1-3.7 4.2-5.7 5.9-1.9 1.7-4.3 3.2-5.9 5.1 8.9 9.9 23.7 35.3 26.9 48.2 1.6 6.8 1.8 14.1 1.4 21-0.9 16.4-8.6 28.5-20.6 39.1-9.8 8.8-22.8 13.2-36 12.1-7.3-0.6-13.9-2.7-20.4-6.2-1.4-0.5-3.5-2.2-4.7-3.2-3.4-3-8.8-8.7-9.2-13.4-3-1-6.2-1.7-9.2-2.8-1.7-0.7-7.9-4-9.3-3.7-0.1 7.1 1.2 14.4 1.9 21.5 1.4 14.5 2.8 29 3.9 43.6 0.3 4.1 1.5 8.4 1.3 12.4h-114.6-15.3-159.1c1.2-3.6 1.3-7.9 1.8-11.7q0.9-8.3 2-16.7l3-22.1c0.4-3.6 0.6-7.2 1.1-10.8 0.8-5.4 1.9-10.8 2.5-16.2 0.1-1.5 0.8-3.3 0.5-4.7-4.1 1.2-8.1 2.9-12.1 4.4-17.3 6.2-35.1 9.3-52.3 1.1-13.2-6.3-22.8-16.4-27.6-30.2-3.9-11.1-3.6-23.6-1.7-35 2.7-15.8 8.7-30.9 14.2-45.8 1.9-5.2 3.5-10.6 5.5-15.8 4.1-11 8.5-21.9 12.8-32.8l10.1-25.5c1.3-3.4 2.5-6.9 4.1-10.3 3.8-7.7 7.9-15.5 14.1-21.7 3.7-3.6 8.1-7 12.6-9.5 7.1-4 15.2-7 22.9-9.8q13-4.7 26.1-8.9c7-2.3 14.1-4.3 21.1-6.7 0.4 0 0.8-0.1 1.2-0.2 0.9-0.3 1.3-0.7 1.7-1.6 3.6-7 15.3-12.5 22.6-15.1 0.8-1 1.9-3.1 2-4.3 2.1 0.8 4 2.3 6 3.3 0.4 0.7 0.8 1.6 1.3 2.2 8.9 15.9 26.2 26.7 43.5 31.5 2.4 0.7 4.8 1.3 7.2 1.7 2.6 0.3 9.7 0.2 11.4 1.1-2.9 2.1-5.4 5.1-8 7.6q-7.3 6.9-15 13.5c4 4.8 8.5 11.1 12.8 15.5 6.9-3.5 17.4-2.2 24.7-0.9 3-5.2 6.6-10.1 10-15-2.9-2.8-6.3-5.4-9.4-8q-7.4-6.3-14.7-12.7c1.7-1 6.2-1.1 8.3-1.5 1.8-0.4 3.5-0.9 5.3-1.5 9.6-3.2 18-9.3 22.6-18.5 3.9-0.5 7.5-1.3 11.3-2.3 2.7-0.9 5.3-1.8 7.9-3 3.5 1.3 5.9 2.6 8.6 5.2 1 1 1.9 2 3.2 2.8 3.1 0.7 6.1 2.2 9.2 3.2 2.5 1.1 5.1 2.1 7.8 2.8z"/><path class="a" d="m225.9 250.1c2.1 0.8 4 2.3 6 3.3 0.4 0.7 0.8 1.6 1.3 2.2 8.9 15.9 26.2 26.7 43.5 31.5 2.4 0.7 4.8 1.3 7.2 1.7 2.6 0.3 9.7 0.2 11.4 1.1-2.9 2.1-5.4 5.1-8 7.6q-7.3 6.9-15 13.5c-7.9 5.6-14.9 12.4-23.3 17.3 3.4 9.1 7.5 17.9 11.3 26.8 1.4 3.3 3.1 6.6 4.3 9.9l8.6 3.2c4.4 1.3 8.6 3.4 12.7 5.5 6.2 3.6 12.1 7.6 17.4 12.6 4.8 4.3 9 9.5 11.8 15.3 1.4 3.9 1.8 7.8-0.1 11.6-1.3 2.9-3.3 4.5-6.2 5.6-1.1 2.3-3.7 6.4-4 8.8-0.2 0.7-0.3 1.5-0.3 2.2 0.2 2.2 1.4 5.9 1.9 8.2 1.4 7.3 2.8 14.3 3.4 21.6 0.7 8.6 0.6 17.3 0.7 25.9l0.1 32.7q0 18.4-0.3 36.8c-0.2 12.4 0.3 28.5-3.3 40.1 1.7 1.6 3.4 3.2 5.1 4.9h-15.3-159.1c1.2-3.6 1.3-7.9 1.8-11.7q0.9-8.3 2-16.7l3-22.1c0.4-3.6 0.6-7.2 1.1-10.8 0.8-5.4 1.9-10.8 2.5-16.2 0.1-1.5 0.8-3.3 0.5-4.7-4.1 1.2-8.1 2.9-12.1 4.4-17.3 6.2-35.1 9.3-52.3 1.1-13.2-6.3-22.8-16.4-27.6-30.2-3.9-11.1-3.6-23.6-1.7-35 2.7-15.8 8.7-30.9 14.2-45.8 1.9-5.2 3.5-10.6 5.5-15.8 4.1-11 8.5-21.9 12.8-32.8l10.1-25.5c1.3-3.4 2.5-6.9 4.1-10.3 3.8-7.7 7.9-15.5 14.1-21.7 3.7-3.6 8.1-7 12.6-9.5 7.1-4 15.2-7 22.9-9.8q13-4.7 26.1-8.9c7-2.3 14.1-4.3 21.1-6.7 0.4 0 0.8-0.1 1.2-0.2 0.9-0.3 1.3-0.7 1.7-1.6 3.6-7 15.3-12.5 22.6-15.1 0.8-1 1.9-3.1 2-4.3z"/><path class="a" d="m302.8 432c0.8-1.4 1.4-2.9 2-4.4-0.2 0.7-0.3 1.5-0.3 2.2 0.2 2.2 1.4 5.9 1.9 8.2 1.4 7.3 2.8 14.3 3.4 21.6 0.7 8.6 0.6 17.3 0.7 25.9l0.1 32.7q0 18.4-0.3 36.8c-0.2 12.4 0.3 28.5-3.3 40.1 1.7 1.6 3.4 3.2 5.1 4.9h-15.3-159.1c1.2-3.6 1.3-7.9 1.8-11.7q0.9-8.3 2-16.7l3-22.1c0.4-3.6 0.6-7.2 1.1-10.8 0.8-5.4 1.9-10.8 2.5-16.2 0.1-1.5 0.8-3.3 0.5-4.7h0.1c6.5-2.9 13.3-5.2 19.9-7.7 7.6-3 14.9-6.2 22.4-9.3 5.1-2.2 10.7-4.1 15.4-7 2.7-1.7 4.9-3.7 7.1-6-8.5-2.9-11.5-8.3-16.2-15.5 4.2-2.3 8.7-6.2 13.1-7.7 2.4-0.9 5.2-0.8 7.7-1.4l0.4-0.2c7.8-2.6 13-8.4 18.1-14.6 3.1 3.1 6 3.9 10.3 4.2 2.6 0.1 4.8-0.1 7.2-1.2 5.4-2.3 9.2-7 11.4-12.3 1.8 0.3 3.2 0.5 5 0 2.6-0.7 4.6-1.9 6.8-3.3 1.9-1.3 3.6-2.9 5.2-4.5 3.7 4 15 12.2 20 14.7-0.4-4.3-1.6-10 0.3-14z"/><path class="b" d="m302.8 432c0.8-1.4 1.4-2.9 2-4.4-0.2 0.7-0.3 1.5-0.3 2.2 0.2 2.2 1.4 5.9 1.9 8.2 1.4 7.3 2.8 14.3 3.4 21.6 0.7 8.6 0.6 17.3 0.7 25.9l0.1 32.7q0 18.4-0.3 36.8c-0.2 12.4 0.3 28.5-3.3 40.1 1.7 1.6 3.4 3.2 5.1 4.9h-15.3c0.9-0.9 1.9-1.9 2.7-2.9 2-2.3 3-4.9 3.5-7.9 1.4-8.4 1.4-17.5 1.5-26q0.2-17.4 0.2-34.9 0.2-21.6 0-43.1c0-10 0.1-19.9-0.6-29.8-5.8-3.5-11.4-7.1-16.7-11.3-3.4-2.6-6.6-5.7-10.1-8.3 1.9-1.3 3.6-2.9 5.2-4.5 3.7 4 15 12.2 20 14.7-0.4-4.3-1.6-10 0.3-14z"/><path class="b" d="m197.3 472.3c4.2-2.3 8.7-6.2 13.1-7.7 2.4-0.9 5.2-0.8 7.7-1.4l0.4-0.2c2 5.8 2 13.6-0.7 19.2-0.8 1.6-1.9 2.9-3.1 4.2 1 0.9 1.9 1.6 2 3 0.1 2-1.2 3.8-2.5 5.2-2.3 2.6-6.1 4.4-9.1 6-8.2 4.2-48.3 21.6-55.9 22-0.4 0-0.7-0.1-1.1-0.1 0.1-1.5 0.8-3.3 0.5-4.7h0.1c6.5-2.9 13.3-5.2 19.9-7.7 7.6-3 14.9-6.2 22.4-9.3 5.1-2.2 10.7-4.1 15.4-7 2.7-1.7 4.9-3.7 7.1-6-8.5-2.9-11.5-8.3-16.2-15.5z"/><path class="b" d="m166.8 532.7c4-0.1 8 0.4 11.9 0.6q10.3 0.8 20.5 1.3c5.3 0.3 10.6 0.6 15.8 0.7 4.6 0 9.3-0.4 13.9 0 1.4 0.1 3.2 0.3 4.1 1.5 0.4 0.7 0.5 1.5 0.4 2.3-0.2 1.7-1 2.7-2.3 3.7-15 0.4-30-0.4-44.9-1.2-5.9-0.4-12.4-0.2-18.2-1.3-0.9-0.2-1.9-0.3-2.6-1-0.6-0.7-1-1.5-1-2.4 0.1-1.9 1.1-3.1 2.4-4.2z"/><path class="b" d="m285.5 474.7c1.7-0.2 3.4-0.1 5 0.6 2.2 0.9 3.8 2.7 4.7 4.9 1.1 3 1.1 7.1-0.4 9.9-1.4 2.7-3.4 3.8-6.2 4.7-1.7 0.1-3.3 0-4.8-0.7-2.4-1.2-4.1-3.2-5-5.7-0.9-2.8-0.8-6.2 0.6-8.9 1.3-2.7 3.3-3.9 6.1-4.8z"/><path class="c" d="m228.6 373.7c3.1-2.2 6.2-4.4 9.5-6.2 9.1-5.2 16.6-5.3 26.5-2.5l8.6 3.2c4.4 1.3 8.6 3.4 12.7 5.5 6.2 3.6 12.1 7.6 17.4 12.6 4.8 4.3 9 9.5 11.8 15.3 1.4 3.9 1.8 7.8-0.1 11.6-1.3 2.9-3.3 4.5-6.2 5.6-1.1 2.3-3.7 6.4-4 8.8-0.6 1.5-1.2 3-2 4.4-1.9 4-0.7 9.7-0.3 14-5-2.5-16.3-10.7-20-14.7-1.6 1.6-3.3 3.2-5.2 4.5-2.2 1.4-4.2 2.6-6.8 3.3-1.8 0.5-3.2 0.3-5 0-2.2 5.3-6 10-11.4 12.3-2.4 1.1-4.6 1.3-7.2 1.2-4.3-0.3-7.2-1.1-10.3-4.2-5.1 6.2-10.3 12-18.1 14.6l-0.4 0.2c-2.5 0.6-5.3 0.5-7.7 1.4-4.4 1.5-8.9 5.4-13.1 7.7-2.1-3.3-4.4-6.6-6.3-10.1-6.1-11.7-10.9-26.9-10.4-40 0.2-4.3 1-8.6 4.3-11.6 2.4-1.1 4.9-2 7.1-3.5 5.8-4.4 10.7-10.1 15.9-15.2q7.2-7.3 15.2-13.9 2.7-2.2 5.5-4.3z"/><path class="a" d="m290.2 410.3q2.3 2.5 4.6 4.9c4.9 2.5 8.4 3.5 14 3.6-1.1 2.3-3.7 6.4-4 8.8-0.6 1.5-1.2 3-2 4.4-1.9 4-0.7 9.7-0.3 14-5-2.5-16.3-10.7-20-14.7 1.3-1.6 2.5-3.2 3.4-5 1.9-3.9 2-7.8 0.7-11.9 1 0 2.3-0.1 3-0.8 0.9-0.9 0.7-2.2 0.6-3.3z"/><path class="d" d="m294.8 415.2c4.9 2.5 8.4 3.5 14 3.6-1.1 2.3-3.7 6.4-4 8.8-0.6 1.5-1.2 3-2 4.4-3.1-5.5-5.8-10.9-8-16.8z"/><path class="d" d="m286.6 414.4c-1.7-3.3-2.3-7.1-4.1-10.5-4.3-8-11.3-13.4-19.8-16.3-2.7-0.9-5.6-1.5-8.3-2.4-1.3-0.4-3-1.4-3.6-2.8-0.3-0.8-0.1-1.5 0.2-2.2 0.4-0.7 1-1.3 1.8-1.5 2.1-0.7 16.9 5.1 19.5 6.7 9.4 5.4 15.1 14.6 17.9 24.9 0.1 1.1 0.3 2.4-0.6 3.3-0.7 0.7-2 0.8-3 0.8z"/><path class="d" d="m265.5 439.1c0.7-3.8 1.2-7.6 0.9-11.4-0.6-10-7.8-15.5-16.4-19.3-2.5-1.1-5.9-2.1-8-4-0.7-0.7-1-1.3-1-2.3 0.2-0.5 0.4-0.8 0.8-1.2 1-0.8 2-1 3.2-0.8 6.4 0.8 18.5 8.9 22.4 14.3 5.2 7.1 4.4 16.5 3.1 24.7-1.8 0.5-3.2 0.3-5 0z"/><path class="d" d="m236.6 448.4c-1.4-2.9-1.7-5.7-0.5-8.8 0.8-2.1 4.6-8.6 6.6-9.6 0.7-0.3 1.5-0.3 2.2 0 0.7 0.4 1.4 0.8 1.6 1.6 1.1 4.3-7.7 9.4-5.2 15 1.2 2.7 4.2 3.7 5.6 6-4.3-0.3-7.2-1.1-10.3-4.2z"/><path class="a" d="m225.9 250.1c2.1 0.8 4 2.3 6 3.3 0.4 0.7 0.8 1.6 1.3 2.2 8.9 15.9 26.2 26.7 43.5 31.5 2.4 0.7 4.8 1.3 7.2 1.7 2.6 0.3 9.7 0.2 11.4 1.1-2.9 2.1-5.4 5.1-8 7.6q-7.3 6.9-15 13.5c-7.9 5.6-14.9 12.4-23.3 17.3 3.4 9.1 7.5 17.9 11.3 26.8 1.4 3.3 3.1 6.6 4.3 9.9-9.9-2.8-17.4-2.7-26.5 2.5-3.3 1.8-6.4 4-9.5 6.2q-2.8 2.1-5.5 4.3c-1.3-2.1-3.2-4-4.7-6-5.4-7-18.2-23.1-20.4-30.8 1.4-6.1 10.6-13 15.2-17.5-6-2.5-13.2-4.5-18.6-8.1-1.4-0.9-2.6-1.9-3.1-3.5-0.4-1.4-0.4-2.9-0.2-4.3 0.4-3.5 1.4-6.9 2.1-10.3 1.3-5.7 2.5-11.4 3.9-17 0.5-2.2 2.2-6.6 1.7-8.8l-0.6-0.4c0.4 0 0.8-0.1 1.2-0.2 0.9-0.3 1.3-0.7 1.7-1.6 3.6-7 15.3-12.5 22.6-15.1 0.8-1 1.9-3.1 2-4.3z"/><path class="e" d="m225.9 250.1c2.1 0.8 4 2.3 6 3.3 0.4 0.7 0.8 1.6 1.3 2.2 8.9 15.9 26.2 26.7 43.5 31.5 2.4 0.7 4.8 1.3 7.2 1.7 2.6 0.3 9.7 0.2 11.4 1.1-2.9 2.1-5.4 5.1-8 7.6q-7.3 6.9-15 13.5c-7.9 5.6-14.9 12.4-23.3 17.3-9.6-23.9-20.4-48.4-25.1-73.9 0.8-1 1.9-3.1 2-4.3z"/><path class="b" d="m201.3 269.5q0.1 0.1 0.2 0.2c1.2 1 2.8 0.5 3.2 2.4 0.8 3-6.3 31.3-7.1 37.4 4.5 2.7 9.6 4.5 14.5 6.4 2.5 1 5.2 1.9 7.5 3.4 0.8 0.6 1.6 1.4 1.9 2.5 0.4 1.7-0.8 3.5-1.8 4.7-4 5.2-10.2 10.4-15 15 4.9 7.7 10.5 14.9 16 22.1 2.5 3.2 6.2 6.5 7.9 10.1q-2.8 2.1-5.5 4.3c-1.3-2.1-3.2-4-4.7-6-5.4-7-18.2-23.1-20.4-30.8 1.4-6.1 10.6-13 15.2-17.5-6-2.5-13.2-4.5-18.6-8.1-1.4-0.9-2.6-1.9-3.1-3.5-0.4-1.4-0.4-2.9-0.2-4.3 0.4-3.5 1.4-6.9 2.1-10.3 1.3-5.7 2.5-11.4 3.9-17 0.5-2.2 2.2-6.6 1.7-8.8l-0.6-0.4c0.4 0 0.8-0.1 1.2-0.2 0.9-0.3 1.3-0.7 1.7-1.6z"/><path class="b" d="m155.8 416.4c0.3-5.4 1.6-11 2.3-16.4 1.5-10.6 2.6-21.1 2.5-31.8-0.1-15.2-2.7-32.9-12.5-45.1-2.6-3.3-6-5.4-8.8-8.4-0.7-0.7-0.9-1.5-0.9-2.4 0.1-0.8 0.4-1.7 1.1-2.2 0.6-0.5 1.4-0.5 2.1-0.4 4.7 0.7 11.2 8.6 13.7 12.4 16.5 24.4 12.8 63.5 7.4 91 4.9-1.7 9.6-4.5 14.2-6.9 1.9-1 3.9-2.2 6-2.8 1.5-0.5 2.9-0.6 4.4-0.2 2.2 0.6 3.5 2 4.7 3.9-2.2 1.5-4.7 2.4-7.1 3.5-1.7-0.2-3 0.4-4.6 1.1-6.9 3-13.6 6.9-20.5 10.2-13.8 6.6-27.8 12.7-41.8 19.1-2.6 1.2-13.9 6.7-16 6.6-0.9 0-1.7-0.4-2.3-1.1-0.7-0.8-1.2-1.9-1-2.9 0.2-1 0.9-1.8 1.8-2.3 3.1-1.9 9.9-4.3 13.4-5.9 14-6.3 28.2-12.1 41.9-19z"/><path class="e" d="m379.9 277.1l0.1-0.4c4.7-13.6 5.1-31 19.9-38.3 2.5-1.2 5.5-2.3 8.3-2.7 2.9-0.3 6.1-0.1 9 0 3.9 0 7.9 0 11.8 0.3 7 0.6 14.1 1.9 21 2.9 18.1 2.7 35.8 5.7 53.6 9.8 11 2.5 21.8 5.2 32.4 8.9 9.2 3.2 16.7 7.1 21 16.2 2.3 5 2.3 10.8 2 16.1-0.6 9.6-2.8 19.4-4.9 28.8-4 17.4-8.6 35-14.8 51.8-6.5 17.6-14.5 35.8-27 49.9-1.8 2.1-3.7 4.2-5.7 5.9-1.9 1.7-4.3 3.2-5.9 5.1-2.2 1.3-4.3 2.9-6.5 4.2-4.9 3-10.2 5.4-15.6 7.5q0-0.1-0.1-0.1c-10-11.3-37.8-20.4-53-21.2-4.3-0.2-8.6 0.4-11.8 3.5-2.9 2.7-3.6 6-3.6 9.8-2.2-1.5-4.5-3-6.6-4.7-5.1-4.2-9.4-9.3-13.2-14.7-11.4-16-17-33.6-19-53-0.3-3.1-0.4-6.2-0.6-9.3q-0.3-9.2 0.2-18.4c0.1-3.4 0.4-6.9 0.6-10.3l0.3-0.7c0.2-3.1 0.6-6.1 1-9.1 0.9-6.3 1.8-12.7 3.1-18.9q1-5.3 2.2-10.5z"/><path class="b" d="m417 284.3c9.3-1.1 21.5 1 29 6.9 4.7 3.5 7.7 8.9 8.4 14.7 0.6 5.2-0.6 10.9-3.9 15-3.6 4.3-8.1 5.7-13.4 6.3-10 0.2-19.8-2.9-27.8-8.9-4.9-3.7-9.3-8.9-10.1-15.2-0.5-4.4 0.5-9.2 3.4-12.7 3.6-4.3 9.1-5.5 14.4-6.1z"/><path class="b" d="m504.5 302.7c8.1-1 18.3 1.6 25 6.3 3.4 2.3 5.9 5.4 6.5 9.5 0.8 5.1-0.6 10.7-3.7 14.8-4 5.3-9.9 7.4-16.3 8.2-8.4 0.7-17.3-0.9-24.3-5.9-3.7-2.7-6.8-6.4-7.4-11.1-0.6-4.7 0.8-9.8 3.8-13.6 4-5.1 10.1-7.4 16.4-8.2z"/><path class="b" d="m440.9 393c5.7-0.4 22.5 2.4 27.1 5.7 1.5 1.1 2.6 2.5 2.8 4.3 0.1 1.4-0.3 3.1-1.2 4.2-1.6 1.8-4.3 2-6.6 2.2-5.8 0.3-22.7-2.5-27.2-5.9-1.3-0.9-2.3-2.1-2.6-3.7-0.2-1.5 0.5-3.2 1.4-4.4 1.6-2 3.9-2.2 6.3-2.4z"/><path class="f" d="m476 332.8c0.6 0 1.2-0.1 1.8 0q1.1 0.1 1.7 0.9c1.7 2.5 2.3 24.2 1.8 27.7-0.6 3.7-2.1 7-5.2 9.2-5.9 4-15.3 1.6-21.8 0.4-1.2-0.4-3-0.8-3.8-1.9-0.6-0.8-0.7-2.2-0.4-3.1 1.8-5.3 17 1 21.9-1.5q0.1-0.1 0.3-0.2c0.3-0.1 0.6-0.3 0.9-0.5 5.9-4.4 0-22 0.9-28.3 0.2-1.4 0.8-1.9 1.9-2.7z"/><path class="c" d="m410.1 435.1c0-3.8 0.7-7.1 3.6-9.8 3.2-3.1 7.5-3.7 11.8-3.5 15.2 0.8 43 9.9 53 21.2q0.1 0 0.1 0.1c5.4-2.1 10.7-4.5 15.6-7.5 2.2-1.3 4.3-2.9 6.5-4.2 8.9 9.9 23.7 35.3 26.9 48.2 1.6 6.8 1.8 14.1 1.4 21-0.9 16.4-8.6 28.5-20.6 39.1-9.8 8.8-22.8 13.2-36 12.1-7.3-0.6-13.9-2.7-20.4-6.2-1.4-0.5-3.5-2.2-4.7-3.2-3.4-3-8.8-8.7-9.2-13.4-3-1-6.2-1.7-9.2-2.8-1.7-0.7-7.9-4-9.3-3.7-1.8-0.8-3.7-1.8-5.5-2.8-6.7-3.7-17.8-11.6-19.9-19.6-1-3.8 0.4-6.8 2.3-10 0.4-1.3 0.9-2.3 1.6-3.4-2.7-1.6-4.5-4.9-5.1-7.8-1.2-5.2 0.3-9.3 3-13.6 0.7-1.1 1.5-2 2.5-3-0.6-0.5-1.1-1-1.6-1.6-2.1-2.3-3.3-5.3-3.1-8.5 0.1-3.4 1.9-6.4 4.4-8.6 4.1-3.5 9.1-3.8 14.2-3.5l0.2-0.2c-0.9-1.6-1.7-3.2-2.5-4.8z"/><path class="a" d="m478.6 443.1c5.4-2.1 10.7-4.5 15.6-7.5 2.2-1.3 4.3-2.9 6.5-4.2 8.9 9.9 23.7 35.3 26.9 48.2 1.6 6.8 1.8 14.1 1.4 21-0.9 16.4-8.6 28.5-20.6 39.1-9.8 8.8-22.8 13.2-36 12.1-7.3-0.6-13.9-2.7-20.4-6.2-1.4-0.5-3.5-2.2-4.7-3.2-3.4-3-8.8-8.7-9.2-13.4 6.4 0.7 12.2-0.8 18-3.2 5.3 2.8 10.4 4.7 16.2 6.2 8-4.7 16.4-16.6 20.1-25 5-11.6 7.6-27.8 1-39.4-1.6-2.8-3.7-5.3-5.5-8-1.6-2.5-2.7-5.2-3.8-7.9-1.6-3.2-3.2-5.9-5.5-8.6z"/><path class="b" d="m484.1 451.7c2.5-0.8 14.3 0.3 16.5 1.6 0.8 0.5 1.3 1.3 1.4 2.2 0.2 0.9 0.1 1.9-0.3 2.7-0.6 0.9-1.5 1.3-2.5 1.4-2.2 0.4-4.9-0.3-7.1-0.8 7.3 7.3 10.6 16 10.6 26.2 0 17-7.7 34.8-19.8 46.8-4 3.9-9.1 7.6-14.3 9.7-3.5 1.4-7.6 2.4-11.4 2.9-1.2 0.2-3 0.1-4.2 0.4-0.4 0.2-0.6 0.5-1 0.8-1.4-0.5-3.5-2.2-4.7-3.2-3.4-3-8.8-8.7-9.2-13.4 6.4 0.7 12.2-0.8 18-3.2 5.3 2.8 10.4 4.7 16.2 6.2 8-4.7 16.4-16.6 20.1-25 5-11.6 7.6-27.8 1-39.4-1.6-2.8-3.7-5.3-5.5-8-1.6-2.5-2.7-5.2-3.8-7.9z"/><path class="d" d="m398.5 462.3c2.9 0.5 5.8 2.1 8.4 3.2 3 1.2 6 2.3 9 3.4 7 2.5 14.1 4.6 21 7.3 2.8 1.1 8.1 1 9.5 4.1 0.4 0.8 0.5 1.5 0.1 2.2-0.4 0.9-1.3 1.6-2.2 1.8-3.4 0.7-43.2-13.6-46.3-16.3-0.6-0.5-1-1.3-1.5-1.9l-0.3-0.5-0.2-0.3c0.7-1.1 1.5-2 2.5-3z"/><path class="d" d="m412.6 439.9q13.5 4.6 27.1 8.9c4 1.2 8 2.6 12 3.9 1.2 0.4 2.4 0.6 3.5 1.1 0.6 0.2 1.3 0.7 1.7 1.3 0.5 0.9 0.3 2 0 2.9-0.4 0.8-0.8 1.2-1.7 1.5-0.6 0.2-1.2 0.2-1.8 0-5.6-1.2-37.8-11.4-41.5-13.8-0.8-0.5-1.3-1-1.3-1.9-0.1-1.3 1.1-2.7 1.8-3.7z"/><path class="d" d="m398.1 486.7c3.2 0.2 15.8 7.5 20.6 9.1 2.3 0.7 15.4 4.2 16.5 5.7 0.6 0.7 0.5 1.6 0.3 2.4-0.2 0.7-0.4 1.3-1.1 1.7-2.8 1.5-14.2-2.9-17.5-4.3-5.7-2.2-16.8-6.6-20.4-11.2 0.4-1.3 0.9-2.3 1.6-3.4z"/><path class="d" d="m249 328.3c8.4-4.9 15.4-11.7 23.3-17.3 4 4.8 8.5 11.1 12.8 15.5 6.9-3.5 17.4-2.2 24.7-0.9l1 3.2c1.6 6 3.2 12.1 5.1 18 2 7.5 4 15.4 6.5 22.8-4.6 3.2-15.6 12.6-19.1 16.7-5.3-5-11.2-9-17.4-12.6-4.1-2.1-8.3-4.2-12.7-5.5l-8.6-3.2c-1.2-3.3-2.9-6.6-4.3-9.9-3.8-8.9-7.9-17.7-11.3-26.8z"/><path class="f" d="m249 328.3c8.4-4.9 15.4-11.7 23.3-17.3 4 4.8 8.5 11.1 12.8 15.5-3.1 10.6-6.4 21.2-9 31.9-1 3.2-1.7 6.6-2.9 9.8l-8.6-3.2c-1.2-3.3-2.9-6.6-4.3-9.9-3.8-8.9-7.9-17.7-11.3-26.8z"/><path class="g" d="m315.9 346.8c2 7.5 4 15.4 6.5 22.8-4.6 3.2-15.6 12.6-19.1 16.7-5.3-5-11.2-9-17.4-12.6q9.4-8.8 19-17.4c3.5-3.2 7-6.8 11-9.5z"/><path class="g" d="m285.1 326.5c6.9-3.5 17.4-2.2 24.7-0.9l1 3.2c-8.1 6.6-15.9 14-23.6 21-3.1 2.7-6 5.8-9.3 8.2-0.6 0.4-0.9 0.7-1.6 0.6l-0.2-0.2c2.6-10.7 5.9-21.3 9-31.9z"/><path class="e" d="m331.9 268.4c3.9-0.5 7.5-1.3 11.3-2.3-0.5 20-3.1 38-6.8 57.6-4.1-1-12.9-9.9-16.6-13.1-2.9-2.8-6.3-5.4-9.4-8q-7.4-6.3-14.7-12.7c1.7-1 6.2-1.1 8.3-1.5 1.8-0.4 3.5-0.9 5.3-1.5 9.6-3.2 18-9.3 22.6-18.5z"/><path class="f" d="m319.8 310.6c3.7 3.2 12.5 12.1 16.6 13.1-3.8 16.8-7.4 33.7-12.6 50.2-0.6-1.4-1-2.8-1.4-4.3-2.5-7.4-4.5-15.3-6.5-22.8-1.9-5.9-3.5-12-5.1-18l-1-3.2c3-5.2 6.6-10.1 10-15z"/><path class="b" d="m370.7 353.4c0.2 3.1 0.3 6.2 0.6 9.3-0.3 1.9-4.6 8-5.8 10-3.9 6.5-7.6 13-11.6 19.4q-12.2 19.3-26.3 37.3c-2.3 2.9-4.9 7.2-7.8 9.4-0.8 0.6-1.8 1-2.8 0.8-0.8-0.2-1.4-0.8-1.7-1.4-0.5-1-0.4-2.2 0-3.2 1-2.2 3.6-4.7 5.1-6.7q5.8-7.3 11.3-14.7c9.3-12.7 17.5-26.1 25.5-39.6 3.6-6 6.8-12.4 10.7-18.3 0.8-1.2 1.4-1.7 2.8-2.3z"/><path class="d" d="m322.4 369.6c0.4 1.5 0.8 2.9 1.4 4.3-2.2 9.3-5.7 18.6-8.7 27.7-2.8-5.8-7-11-11.8-15.3 3.5-4.1 14.5-13.5 19.1-16.7z"/><path class="b" d="m362.9 271.1c3.1 0.7 6.1 2.2 9.2 3.2 2.5 1.1 5.1 2.1 7.8 2.8l-1.8 8.4q-1.2 5.2-2.2 10.5c-0.6-0.3-1.2-0.6-1.8-0.8-2.2-2.9-4.2-8.6-5.8-12-1.7-3.3-3.7-6.6-5-10-0.3-0.7-0.4-1.4-0.4-2.1z"/><path class="a" d="m372.1 274.3c2.5 1.1 5.1 2.1 7.8 2.8l-1.8 8.4c-0.2 0-0.6 0.1-0.8 0-0.8-0.1-1.3-1.1-1.7-1.8-1.1-1.7-3.8-6.2-3.9-8 0-0.4 0.3-1 0.4-1.4z"/><path class="b" d="m372.8 314.9c-0.4 3-0.8 6-1 9.1l-0.3 0.7c-0.2 3.4-0.5 6.9-0.6 10.3-2.8-1.3-10.3-7.7-11.6-10.4-0.5-1-0.6-2-0.1-3.1 1.4-3.3 9.7-4.9 13.1-6.3z"/><path class="a" d="m371.5 324.7c-0.5 0.5-0.3 0.8-1.1 1.1-0.9-0.3-1-0.3-1.6-1-0.1-0.8-0.1-0.9 0.2-1.6l0.8-0.2c0.9 0.2 1.3 0.3 2 1z"/><path class="b" d="m407.4 530.7c2.4-0.3 4.9-0.7 7 0.8 0.8 0.6 1.5 1.5 1.6 2.6 0 0.8-0.3 1.5-0.8 2.1-4 4-43.6 5.3-51.4 5.8-2.2 0-5 0.5-6.9-0.7-0.8-0.6-1.5-1.3-1.7-2.3-0.2-1.1 0.2-2.4 0.8-3.3 0.8-0.9 1.6-1.1 2.7-1.2 4.9-0.6 10-0.2 14.9-0.5q17-0.9 33.8-3.3z"/><path class="c" d="m217.1 52.1c1.6-2.6 3.8-5.4 6-7.6 16.2-16.7 41.7-23.5 64.4-23.6l27.7 0.1c17.4-0.1 40.7-2.2 54.2 11.3 5.5 5.5 7.5 12 7.5 19.7 5 1.1 9.9 2.5 14.2 5.3 9.5 6.2 15.4 15.5 17.7 26.5 1.1 5.4 0.7 35.8-0.6 41.4-1.3 5.7-3.6 10.5-6.8 15.3-1.7 2.3-3.7 4.1-6 6-0.4 6-1.3 28.8-4.2 33.1-0.1 9.3 1.2 19.4-0.5 28.5-2.4 18.9-10.7 34.7-26 46.5-4.4 3.4-9 5.6-13.6 8.5-2.6 1.2-5.2 2.1-7.9 3-3.8 1-7.4 1.8-11.3 2.3-4.6 9.2-13 15.3-22.6 18.5-1.8 0.6-3.5 1.1-5.3 1.5-2.1 0.4-6.6 0.5-8.3 1.5h-0.4c-1.7-0.9-8.8-0.8-11.4-1.1-2.4-0.4-4.8-1-7.2-1.7-17.3-4.8-34.6-15.6-43.5-31.5-0.5-0.6-0.9-1.5-1.3-2.2-2-1-3.9-2.5-6-3.3-14.2-10.8-23.7-25.2-26.9-42.7-7.7 1.4-14.8 0.2-21.8-3.2-7.4-3.6-12.9-10.3-15.5-18-3.3-9.4-3.3-21 1.2-30 4.1-8.2 9.6-12.2 18.1-15 0.3-11.4 0-22.8 0-34.2 0-8.7-0.4-17.4 1.7-26 1.5-6.3 4.4-12.3 8.6-17.3 6.7-8.2 15.7-10.6 25.8-11.6z"/><path class="h" d="m217.1 52.1c1.6-2.6 3.8-5.4 6-7.6 16.2-16.7 41.7-23.5 64.4-23.6l27.7 0.1c17.4-0.1 40.7-2.2 54.2 11.3 5.5 5.5 7.5 12 7.5 19.7 5 1.1 9.9 2.5 14.2 5.3 9.5 6.2 15.4 15.5 17.7 26.5 1.1 5.4 0.7 35.8-0.6 41.4-1.3 5.7-3.6 10.5-6.8 15.3-1.7 2.3-3.7 4.1-6 6-0.4 6-1.3 28.8-4.2 33.1-0.4-17.6-0.6-35.2-1.2-52.7-6.9-5.6-13.4-11.2-17.3-19.4-6-12.5-5.9-29.4-1.3-42.3-8 10.6-19.1 17.9-31.6 22.2-23.1 7.9-63.1 7.2-86.8 2.1-7.1-1.5-14-3.9-20.6-7 0.6 2.7 0.9 5.6 1 8.3 0.6 16.7-6.5 33.2-17.7 45.3-0.3 6.8 1 17.9-0.8 24.1-0.5 1.5-1.2 2.6-2.1 3.8-1 0.8-2.4 1.6-3.6 1.8-2.1 0.5-4.8 0.1-6.6-1.2-5.4-3.7-3.7-14.7-4.7-20.7q0-0.2-0.1-0.4c-5.1-3.3-11-3.1-16.8-2.3 0.3-11.4 0-22.8 0-34.2 0-8.7-0.4-17.4 1.7-26 1.5-6.3 4.4-12.3 8.6-17.3 6.7-8.2 15.7-10.6 25.8-11.6z"/><path class="i" d="m181 141.2c5.8-0.8 11.7-1 16.8 2.3q0.1 0.2 0.1 0.4c1 6-0.7 17 4.7 20.7 1.8 1.3 4.5 1.7 6.6 1.2 1.2-0.2 2.6-1 3.6-1.8-0.2 28.3-1.6 60.3 19.7 82 6 6 10.4 8.1 17.4 12.2-5.2 0.3-13.6-3.3-15.8-3-0.3 0-0.6 0.2-0.9 0.4-0.5-0.6-0.9-1.5-1.3-2.2-2-1-3.9-2.5-6-3.3-14.2-10.8-23.7-25.2-26.9-42.7-7.7 1.4-14.8 0.2-21.8-3.2-7.4-3.6-12.9-10.3-15.5-18-3.3-9.4-3.3-21 1.2-30 4.1-8.2 9.6-12.2 18.1-15z"/><path class="d" d="m233.2 255.6c0.3-0.2 0.6-0.4 0.9-0.4 2.2-0.3 10.6 3.3 15.8 3 26.8 10.9 53.4 12.9 82 10.2-4.6 9.2-13 15.3-22.6 18.5-1.8 0.6-3.5 1.1-5.3 1.5-2.1 0.4-6.6 0.5-8.3 1.5h-0.4c-1.7-0.9-8.8-0.8-11.4-1.1-2.4-0.4-4.8-1-7.2-1.7-17.3-4.8-34.6-15.6-43.5-31.5z"/><path class="i" d="m401.4 140.5c7.9 1.8 14.9 5.5 19.3 12.5 4.7 7.4 5.7 18.2 3.7 26.6-2.2 9.9-7.5 18.6-16.3 24-5.3 3.2-11.2 4.4-17.4 4.5 1.7-9.1 0.4-19.2 0.5-28.5 2.9-4.3 3.8-27.1 4.2-33.1 2.3-1.9 4.3-3.7 6-6z"/><path class="d" d="m295.3 289.9h0.4q7.3 6.4 14.7 12.7c3.1 2.6 6.5 5.2 9.4 8-3.4 4.9-7 9.8-10 15-7.3-1.3-17.8-2.6-24.7 0.9-4.3-4.4-8.8-10.7-12.8-15.5q7.7-6.6 15-13.5c2.6-2.5 5.1-5.5 8-7.6z"/><text style="transform:matrix(1.518,0,0,1.518,266.446,224.466)" ><tspan x="0" y="0" class="j">?
</tspan></text></svg>