<?xml version="1.0" encoding="utf-8" ?><svg xmlns="http://www.w3.org/2000/svg" xmlns:xlink="http://www.w3.org/1999/xlink" width="512" height="512" viewBox="0 0 512 512"><path fill="#FEC500" d="M256.121 118.575C261.737 124.895 268.077 130.693 274.064 136.661L307.499 170.094L318.282 180.954C320.349 183.048 322.621 185.141 324.447 187.439C327.94 183.44 331.854 179.754 335.612 176.001L353.536 158.109L377.795 133.872C382.908 128.741 387.937 123.487 393.201 118.512C392.906 125.18 391.403 132.094 390.435 138.705L384.804 177.461L368.082 292.043C366.066 306.286 363.557 320.502 361.916 334.793L356.778 369.531C355.615 377.44 354.347 385.354 353.461 393.299C327.395 392.9 301.272 393.275 275.2 393.275L158.679 393.254C157.149 384.789 156.167 376.144 154.917 367.625C153.222 356.081 151.317 344.532 149.88 332.955C148.722 327.713 148.333 322.015 147.568 316.684L143.157 286.99L130.727 201.449L122.471 145.294L120.236 130.133C119.667 126.304 118.937 122.37 118.91 118.493C130.104 130.383 142.086 141.672 153.73 153.128C159.139 158.449 164.157 164.308 169.767 169.402C177.042 161.913 183.158 151.788 185.469 141.523C186.108 138.689 185.954 134.317 187.523 131.912L187.744 132.033C188.156 134.508 188.332 136.99 188.829 139.457C191.237 151.424 196.881 160.532 204.904 169.527C209.361 165.934 213.319 161.201 217.391 157.139L241.661 132.855C246.421 128.076 251.086 123.061 256.121 118.575Z"/><path fill="#FEEB00" d="M149.88 332.955C153.919 332.672 158.254 332.999 162.325 333.002L189.626 333.006L274.681 332.999C282.717 332.999 290.775 332.866 298.809 332.982C301.475 333.02 304.499 333.768 307.105 333.515C316.624 335.913 323.937 339.281 329.194 348.043C331.632 352.106 332.784 356.232 333.451 360.886C335.614 351.333 338.897 343.758 347.508 338.301C351.38 335.847 355.555 334.514 360.046 333.742L361.463 333.897C361.72 334.26 361.796 334.392 361.916 334.793L356.778 369.531C355.615 377.44 354.347 385.354 353.461 393.299C327.395 392.9 301.272 393.275 275.2 393.275L158.679 393.254C157.149 384.789 156.167 376.144 154.917 367.625C153.222 356.081 151.317 344.532 149.88 332.955Z"/><path fill="#FEFEE8" d="M169.767 169.402C177.042 161.913 183.158 151.788 185.469 141.523C186.108 138.689 185.954 134.317 187.523 131.912L187.744 132.033C188.156 134.508 188.332 136.99 188.829 139.457C191.237 151.424 196.881 160.532 204.904 169.527C212.302 177.241 222.794 182.997 233.16 185.495C236.46 186.29 240.131 186.443 243.3 187.596C228.035 188.174 213.617 195.368 203.275 206.512C193.882 216.551 188.325 229.578 187.577 243.305C186.816 239.211 186.193 234.994 185.064 230.984C181.234 217.404 172.748 205.604 161.093 197.651C153.216 192.238 143.523 188.47 133.958 187.722C134.091 187.251 134.215 187.135 134.536 186.782C145.901 185.521 162.49 178.417 169.767 169.402Z"/><path fill="#FE6E00" d="M307.105 333.515C307.176 333.491 307.246 333.465 307.317 333.442C309.384 332.755 311.572 332.582 313.647 331.864C320.832 329.382 326.883 323.885 330.299 317.131C332.09 313.577 333.157 309.702 333.436 305.732C334.923 314.702 338.496 322.465 346.062 327.87C348.279 329.454 350.968 331.033 353.559 331.895C355.418 332.514 358.498 332.659 360.046 333.742C355.555 334.514 351.38 335.847 347.508 338.301C338.897 343.758 335.614 351.333 333.451 360.886C332.784 356.232 331.632 352.106 329.194 348.043C323.937 339.281 316.624 335.913 307.105 333.515Z"/><path fill="#FEEB00" d="M129.637 187.601C131.263 187.291 132.897 187.018 134.536 186.782C134.215 187.135 134.091 187.251 133.958 187.722C132.519 187.94 131.066 187.805 129.637 187.601Z"/></svg>