<svg version="1.2" xmlns="http://www.w3.org/2000/svg" viewBox="0 0 512 512" width="512" height="512">
	<title>crown</title>
	<style>
		.s0 { fill: #666a81 } 
		.s1 { fill: #515254 } 
		.s2 { fill: #1f2232 } 
		.s3 { fill: #feeb00 } 
	</style>
	<path class="s0" d="m256.12 118.58c5.62 6.31 11.96 12.11 17.94 18.08l33.44 33.43 10.78 10.86c2.07 2.1 4.34 4.19 6.17 6.49 3.49-4 7.4-7.69 11.16-11.44l17.93-17.89 24.26-24.24c5.11-5.13 10.14-10.38 15.4-15.36-0.29 6.67-1.8 13.58-2.77 20.2l-5.63 38.75-16.72 114.58c-2.01 14.25-4.52 28.46-6.16 42.75l-5.14 34.74c-1.16 7.91-2.43 15.82-3.32 23.77-26.07-0.4-52.19-0.03-78.26-0.03l-116.52-0.02c-1.53-8.46-2.51-17.11-3.76-25.62-1.7-11.55-3.6-23.1-5.04-34.68-1.16-5.24-1.55-10.94-2.31-16.27l-4.41-29.69-12.43-85.54-8.26-56.16-2.23-15.16c-0.57-3.83-1.3-7.76-1.33-11.64 11.19 11.89 23.18 23.18 34.82 34.64 5.41 5.32 10.43 11.18 16.04 16.27 7.27-7.49 13.39-17.61 15.7-27.88 0.64-2.83 0.48-7.2 2.05-9.61l0.22 0.12c0.42 2.48 0.59 4.96 1.09 7.43 2.41 11.96 8.05 21.07 16.07 30.07 4.46-3.6 8.42-8.33 12.49-12.39l24.27-24.29c4.76-4.77 9.43-9.79 14.46-14.27z"/>
	<path class="s1" d="m150 333.12c4.04-0.29 8.37 0.04 12.44 0.04l27.31 0.01 85.05-0.01c8.04 0 16.09-0.13 24.13-0.02 2.67 0.04 5.69 0.79 8.3 0.54 9.51 2.39 16.83 5.76 22.08 14.52 2.44 4.07 3.59 8.19 4.26 12.85 2.16-9.56 5.45-17.13 14.06-22.59 3.87-2.45 8.05-3.79 12.54-4.56l1.41 0.16c0.26 0.36 0.34 0.49 0.46 0.89l-5.14 34.74c-1.16 7.91-2.43 15.82-3.32 23.77-26.07-0.4-52.19-0.02-78.26-0.02l-116.52-0.03c-1.53-8.46-2.51-17.11-3.76-25.62-1.7-11.55-3.6-23.1-5.04-34.67z"/>
	<path class="s2" d="m169.77 169.4c7.27-7.49 13.39-17.61 15.7-27.88 0.64-2.83 0.48-7.2 2.05-9.61l0.22 0.12c0.42 2.48 0.59 4.96 1.09 7.43 2.41 11.96 8.05 21.07 16.07 30.07 7.4 7.71 17.89 13.47 28.26 15.96 3.3 0.8 6.97 0.95 10.14 2.11-15.27 0.57-29.68 7.77-40.03 18.91-9.39 10.04-14.95 23.07-15.69 36.8-0.76-4.1-1.39-8.32-2.52-12.33-3.83-13.58-12.31-25.38-23.97-33.33-7.87-5.41-17.57-9.18-27.13-9.93 0.13-0.47 0.25-0.59 0.58-0.94 11.36-1.26 27.95-8.36 35.23-17.38z"/>
	<path class="s3" d="m129.64 187.6q2.44-0.46 4.9-0.82c-0.32 0.35-0.45 0.47-0.58 0.94-1.44 0.22-2.89 0.09-4.32-0.12z"/>
</svg>