<?xml version="1.0" encoding="utf-8" ?><svg xmlns="http://www.w3.org/2000/svg" xmlns:xlink="http://www.w3.org/1999/xlink" width="300" height="300" viewBox="0 0 300 300"><path fill="#82D3F8" transform="scale(0.292969 0.292969)" d="M353.873 139.023C350.38 128.267 350.557 118.027 355.778 107.851C363.62 92.5661 379.718 82.3344 395.691 77.2587C424.876 67.9846 464.708 68.3152 492.044 82.7621C506.312 90.3023 517.634 103.015 522.327 118.571C527.361 135.259 526.01 154.541 517.697 169.956C507.802 188.304 489.893 198.269 471.05 205.407C465.196 207.625 458.689 209.316 453.381 212.671C450.219 214.669 448.222 216.909 446.67 220.291L446.764 221.089C448.046 231.467 453.797 242.771 446.246 252.138C442.509 256.773 436.792 259.703 430.906 260.339C429.519 260.489 428.083 260.424 426.7 260.245C426.578 264.875 426.511 269.505 426.501 274.137C435.113 273.556 443.598 276.461 450.046 282.2C456.847 288.168 460.896 296.2 461.481 305.249C462.099 314.281 459.02 323.177 452.951 329.895C447.157 336.436 438.973 340.368 430.246 340.805C429.105 340.866 427.922 340.91 426.781 340.822C426.45 358.206 427.022 375.749 427.028 393.153C426.747 435.688 426.862 478.224 427.374 520.757L427.011 682.558L427.045 772.526L427.129 799.24C427.16 804.993 427.46 810.921 426.915 816.647C426.416 821.882 424.989 826.206 421.109 829.921C417.777 833.111 412.741 833.517 408.312 833.783C399.286 834.325 390.087 834.02 381.038 834.023L338.428 833.928C311.489 833.631 284.52 833.873 257.579 833.874L120.961 833.9C101.833 833.886 82.4902 834.727 63.3966 834.116C58.0039 833.944 54.4363 833.558 49.6654 830.72C45.955 824.347 46.7831 818.389 47.1517 811.368C46.1778 811.451 45.2019 811.507 44.225 811.537C40.1136 811.688 36.3121 811.426 33.1876 808.398C29.8145 805.129 29.5212 799.015 29.4123 794.545C29.0676 780.402 29.3675 766.183 29.3891 752.034L29.4586 675.483L29.5595 434.052L29.4245 246.101L29.1764 182.97C29.1384 171.697 28.8064 160.227 29.236 148.975C29.3388 146.282 29.882 142.888 31.9805 140.97C34.2918 138.858 40.8144 138.631 43.8988 138.528C52.5711 138.237 61.3355 138.977 70.0257 139.011L132.946 139.001L353.873 139.023ZM411.136 153.976C413.331 151.578 416.472 148.077 420.002 148.078C421.713 148.079 423.042 148.664 424.205 149.894C429.77 155.78 427.943 182.483 427.465 190.73C427.44 191.165 427.402 191.6 427.359 192.034C432.014 190.999 449.174 180.367 452.885 176.794C461.851 168.162 464.841 155.408 464.972 143.344C465.099 131.638 462.878 119.515 454.172 111.061C448.717 105.765 440.115 104.272 432.781 104.394C427.73 104.478 419.874 104.861 416.308 108.895C411.264 114.6 417.532 127.912 417.573 135.078C417.618 142.988 413.925 148.751 408.567 154.132L411.136 153.976Z"/><path fill="#097DAE" transform="scale(0.292969 0.292969)" d="M353.873 139.023C350.38 128.267 350.557 118.027 355.778 107.851C363.62 92.5661 379.718 82.3344 395.691 77.2587C424.876 67.9846 464.708 68.3152 492.044 82.7621C506.312 90.3023 517.634 103.015 522.327 118.571C527.361 135.259 526.01 154.541 517.697 169.956C507.802 188.304 489.893 198.269 471.05 205.407C465.196 207.625 458.689 209.316 453.381 212.671C450.219 214.669 448.222 216.909 446.67 220.291L446.764 221.089C448.046 231.467 453.797 242.771 446.246 252.138C442.509 256.773 436.792 259.703 430.906 260.339C429.519 260.489 428.083 260.424 426.7 260.245C426.578 264.875 426.511 269.505 426.501 274.137C435.113 273.556 443.598 276.461 450.046 282.2C456.847 288.168 460.896 296.2 461.481 305.249C462.099 314.281 459.02 323.177 452.951 329.895C447.157 336.436 438.973 340.368 430.246 340.805C429.105 340.866 427.922 340.91 426.781 340.822C426.45 358.206 427.022 375.749 427.028 393.153C426.747 435.688 426.862 478.224 427.374 520.757L427.011 682.558L427.045 772.526L427.129 799.24C427.16 804.993 427.46 810.921 426.915 816.647C426.416 821.882 424.989 826.206 421.109 829.921C417.777 833.111 412.741 833.517 408.312 833.783C399.286 834.325 390.087 834.02 381.038 834.023L338.428 833.928C311.489 833.631 284.52 833.873 257.579 833.874L120.961 833.9C101.833 833.886 82.4902 834.727 63.3966 834.116C58.0039 833.944 54.4363 833.558 49.6654 830.72C45.955 824.347 46.7831 818.389 47.1517 811.368C57.212 809.781 68.4729 810.965 78.6741 810.986L143.095 811.02L387.298 811.482C393.85 811.464 399.672 811.764 404.529 806.666C407.232 803.829 408.166 800.687 408.439 796.87C408.915 790.218 408.662 783.452 408.645 776.781L408.564 743.282L408.432 635.531L408.565 334.393C406.239 332.644 404 330.485 402.199 328.2C396.554 321.068 394.056 311.944 395.281 302.931C396.505 293.319 401.497 286.037 409.019 280.185C409.107 271.526 408.675 262.825 408.43 254.168C407.575 252.598 406.776 250.999 406.035 249.372C400.772 237.716 404.208 225.435 408.55 214.146C408.56 206.713 408.606 199.275 408.508 191.844C408.346 179.523 406.627 165.682 411.136 153.976C413.331 151.578 416.472 148.077 420.002 148.078C421.713 148.079 423.042 148.664 424.205 149.894C429.77 155.78 427.943 182.483 427.465 190.73C427.44 191.165 427.402 191.6 427.359 192.034C432.014 190.999 449.174 180.367 452.885 176.794C461.851 168.162 464.841 155.408 464.972 143.344C465.099 131.638 462.878 119.515 454.172 111.061C448.717 105.765 440.115 104.272 432.781 104.394C427.73 104.478 419.874 104.861 416.308 108.895C411.264 114.6 417.532 127.912 417.573 135.078C417.618 142.988 413.925 148.751 408.567 154.132C398.708 159.865 388.076 161.883 376.914 158.874C365.937 155.914 359.321 148.6 353.873 139.023Z"/><path fill="#097DAE" transform="scale(0.292969 0.292969)" d="M148.888 212.74C156.569 212.514 165.576 211.677 173.096 213.217C177.019 214.02 178.793 215.355 180.99 218.625L181.125 276.95C181.232 287.669 182.571 299.521 181.06 310.117C180.778 312.09 180.268 313.778 178.803 315.199C177.784 316.189 176.684 316.539 175.31 316.735C168.588 317.696 160.975 317.044 154.172 317.038L111.269 316.984C104.647 317.08 86.9609 318.638 82.0813 314.822C80.0399 313.225 79.4438 308.727 79.1852 306.287C77.9711 294.828 78.8814 282.853 78.9222 271.338C78.9863 253.226 78.7095 235.154 79.0173 217.037C80.578 215.546 82.2628 214.322 84.0037 213.057C104.973 211.749 127.553 213.493 148.888 212.74Z"/><path fill="#82D3F8" transform="scale(0.292969 0.292969)" d="M90.5601 222.754C117.292 222.062 144.245 222.771 170.987 223.108L171.36 302.266C171.352 303.833 171.616 305.898 170.485 307L88.993 307.018L88.9837 247.698C88.9852 241.227 88.1145 229.037 89.2237 223.181L90.5601 222.754Z"/><path fill="#097DAE" transform="scale(0.292969 0.292969)" d="M101.467 626.732C113.794 626.502 126.163 627.041 138.499 626.977C148.943 626.923 166.296 625.1 176.114 627.52C178.737 628.167 180.065 630.768 181.388 632.882C180.591 651.441 180.547 670.281 180.67 688.861C180.736 698.865 181.349 708.936 180.832 718.932C180.722 721.062 180.651 726.658 179.205 728.214C174.856 732.897 165.2 731.548 159.375 731.502C146.817 731.561 134.265 731.021 121.712 731.102C110.568 731.173 98.7148 732.275 87.6576 730.738C85.1287 730.386 82.9739 729.958 81.1572 728.04C79.6473 726.445 79.4536 724.394 79.2473 722.301C78.2391 712.069 78.9803 701.25 78.9891 690.953L79.0077 632.383C80.9369 630.173 83.0069 628.599 85.52 627.103L101.467 626.732Z"/><path fill="#82D3F8" transform="scale(0.292969 0.292969)" d="M89.4907 637.016L171.006 637.011C171.382 665.004 171.546 692.998 171.497 720.993L89.5296 720.695L89.4907 637.016Z"/><path fill="#097DAE" transform="scale(0.292969 0.292969)" d="M151.848 419.741C157.67 419.616 174.585 418.64 178.819 422.323C180.982 424.204 181.16 430.359 181.268 433.153C181.735 445.196 180.956 457.424 181.025 469.499C181.111 484.808 182.485 502.199 180.676 517.173C180.464 518.928 180.196 520.059 178.907 521.359C177.453 522.825 175.985 523.196 173.999 523.52C167.354 524.601 160.018 524.126 153.265 524.209C138.802 524.373 124.338 524.39 109.875 524.259C104.26 523.998 84.6646 525.041 81.442 521.223C79.5645 518.998 79.2133 512.952 79.0842 510.065C78.5027 497.057 79.1054 483.837 78.9709 470.803C78.8312 457.272 77.6136 440.007 79.3955 426.727C79.6046 425.168 80.032 423.68 81.2027 422.558C82.8423 420.985 84.7833 420.615 86.9784 420.325C94.1137 419.383 101.819 419.921 109.03 419.941C123.295 419.981 137.589 420.203 151.848 419.741Z"/><path fill="#82D3F8" transform="scale(0.292969 0.292969)" d="M91.3539 430.245C117.81 429.211 144.537 430.137 171.004 430.513C171 440.536 172.059 510.032 170.76 512.894C170.478 513.517 169.733 513.454 169.125 513.601C142.561 514.154 115.905 513.931 89.3303 513.935C89.5321 505.145 88.4557 432.792 89.383 431.066C89.7052 430.466 90.7399 430.417 91.3539 430.245Z"/><path fill="#AC5DFA" transform="scale(0.292969 0.292969)" d="M365.574 618.404C371.347 623.966 376.361 630.136 382.505 635.335C383 637.176 383.327 638.561 382.391 640.372C379.595 645.782 364.153 661.281 359.12 666.876C336.803 691.684 314.061 716.217 292.205 741.425C286.029 735.079 279.653 728.817 273.827 722.15C275.016 720.653 276.163 719.106 277.476 717.715C284.491 709.015 292.378 700.745 299.779 692.344C305.384 685.873 311.088 679.461 316.484 672.813C324.297 664.666 331.757 656.113 339.351 647.759C348.174 638.052 357.157 628.467 365.574 618.404Z"/><path fill="#4A47A3" transform="scale(0.292969 0.292969)" d="M382.505 635.335C383 637.176 383.327 638.561 382.391 640.372C379.595 645.782 364.153 661.281 359.12 666.876C336.803 691.684 314.061 716.217 292.205 741.425C286.029 735.079 279.653 728.817 273.827 722.15C275.016 720.653 276.163 719.106 277.476 717.715C282.548 723.555 287.918 729.143 293.24 734.753C299.951 725.273 308.178 716.748 315.983 708.172L352.043 668.808C361.94 657.904 370.734 644.22 382.505 635.335Z"/><path fill="#AC5DFA" transform="scale(0.292969 0.292969)" d="M360.846 417.981C366.396 423.409 371.325 429.319 377.201 434.442C378.114 435.817 378.873 436.796 378.944 438.512C375.975 444.327 364.448 455.238 359.537 460.825C337.509 485.887 314.695 510.407 293.448 536.119C289.71 532.183 274.917 519.299 275.283 514.499C275.361 513.469 275.863 512.841 276.601 512.196C284.578 506.836 296.085 491.436 302.716 483.477C308.879 477.142 314.799 470.575 320.463 463.79C327.439 457.752 333.165 450.007 339.254 443.081C346.565 434.764 354.375 427.015 360.846 417.981Z"/><path fill="#4A47A3" transform="scale(0.292969 0.292969)" d="M294.527 528.465C301.121 520.01 308.647 512.194 315.722 504.133C326.345 492.029 336.785 479.715 347.687 467.863C357.75 456.923 368.184 446.284 377.201 434.442C378.114 435.817 378.873 436.796 378.944 438.512C375.975 444.327 364.448 455.238 359.537 460.825C337.509 485.887 314.695 510.407 293.448 536.119C289.71 532.183 274.917 519.299 275.283 514.499C275.361 513.469 275.863 512.841 276.601 512.196C282.818 517.391 287.961 523.577 294.527 528.465Z"/><path fill="#AC5DFA" transform="scale(0.292969 0.292969)" d="M361.852 213.195C366.973 218.114 371.839 223.451 376.562 228.753L379.613 232.075C370.205 242.114 361.446 252.647 352.443 263.04L318.574 301.877C309.713 312.076 301.353 322.582 291.664 332.032C288.038 328.547 274.443 316.875 274.435 311.776C274.434 310.992 275.302 309.972 275.711 309.305L302.42 279.172C308.428 273.096 314.006 266.394 319.73 260.037C326.42 253.749 332.054 246.583 338.092 239.696C345.911 230.777 353.915 222.009 361.852 213.195Z"/><path fill="#4A47A3" transform="scale(0.292969 0.292969)" d="M376.562 228.753L379.613 232.075C370.205 242.114 361.446 252.647 352.443 263.04L318.574 301.877C309.713 312.076 301.353 322.582 291.664 332.032C288.038 328.547 274.443 316.875 274.435 311.776C274.434 310.992 275.302 309.972 275.711 309.305C282.158 313.455 287.334 319.734 292.543 325.281C320.303 292.892 348.311 260.715 376.562 228.753Z"/><path fill="#FEFEFE" transform="scale(0.292969 0.292969)" d="M224.425 629.092C231.181 628.679 238.024 628.941 244.792 628.95L280.755 628.976L304.858 628.903C310.438 628.882 316.353 628.503 321.854 629.542C323.99 629.946 325.457 630.81 326.639 632.666C328.326 635.312 329.041 639.15 328.233 642.202C327.39 645.386 325.033 646.908 322.322 648.441C317.006 648.861 311.597 648.563 306.265 648.546L276.78 648.516L246.526 648.556C238.759 648.591 230.962 649.174 223.285 647.716C221.328 646.33 220.021 644.839 218.525 642.994C218.444 640.613 218.135 637.831 218.757 635.52C219.629 632.278 221.689 630.792 224.425 629.092Z"/><path fill="#FEFEFE" transform="scale(0.292969 0.292969)" d="M243.955 218.735C261.454 218.509 278.955 218.471 296.455 218.622C304.575 218.727 313.746 218.191 321.702 219.863C324.513 222.294 325.62 224.472 326.83 227.897C325.629 232.526 324.49 234.596 320.511 237.37C314.607 238.101 308.686 238.009 302.75 238.014L255.377 238.023C246.681 238.046 237.672 238.525 229.014 237.811C226.759 237.625 223.942 237.426 222.105 236.023C220.305 234.648 219.552 232.128 219.35 229.973C219.086 227.155 219.668 223.71 221.649 221.561C225.482 217.403 238.415 218.816 243.955 218.735Z"/><path fill="#FEFEFE" transform="scale(0.292969 0.292969)" d="M230.073 423.709L284.198 423.526C294.676 423.483 305.587 422.838 316.013 423.747C318.448 423.96 322.141 424.15 323.998 425.832C325.924 427.577 326.585 430.519 326.594 433.02C326.604 435.936 325.875 438.35 323.725 440.389C321.647 442.361 319.675 442.519 316.914 442.519C301.639 442.843 286.321 442.512 271.042 442.518C255.668 442.525 240.287 442.881 224.918 442.427C221.917 440.351 219.617 437.787 219.038 434.042C218.681 431.729 219.239 429.479 220.674 427.632C223.155 424.44 226.347 424.08 230.073 423.709Z"/><path fill="#FEFEFE" transform="scale(0.292969 0.292969)" d="M302.716 483.477C287.268 483.908 271.87 483.477 256.428 483.531C246.932 483.563 236.733 484.746 227.342 483.427C225.132 483.117 223.271 482.611 221.534 481.15C219.461 479.407 218.544 476.847 218.474 474.192C218.394 471.173 219.547 468.418 221.718 466.312C223.485 464.598 225.546 464.315 227.896 464.072C238.339 462.992 249.14 463.913 259.638 463.97C279.913 464.168 300.189 464.108 320.463 463.79C314.799 470.575 308.879 477.142 302.716 483.477Z"/><path fill="#FEFEFE" transform="scale(0.292969 0.292969)" d="M226.575 260.097C238.634 259.521 250.831 259.946 262.903 259.968C281.845 259.85 300.788 259.873 319.73 260.037C314.006 266.394 308.428 273.096 302.42 279.172C287.676 280.331 272.613 279.454 257.82 279.485C247.929 279.505 236.53 281.125 226.857 279.126C224.436 278.626 222.184 277.298 220.835 275.185C219.408 272.95 219.158 269.956 219.8 267.42C220.71 263.824 223.586 261.931 226.575 260.097Z"/><path fill="#FEFEFE" transform="scale(0.292969 0.292969)" d="M299.779 692.344C293.566 691.4 286.758 691.932 280.457 691.942L243.917 692.095C238.11 692.136 231.929 692.602 226.196 691.646C224.07 691.292 222.314 690.793 220.688 689.3C219.02 687.776 218.035 685.645 217.956 683.387C217.857 680.538 218.918 677.451 220.953 675.423C222.497 673.884 224.23 673.446 226.328 673.18C236.806 671.854 247.646 672.917 258.194 672.954L316.484 672.813C311.088 679.461 305.384 685.873 299.779 692.344Z"/><path fill="#097DAE" transform="scale(0.292969 0.292969)" d="M657.803 12.7219C658.54 12.6749 659.263 12.6352 660.002 12.6305C683.559 12.4814 709.676 17.9546 726.98 35.0412C739.742 47.6442 745.163 65.3704 745.176 83.0005C745.199 114.093 727.453 137.378 697.982 146.781C689.455 149.501 675.607 150.503 669.262 157.447C663.836 163.387 671.521 175.157 671.418 182.243C671.361 186.185 670.007 189.95 667.01 192.595C661.813 197.183 653.099 198.752 646.322 198.205C639.641 197.666 633.331 194.989 629.007 189.74C623.87 183.505 623.266 175.354 623.963 167.631C625.135 154.646 630.546 141.534 640.692 133.048C650.046 124.986 664.173 125.675 673.177 116.506C681.264 108.271 683.824 95.0728 683.547 83.9269C683.27 72.7945 680.563 58.804 672.05 50.9186C666.077 45.386 658.682 43.5349 650.704 44.0331C645.212 44.376 637.839 46.3458 634.195 50.7125C627.84 58.3294 635.435 69.3176 636.31 77.727C636.817 82.5961 635.694 87.0845 632.511 90.8564C627.541 96.7461 619.848 99.1423 612.405 99.7279C601.458 100.589 588.724 97.5169 580.315 90.1894C574.113 84.7858 570.715 77.324 570.15 69.1703C569.382 58.0993 574.599 47.3087 581.797 39.1645C600.399 18.1182 631.372 14.4291 657.803 12.7219Z"/><path fill="#097DAE" transform="scale(0.292969 0.292969)" d="M904.073 191.224C918.605 191.997 932.339 192.673 945.526 199.545C956.53 205.376 964.722 215.392 968.255 227.333C970.773 235.895 971.103 244.952 969.214 253.674C961.352 290.907 922.943 287.055 918.259 297.16C916.539 300.872 919.605 307.65 920.859 311.334C920.046 313.97 919.142 316.297 917.284 318.388C914.128 321.938 909.801 323.903 905.056 324.027C899.92 324.162 894.512 322.334 890.883 318.619C887.339 314.99 885.985 309.979 886.001 305.015C886.031 295.794 889.472 284.671 896.14 278.138C903.783 272.283 915.375 270.865 921.251 263.012C926.817 255.573 926.943 242.61 925.744 233.851C924.803 226.971 922.08 220.097 916.287 215.907C911.349 212.334 904.755 211.82 898.879 212.759C895.765 213.257 892.597 214.297 890.771 217.054C887.784 221.567 890.133 227.311 891.204 232.043C892.284 236.818 892.307 241.822 889.455 246.024C886.622 250.199 881.279 251.923 876.521 252.69C868.306 254.015 859.877 252.533 853.15 247.437C848.202 243.689 845.471 238.409 844.919 232.237C844.223 224.464 848.891 214.406 853.993 208.696C866.476 194.726 886.382 192.117 904.073 191.224Z"/><path fill="#097DAE" transform="scale(0.292969 0.292969)" d="M644.111 214.201C662.576 211.23 679.948 223.806 682.891 242.276C685.835 260.745 673.232 278.098 654.758 281.014C636.323 283.924 619.015 271.354 616.077 252.923C613.14 234.493 625.685 217.165 644.111 214.201Z"/><path fill="#097DAE" transform="scale(0.292969 0.292969)" d="M899.705 334.739C912.124 333.123 923.564 341.712 925.476 354.088C927.389 366.465 919.075 378.106 906.747 380.314C898.507 381.789 890.114 378.684 884.819 372.2C879.523 365.717 878.157 356.873 881.248 349.093C884.34 341.313 891.404 335.82 899.705 334.739Z"/><path fill="#704B35" transform="scale(0.292969 0.292969)" d="M481.88 511.419L474.348 470.483C472.374 459.625 470.196 448.805 469.689 437.75C468.388 409.433 478.069 378.877 494.231 355.712C516.357 323.998 555.278 305.241 592.623 298.716C642.348 290.027 702.259 296.04 744.373 325.801C773.14 346.361 792.682 377.397 798.792 412.224C800.213 420.136 800.788 428.177 800.508 436.211C799.864 451.914 796.172 467.813 793.514 483.293C791.913 492.615 790.939 502.762 788.221 511.797C799.405 513.755 807.974 517.326 814.647 526.908C823.746 539.976 824.747 558.236 821.98 573.451C819.017 589.742 810.446 606.325 796.471 615.761C790.013 620.121 781.863 623.08 774.013 621.457C772.429 621.13 770.892 620.53 769.385 619.954C759.36 666.857 737.74 703.513 696.915 730.033C694.468 731.59 691.99 733.1 689.484 734.561C689.16 753.365 690.018 772.232 689.532 791.011C705.148 792.933 719.606 797.448 734.632 801.868L788.15 817.803L827.106 828.794C837.766 831.787 848.723 834.436 858.771 839.18C868.129 843.699 876.292 850.358 882.598 858.618C905.803 888.589 906.228 950.482 906.134 987.336C906.105 998.85 906.647 1011.18 905.351 1022.6C905.317 1022.9 905.251 1023.19 905.201 1023.48L905.048 1024L545.017 1024L542.31 1024C534.953 1021.53 516.178 1022.88 507.718 1023.04C473.874 1023.63 439.922 1023.11 406.068 1023.01L402.915 1022.84C389.636 1023.43 375.836 1022.97 362.543 1022.36C362.205 978.86 359.403 900.435 383.166 863.031C388.978 853.751 397.108 846.146 406.754 840.965C416.99 835.507 428.455 832.596 439.549 829.419L471.538 820.267C499.13 812.343 526.619 803.525 554.613 797.149C556.206 795.729 557.881 785.037 558.457 782.33C562.102 765.19 567.241 747.376 573.405 730.965C564.662 724.699 555.593 718.545 547.687 711.225C522.601 687.996 509.194 656.205 500.079 623.974C496.033 623.539 491.873 623.083 487.991 621.803C476.24 617.931 467.338 605.441 462.053 594.889C453.513 577.833 451.254 558.203 457.505 539.993C461.874 527.267 469.751 517.381 481.88 511.419Z"/><path fill="#2A1414" transform="scale(0.292969 0.292969)" d="M481.88 511.419L474.348 470.483C472.374 459.625 470.196 448.805 469.689 437.75C468.388 409.433 478.069 378.877 494.231 355.712C516.357 323.998 555.278 305.241 592.623 298.716C642.348 290.027 702.259 296.04 744.373 325.801C773.14 346.361 792.682 377.397 798.792 412.224C800.213 420.136 800.788 428.177 800.508 436.211C799.864 451.914 796.172 467.813 793.514 483.293C791.913 492.615 790.939 502.762 788.221 511.797L781.892 544.449C784.791 541.196 787.575 538.609 792.217 538.407C795.88 538.247 799.282 539.905 801.911 542.368C807.734 547.822 809.876 556.502 809.911 564.247C809.969 577.053 804.683 590.362 795.512 599.35C791.697 603.09 787.291 605.91 782.657 608.521C778.991 608.42 775.371 608.124 771.72 607.775C773.078 599.408 779.472 576.385 776.665 569.369C770.115 587.341 757.182 603.129 739.664 611.368C724.597 618.495 707.285 619.214 691.679 613.362C674.668 607.066 661.502 594.258 654.009 577.804C649.138 567.105 648.799 556.365 647.668 544.901C638.675 543.382 630.012 544.746 621.071 545.957C621.313 566.299 615.682 584.119 601.232 598.955C589.862 610.628 574.563 617.928 558.155 618.127C540.332 618.343 523.595 610.653 511.03 598.227C503.715 590.994 498.852 582.446 494.347 573.302C492.658 582.65 496.718 594.925 495.46 605.705C493.3 605.384 491.069 605.067 489.003 604.335C480.685 601.387 474.923 593.544 471.154 585.924C465.319 574.127 462.921 559.474 467.342 546.807C469.344 541.073 473.122 535.434 478.783 532.824C482.69 531.023 485.439 530.862 489.427 532.261C486.418 525.57 485.285 517.84 481.88 511.419Z"/><path transform="scale(0.292969 0.292969)" d="M497.852 516.62C508.039 500.603 521.746 489.793 540.236 484.715C556.556 480.232 573.368 481.984 588.138 490.47C600.592 497.625 611.09 510.487 616.511 523.713C618.512 528.595 619.781 533.837 621.168 538.918L625.375 535.596C633.95 534.956 641.238 534.753 649.487 537.488C652.961 524.062 657.812 511.767 667.982 501.973C679.733 490.657 696.47 483.245 712.912 483.594C735.592 484.075 753.788 495.832 768.912 511.817C780.482 530.409 781.806 547.452 776.867 568.567C776.804 568.835 776.74 569.104 776.665 569.369C770.115 587.341 757.182 603.129 739.664 611.368C724.597 618.495 707.285 619.214 691.679 613.362C674.668 607.066 661.502 594.258 654.009 577.804C649.138 567.105 648.799 556.365 647.668 544.901C638.675 543.382 630.012 544.746 621.071 545.957C621.313 566.299 615.682 584.119 601.232 598.955C589.862 610.628 574.563 617.928 558.155 618.127C540.332 618.343 523.595 610.653 511.03 598.227C503.715 590.994 498.852 582.446 494.347 573.302C493.607 569.002 491.562 564.708 490.638 560.375C487.287 544.674 491.616 530.902 497.852 516.62Z"/><path fill="#704B35" transform="scale(0.292969 0.292969)" d="M593.17 504.129C616.354 523.009 621.844 556.201 605.974 581.541C590.105 606.881 557.846 616.432 530.738 603.817C503.631 591.203 490.165 560.372 499.331 531.913C508.498 503.454 537.427 486.279 566.801 491.857C576.474 493.694 585.536 497.911 593.17 504.129Z"/><path fill="#FEFEFE" transform="scale(0.292969 0.292969)" d="M566.801 491.857C576.474 493.694 585.536 497.911 593.17 504.129C595.903 509.229 598.596 514.394 600.404 519.908C605.688 536.022 603.244 549.937 595.622 564.799C591.53 572.777 585.008 579.857 576.218 582.535C569.917 584.454 563.4 583.532 557.652 580.395C548.138 575.202 541.697 564.979 538.713 554.801C534.485 540.381 536.04 523.201 543.34 509.999C548.673 500.355 556.303 494.84 566.801 491.857Z"/><path transform="scale(0.292969 0.292969)" d="M567.124 508.562C569.909 508.341 572.348 508.292 575.01 509.256C580.347 511.188 584.07 515.38 586.414 520.446C590.596 529.484 591.035 540.987 587.557 550.322C584.932 557.365 580.653 562.151 573.807 565.303C571.289 565.708 569.057 565.94 566.561 565.262C561.709 563.942 558.167 560.539 555.83 556.178C551.033 547.23 550.672 535.617 553.534 526.019C555.833 518.307 559.924 512.436 567.124 508.562Z"/><path fill="#704B35" transform="scale(0.292969 0.292969)" d="M703.06 491.895C732.65 486.32 761.699 503.887 770.505 532.68C779.312 561.474 765.058 592.284 737.413 604.215C709.767 616.145 677.572 605.38 662.663 579.22C647.754 553.06 654.901 519.873 679.255 502.168C686.332 497.023 694.463 493.515 703.06 491.895Z"/><path fill="#FEFEFE" transform="scale(0.292969 0.292969)" d="M703.06 491.895C710.848 493.175 716.494 496.943 721.087 503.277C730.29 515.971 733.696 533.16 731.068 548.509C729.004 560.566 722.975 573.462 712.652 580.577C707.327 584.247 700.985 585.943 694.561 584.809C686.51 583.388 679.133 577.75 674.584 571.083C666.368 559.045 664.293 542.891 667.038 528.828C669.085 518.338 673.373 510.895 679.255 502.168C686.332 497.023 694.463 493.515 703.06 491.895Z"/><path transform="scale(0.292969 0.292969)" d="M695.267 506.495C698.003 506.427 700.457 506.856 703.003 507.891C708.914 510.295 712.995 515.275 715.388 521.066C719.307 530.544 719.214 542.58 715.2 552.014C712.535 558.278 708.597 562.119 702.38 564.686C699.339 565.197 696.347 564.992 693.473 563.851C687.91 561.644 684.256 556.686 682.065 551.288C678.102 541.527 678.302 528.736 682.41 519.054C685.098 512.72 688.984 509.039 695.267 506.495Z"/><path fill="#704B35" transform="scale(0.292969 0.292969)" d="M497.852 516.62C495.592 506.52 499.435 486.729 501.957 476.806C510.684 442.472 530.941 411.787 561.812 393.611C595.95 373.511 636.64 369.491 674.674 379.47C708.607 388.373 736.17 410.199 753.755 440.506C764.793 459.533 774.829 489.773 768.912 511.817C753.788 495.832 735.592 484.075 712.912 483.594C696.47 483.245 679.733 490.657 667.982 501.973C657.812 511.767 652.961 524.062 649.487 537.488C641.238 534.753 633.95 534.956 625.375 535.596L621.168 538.918C619.781 533.837 618.512 528.595 616.511 523.713C611.09 510.487 600.592 497.625 588.138 490.47C573.368 481.984 556.556 480.232 540.236 484.715C521.746 489.793 508.039 500.603 497.852 516.62Z"/><path transform="scale(0.292969 0.292969)" d="M566.821 449.71C572.136 449.371 577.606 448.996 582.135 452.373C585.662 455.002 587.55 459.314 588.051 463.597C588.49 467.348 587.914 471.325 585.37 474.265C579.736 480.777 565.119 479.95 557.123 480.362C551.073 480.686 545.2 480.764 540.152 476.796C537.427 474.654 535.501 471.556 535.159 468.075C534.839 464.822 535.986 461.768 538.029 459.263C544.791 450.973 557.033 450.551 566.821 449.71Z"/><path transform="scale(0.292969 0.292969)" d="M692.806 449.581C704.136 448.717 718.339 449.404 728.56 454.944C732.046 456.833 734.818 459.441 735.864 463.387C736.823 467.005 736.076 471.013 734.043 474.132C731.64 477.82 728.826 479.132 724.643 480.021C714.22 479.377 699.93 477.827 690.176 474.283C686.517 472.954 682.782 470.883 681.15 467.144C679.837 464.135 680.323 460.557 681.69 457.652C683.857 453.048 688.345 451.241 692.806 449.581Z"/><path fill="#097DAE" transform="scale(0.292969 0.292969)" d="M689.532 791.011C705.148 792.933 719.606 797.448 734.632 801.868L788.15 817.803L827.106 828.794C837.766 831.787 848.723 834.436 858.771 839.18C868.129 843.699 876.292 850.358 882.598 858.618C905.803 888.589 906.228 950.482 906.134 987.336C906.105 998.85 906.647 1011.18 905.351 1022.6C905.317 1022.9 905.251 1023.19 905.201 1023.48L905.048 1024L545.017 1024L543.509 1022.53L507.469 1022.47C516.078 1012.92 524.361 1003.03 532.765 993.29C536.525 987.766 541.25 982.665 545.544 977.537C553.936 967.518 562.38 957.543 570.873 947.611C577.418 939.874 583.216 930.375 591.012 923.896C596.501 919.335 603.152 916.624 608.926 912.502C625.177 900.897 641.197 886.85 654.563 872.005C667.113 858.065 662.212 848.578 661.277 831.911C664.073 829.059 669.088 827.296 672.385 824.789C683.457 816.372 687.687 804.312 689.532 791.011Z"/><path fill="#FEFEFE" transform="scale(0.292969 0.292969)" d="M543.509 1022.53L825.263 1022.75C834.071 1022.76 901.23 1022.07 905.201 1023.48L905.048 1024L545.017 1024L543.509 1022.53Z"/><path fill="#097DAE" transform="scale(0.292969 0.292969)" d="M554.613 797.149C555.216 800.869 550.495 817.179 549.521 821.827C548.089 828.666 547.414 835.717 547.055 842.689C546.64 850.737 547.326 860.816 544.692 868.444C544.074 870.231 542.771 871.929 541.662 873.458C533.631 884.525 523.622 894.414 514.795 904.865C504.707 916.811 490.044 936.506 478.617 946.442C488.172 955.457 498.436 963.383 508.5 971.789C516.786 978.709 524.742 986.067 532.765 993.29C524.361 1003.03 516.078 1012.92 507.469 1022.47L543.509 1022.53L545.017 1024L542.31 1024C534.953 1021.53 516.178 1022.88 507.718 1023.04C473.874 1023.63 439.922 1023.11 406.068 1023.01L402.915 1022.84C389.636 1023.43 375.836 1022.97 362.543 1022.36C362.205 978.86 359.403 900.435 383.166 863.031C388.978 853.751 397.108 846.146 406.754 840.965C416.99 835.507 428.455 832.596 439.549 829.419L471.538 820.267C499.13 812.343 526.619 803.525 554.613 797.149Z"/><path fill="#82D3F8" transform="scale(0.292969 0.292969)" d="M478.617 946.442C488.172 955.457 498.436 963.383 508.5 971.789C516.786 978.709 524.742 986.067 532.765 993.29C524.361 1003.03 516.078 1012.92 507.469 1022.47L543.509 1022.53L545.017 1024L542.31 1024C534.953 1021.53 516.178 1022.88 507.718 1023.04C473.874 1023.63 439.922 1023.11 406.068 1023.01L402.915 1022.84C405.014 1022.59 407.162 1022.56 409.274 1022.45C417.823 1009.22 431.21 998.276 441.83 986.625L463.184 962.775C467.892 957.451 472.753 950.431 478.617 946.442Z"/><path fill="#2A1414" transform="scale(0.292969 0.292969)" d="M590.531 794C595.367 775.964 599.698 755.311 600.149 736.676C601.31 737.317 600.461 738.268 601.734 739.081C605.4 741.42 611.798 742.395 616.073 743.39C634.184 747.606 652.794 746.478 670.498 740.908C676.875 738.902 682.937 736.016 689.484 734.561C689.16 753.365 690.018 772.232 689.532 791.011C687.687 804.312 683.457 816.372 672.385 824.789C669.088 827.296 664.073 829.059 661.277 831.911C660.047 824.567 659.538 817.152 658.716 809.758C657.972 803.063 657.085 789.091 651.168 784.83C648.977 783.253 645.185 783.496 642.652 783.726C636.852 784.254 630.911 785.885 625.203 787.074C613.689 789.592 602.129 791.901 590.531 794Z"/><path transform="scale(0.292969 0.292969)" d="M641.591 579.451C642.844 579.397 644.482 579.277 645.677 579.726C647.403 580.376 648.634 581.828 649.551 583.382C652.122 587.741 652.667 593.17 655.162 597.707C659.692 605.943 668.226 615.574 671.447 623.475C672.291 625.545 672.876 627.825 671.866 629.948C670.36 633.112 666.385 635.367 663.259 636.576C654.734 639.874 646.672 639.12 638.429 635.501C636.988 634.572 635.65 633.55 634.532 632.235C632.799 630.196 632.273 627.651 632.423 625.047C632.965 624.08 633.148 623.579 634.371 623.375C638.031 622.767 643.834 627.069 647.1 628.719C651.492 630.939 658.1 628.29 662.468 626.905C656 616.001 640.147 597.112 639.48 585.088C639.341 582.58 639.977 581.321 641.591 579.451Z"/><path transform="scale(0.292969 0.292969)" d="M634.71 668.653C636.182 668.5 637.772 668.531 639.251 668.594C647.338 668.938 655.996 672.199 661.498 678.303C663.165 680.153 665.626 683.859 665.042 686.535C664.731 687.961 664.38 688.128 663.244 688.884C657.915 689.647 653.911 684.449 649.858 681.76C648.255 680.697 646.412 680.001 644.633 679.29C629.248 675.889 630.376 681.802 618.176 685.623C616.632 686.106 615.016 686.428 613.563 685.522C612.741 685.009 612.321 684.001 612.196 683.063C611.948 681.196 612.544 679.641 613.663 678.166C618.391 671.937 627.398 669.8 634.71 668.653Z"/><path transform="scale(0.292969 0.292969)" d="M4.5 0L640 0C635.726 0.869504 630.58 0.376485 626.161 0.41198C613.39 0.514572 600.616 0.139179 587.845 0.284715L391.546 0.605701L124.861 0.586568L46.4935 0.576864C32.7914 0.579411 18.0792 1.72839 4.5 0Z"/><path transform="scale(0.292969 0.292969)" d="M681.862 0L1011.5 0C1008.66 1.24694 969.517 0.628596 963.521 0.629832L768.748 0.598085L712.454 0.287382C703.354 0.288065 690.572 1.23263 681.862 0Z"/><path fill="#FEFEFE" fill-opacity="0.019607844" transform="scale(0.292969 0.292969)" d="M406.068 1023.01C439.922 1023.11 473.874 1023.63 507.718 1023.04L508.748 1023.48L508.582 1024L406.418 1024L406.068 1023.01Z"/><path fill="#FEFEFE" fill-opacity="0.3137255" transform="scale(0.292969 0.292969)" d="M507.718 1023.04C516.178 1022.88 534.953 1021.53 542.31 1024L519.205 1024C515.883 1023.23 512.156 1023.48 508.748 1023.48L507.718 1023.04Z"/><path fill="#FEFEFE" fill-opacity="0.21960784" transform="scale(0.292969 0.292969)" d="M508.748 1023.48C512.156 1023.48 515.883 1023.23 519.205 1024L508.582 1024L508.748 1023.48Z"/></svg>