<?xml version="1.0" encoding="utf-8" ?><svg xmlns="http://www.w3.org/2000/svg" xmlns:xlink="http://www.w3.org/1999/xlink" width="60" height="60" viewBox="0 0 60 60"><path fill="#FFCC30" transform="scale(0.117187 0.117187)" d="M247.491 59.5633C355.978 54.9893 447.637 139.217 452.229 247.703C456.822 356.189 372.61 447.862 264.125 452.473C155.613 457.086 63.913 372.849 59.3192 264.337C54.7254 155.824 138.978 64.1384 247.491 59.5633Z"/><path fill="#FEFEFE" transform="scale(0.117187 0.117187)" d="M183.19 176.725C214.289 174.463 241.334 197.837 243.601 228.935C245.868 260.034 222.499 287.083 191.401 289.355C160.296 291.627 133.239 268.251 130.971 237.146C128.704 206.04 152.085 178.987 183.19 176.725Z"/><path fill="#3582AA" transform="scale(0.117187 0.117187)" d="M202.773 218.67C218.141 216.475 232.384 227.137 234.608 242.5C236.833 257.864 226.199 272.128 210.84 274.382C195.439 276.642 181.127 265.972 178.897 250.567C176.666 235.162 187.363 220.871 202.773 218.67Z"/><path fill="#FEFEFE" transform="scale(0.117187 0.117187)" d="M197.725 226.403C199.998 226.17 202.22 227.177 203.544 229.039C204.867 230.901 205.088 233.331 204.122 235.401C203.155 237.472 201.151 238.863 198.873 239.044C195.407 239.319 192.364 236.754 192.049 233.291C191.735 229.828 194.265 226.756 197.725 226.403Z"/><path fill="#FEFEFE" transform="scale(0.117187 0.117187)" d="M323.364 176.611C354.413 175.865 380.229 200.347 381.129 231.392C382.029 262.436 357.674 288.373 326.634 289.426C295.377 290.486 269.219 265.924 268.313 234.662C267.407 203.4 292.098 177.364 323.364 176.611Z"/><path fill="#3582AA" transform="scale(0.117187 0.117187)" d="M302.776 218.875C317.987 217.463 331.476 228.616 332.949 243.821C334.422 259.027 323.323 272.56 308.123 274.093C292.838 275.635 279.211 264.46 277.731 249.169C276.25 233.878 287.479 220.295 302.776 218.875Z"/><path fill="#FEFEFE" transform="scale(0.117187 0.117187)" d="M312.017 227.417C315.383 226.869 318.568 229.12 319.174 232.477C319.78 235.834 317.582 239.056 314.236 239.719C312.021 240.157 309.741 239.367 308.273 237.651C306.804 235.935 306.376 233.56 307.152 231.439C307.928 229.318 309.788 227.78 312.017 227.417Z"/><path fill="#7F3F15" transform="scale(0.117187 0.117187)" d="M249.951 317.25C276.007 315.673 299.735 325.814 317.5 344.96C321.228 348.979 339.176 369.259 332.795 374.369C328.09 378.137 320.492 369.545 316.766 367.039C300.759 356.268 281.438 350.429 262.36 348.737C236.125 348.696 217.265 352.646 194.488 367.587C192.177 369.103 178.801 381.921 177.558 372.289C176.889 367.107 187.254 353.255 190.759 348.879C206.535 329.186 225.539 319.93 249.951 317.25Z"/><path fill="#FFC92F" transform="scale(0.117187 0.117187)" d="M118.333 252.861C120.019 255.196 120.878 258.179 122.406 260.648C130.852 274.295 140.959 287.663 155.947 294.572C189.214 309.906 227.47 291.322 242.208 259.183C241.943 263.229 240.986 267 239.704 270.837C231.458 291.554 212.704 309.006 190.348 312.751C152.674 319.062 124.046 287.378 118.333 252.861Z"/><path fill="#FFC92F" transform="scale(0.117187 0.117187)" d="M390.348 252.861C390.837 255.007 388.154 267.038 387.394 269.736C371.575 325.854 293.488 326.4 272.964 274.943C271.714 270.859 270.766 266.811 269.979 262.617C272.496 265.936 274.314 269.835 276.711 273.274C293.415 297.244 327.479 306.846 354.069 294.384C373.102 285.463 383.448 271.896 390.348 252.861Z"/><path fill="#554E44" transform="scale(0.117187 0.117187)" d="M307.812 121.282C317.7 120.77 326.471 150.184 361.376 150.747C364.233 150.794 367.87 150.229 370.587 151.134C378.478 153.763 375.941 163.024 369.689 165.752C345.69 168.652 319.829 155.885 305.354 136.997C300.342 130.457 298.064 123.849 307.812 121.282Z"/><path fill="#554E44" transform="scale(0.117187 0.117187)" d="M201.141 121.282C206.61 120.169 208.994 123.225 210.562 128.162C208.946 133.641 200.657 142.935 196.493 146.975C181.323 161.695 165.242 166.098 144.938 165.752C138.664 165.136 133.314 159.87 137.86 153.568C143.243 146.106 170.343 160.266 195.353 125.355C197.112 122.9 198.074 121.79 201.141 121.282Z"/></svg>