<?xml version="1.0" encoding="utf-8" ?><svg xmlns="http://www.w3.org/2000/svg" xmlns:xlink="http://www.w3.org/1999/xlink" width="30" height="30" viewBox="0 0 30 30"><path fill="#AD7AA8" transform="matrix(0.0585937 0 0 0.0585937 -0.000244141 7.62939e-06)" d="M113.381 136.552C115.361 129.427 117.755 123.448 122.976 118.05C136.133 104.45 149.416 107.548 166.262 107.501C179.185 107.465 202.07 104.032 202.249 124.127C209.939 124.115 217.641 124.014 225.33 124.127C227.983 123.816 230.946 124.1 233.642 124.108L309.177 124.127C311.473 104.088 331.239 107.455 345.71 107.488C368.733 107.541 391.505 106.861 397.935 136.552C399.389 139.195 403.944 141.275 406.288 143.266C428.854 162.433 432.938 181.178 438.231 208.706C445.417 246.083 452.402 284.523 458.366 322.065C460.043 332.621 463.187 343.829 461.958 354.532C456.524 401.863 397.397 415.897 369.333 379.678C365.458 374.677 362.879 369.17 359.787 363.712C354.635 354.616 334.592 314.847 328.565 309.624C321.972 306.036 315.843 306.905 308.5 306.907L213.102 306.917C184.153 306.841 184.342 303.506 171.222 328.529C165.663 339.132 159.894 349.682 154.201 360.216C150.623 366.837 147.435 374.081 142.709 379.967C111.675 418.623 48.2872 397.136 50.3038 346.916C50.5716 340.246 52.121 333.398 53.1957 326.807L73.6566 207.681C78.1142 181.918 85.791 161.448 106.412 143.667C108.742 141.658 112.383 139.611 113.381 136.552Z"/><path fill="#FEAE69" transform="matrix(0.0585937 0 0 0.0585937 -0.000244141 7.62939e-06)" d="M113.381 136.552C115.361 129.427 117.755 123.448 122.976 118.05C136.133 104.45 149.416 107.548 166.262 107.501C179.185 107.465 202.07 104.032 202.249 124.127L169.767 124.114C151.218 124.103 138.906 123.566 122.192 132.785C119.376 134.338 116.749 137.227 113.381 136.552Z"/><path fill="#26A9BA" transform="matrix(0.0585937 0 0 0.0585937 -0.000244141 7.62939e-06)" d="M309.177 124.127C311.473 104.088 331.239 107.455 345.71 107.488C368.733 107.541 391.505 106.861 397.935 136.552C396.36 136.394 392.869 133.783 391.274 132.916C372.54 122.734 352.063 124.021 331.373 124.127C324 123.904 316.557 124.123 309.177 124.127Z"/><defs><linearGradient id="gradient_0" gradientUnits="userSpaceOnUse" x1="147.06778" y1="237.6073" x2="146.13507" y2="168.65686"><stop offset="0" stop-color="#FED01C"/><stop offset="1" stop-color="#FFED58"/></linearGradient></defs><path fill="url(#gradient_0)" transform="matrix(0.0585937 0 0 0.0585937 -0.000244141 7.62939e-06)" d="M131.774 188.224C131.751 182.993 129.644 172.169 135.633 169.409C140.675 167.085 158.644 165.631 162.08 174.115C167.626 172.085 171.942 182.721 172.01 188.224C177.473 188.167 180.786 189.556 181.554 195.33C191.886 195.593 190.988 211.357 190.726 217.793C190.285 228.605 180.33 227.522 172.01 227.15C172.077 249.104 167.521 248.035 147.445 247.176C143.506 247.008 138.032 242.973 137.498 238.791L137.712 238.352L138.933 238.218C130.525 237.157 131.716 228.767 131.774 222.369C131.506 223.934 131.692 225.572 131.774 227.15C126.485 226.926 117.225 224.761 116.891 217.99L117.436 217.726C110.972 214.64 111.878 209.73 111.875 203.329C111.867 185.572 114.637 188.142 131.774 188.224Z"/><path fill="#E34F9C" transform="matrix(0.0585937 0 0 0.0585937 -0.000244141 7.62939e-06)" d="M181.554 195.33C191.886 195.593 190.988 211.357 190.726 217.793C190.285 228.605 180.33 227.522 172.01 227.15C172.077 249.104 167.521 248.035 147.445 247.176C143.506 247.008 138.032 242.973 137.498 238.791L137.712 238.352L138.933 238.218C161.106 238.981 162.155 240.433 162.08 217.726C185.405 217.8 181.561 216.269 181.554 195.33Z"/><path fill="#E34F9C" transform="matrix(0.0585937 0 0 0.0585937 -0.000244141 7.62939e-06)" d="M117.436 217.726C122.208 218.145 126.992 217.666 131.774 217.726L131.774 222.369C131.506 223.934 131.692 225.572 131.774 227.15C126.485 226.926 117.225 224.761 116.891 217.99L117.436 217.726Z"/><path fill="#E34F9C" transform="matrix(0.0585937 0 0 0.0585937 -0.000244141 7.62939e-06)" d="M162.08 174.115C167.626 172.085 171.942 182.721 172.01 188.224L162.08 188.224C162.001 183.524 162.28 178.812 162.08 174.115Z"/><defs><linearGradient id="gradient_1" gradientUnits="userSpaceOnUse" x1="210.36459" y1="252.17838" x2="215.9292" y2="284.80472"><stop offset="0" stop-color="#FC7C5A"/><stop offset="1" stop-color="#DF2D64"/></linearGradient></defs><path fill="url(#gradient_1)" transform="matrix(0.0585937 0 0 0.0585937 -0.000244141 7.62939e-06)" d="M190.74 256.483C196.821 244.533 205.789 239.478 219.37 241.804C223.309 243.533 226.965 245.53 229.608 249.025C230.913 250.771 232.147 252.56 233.377 254.357C250.939 266.456 241.291 295.968 215.793 294.749C206.669 293.032 200.109 288.016 196.079 279.513C190.333 272.929 189.387 264.763 190.74 256.483Z"/><path fill="#AB2EA4" transform="matrix(0.0585937 0 0 0.0585937 -0.000244141 7.62939e-06)" d="M233.377 254.357C250.939 266.456 241.291 295.968 215.793 294.749C206.669 293.032 200.109 288.016 196.079 279.513C197.896 280.287 199.585 281.583 201.294 282.586C219.664 293.366 239.482 276.333 233.377 254.357Z"/><path fill="#F68362" transform="matrix(0.0585937 0 0 0.0585937 -0.000244141 7.62939e-06)" d="M190.74 256.483C196.821 244.533 205.789 239.478 219.37 241.804C223.309 243.533 226.965 245.53 229.608 249.025C229.159 249.02 229.108 249.085 228.747 249.366C225.703 251.739 220.078 251.307 216.493 251.902C208.238 253.273 198.882 255.532 190.74 256.483Z"/><defs><linearGradient id="gradient_2" gradientUnits="userSpaceOnUse" x1="304.60782" y1="283.06366" x2="286.70892" y2="243.08539"><stop offset="0" stop-color="#169D67"/><stop offset="1" stop-color="#3ED89A"/></linearGradient></defs><path fill="url(#gradient_2)" transform="matrix(0.0585937 0 0 0.0585937 -0.000244141 7.62939e-06)" d="M279.082 249.025C282.81 243.556 288.953 240.45 295.614 240.529C309.59 240.44 313.159 248.871 318.537 259.194C338.226 280.167 304.481 309.187 285.071 286.763C283.515 284.965 281.904 282.755 281.335 280.417C272.501 272.486 270.355 257.924 279.082 249.025Z"/><path fill="#5846B0" transform="matrix(0.0585937 0 0 0.0585937 -0.000244141 7.62939e-06)" d="M318.537 259.194C338.226 280.167 304.481 309.187 285.071 286.763C283.515 284.965 281.904 282.755 281.335 280.417C300.865 292.929 317.879 281.25 318.537 259.194Z"/><path fill="#41D5A0" transform="matrix(0.0585937 0 0 0.0585937 -0.000244141 7.62939e-06)" d="M279.082 249.025C282.81 243.556 288.953 240.45 295.614 240.529C293.982 241.229 292.108 241.467 290.367 241.804C287.992 245.028 283.353 246.724 280.133 249.027L279.082 249.025Z"/><path fill="#F7DA47" transform="matrix(0.0585937 0 0 0.0585937 -0.000244141 7.62939e-06)" d="M351.715 250.271C345.833 246.299 343.339 238.88 345.625 232.161C347.912 225.442 354.413 221.085 361.497 221.524C368.582 221.963 374.495 227.091 375.933 234.041C376.503 233.964 376.603 233.978 377.095 234.339C395.203 247.634 373.034 273.008 357.264 259.966C355.889 258.83 348.759 252.104 351.715 250.271Z"/><path fill="#5846B0" transform="matrix(0.0585937 0 0 0.0585937 -0.000244141 7.62939e-06)" d="M375.933 234.041C376.503 233.964 376.603 233.978 377.095 234.339C395.203 247.634 373.034 273.008 357.264 259.966C355.889 258.83 348.759 252.104 351.715 250.271C357.019 253.855 363.966 253.867 369.284 250.303C374.602 246.74 377.231 240.31 375.933 234.041Z"/><path fill="#F7DA47" transform="matrix(0.0585937 0 0 0.0585937 -0.000244141 7.62939e-06)" d="M345.438 172.212C345.542 164.224 351.681 157.613 359.64 156.919C367.599 156.225 374.79 161.673 376.275 169.523C379.784 168.664 383.054 176.134 383.58 178.666C386.586 193.134 368.113 202.7 356.54 194.81C353.824 192.958 348.572 187.958 350.95 184.294C347.809 181.639 345.848 177.848 345.494 173.751C345.45 173.239 345.431 172.726 345.438 172.212Z"/><path fill="#5846B0" transform="matrix(0.0585937 0 0 0.0585937 -0.000244141 7.62939e-06)" d="M376.275 169.523C379.784 168.664 383.054 176.134 383.58 178.666C386.586 193.134 368.113 202.7 356.54 194.81C353.824 192.958 348.572 187.958 350.95 184.294C355.979 188.545 363.14 189.169 368.828 185.851C374.516 182.533 377.499 175.993 376.275 169.523Z"/><path fill="#F7DA47" transform="matrix(0.0585937 0 0 0.0585937 -0.000244141 7.62939e-06)" d="M318.739 216.73C312.399 211.371 311.338 201.998 316.32 195.358C321.303 188.719 330.6 187.118 337.516 191.708C340.72 193.834 343.03 197.064 344.006 200.783C356.309 207.981 350.943 225.93 338.339 228.923C327.385 232.387 315.854 219.937 318.739 216.73Z"/><path fill="#5846B0" transform="matrix(0.0585937 0 0 0.0585937 -0.000244141 7.62939e-06)" d="M344.006 200.783C356.309 207.981 350.943 225.93 338.339 228.923C327.385 232.387 315.854 219.937 318.739 216.73C323.959 221.141 331.435 221.66 337.215 218.012C342.994 214.365 345.742 207.393 344.006 200.783Z"/><path fill="#F7DA47" transform="matrix(0.0585937 0 0 0.0585937 -0.000244141 7.62939e-06)" d="M384.472 219.351C378.585 216.085 375.452 209.415 376.699 202.798C377.945 196.182 383.291 191.109 389.963 190.209C396.636 189.31 403.134 192.787 406.087 198.837C424.588 207.695 410.254 238.35 391.407 228.497C388.38 226.915 383.714 223.303 384.472 219.351Z"/><path fill="#5846B0" transform="matrix(0.0585937 0 0 0.0585937 -0.000244141 7.62939e-06)" d="M406.087 198.837C424.588 207.695 410.254 238.35 391.407 228.497C388.38 226.915 383.714 223.303 384.472 219.351C390.436 222.659 397.857 221.716 402.803 217.022C407.75 212.327 409.079 204.966 406.087 198.837Z"/><path fill="#D4D9F2" transform="matrix(0.0585937 0 0 0.0585937 -0.000244141 7.62939e-06)" d="M267.651 162.653C272.321 162.637 285.811 161.929 289.315 163.453C296.858 166.732 294.505 176.138 287.524 178.688C282.626 178.806 270.391 179.379 266.295 177.817C258.388 174.802 260.378 165.065 267.651 162.653Z"/><path fill="#D4D9F2" transform="matrix(0.0585937 0 0 0.0585937 -0.000244141 7.62939e-06)" d="M268.748 193.22C273.655 193.214 282.85 192.586 287.231 193.447C296.077 195.186 294.841 208.666 286.288 209.636C281.346 209.659 269.348 210.547 265.38 208.222C258.285 204.064 261.906 194.956 268.748 193.22Z"/><path fill="#D4D9F2" transform="matrix(0.0585937 0 0 0.0585937 -0.000244141 7.62939e-06)" d="M222.877 194.071C227.169 192.905 242.552 192.451 246.245 194.585C250.154 196.845 251.185 202.611 248.71 206.269C245.489 211.03 224.891 210.786 221.539 208.263C220.734 207.657 220.172 206.533 219.37 206.012C217.378 201.238 218.554 197.034 222.877 194.071Z"/><path fill="#D4D9F2" transform="matrix(0.0585937 0 0 0.0585937 -0.000244141 7.62939e-06)" d="M222.877 162.653C230.722 162.272 250.019 160.107 250.238 169.995C250.525 182.924 232.127 178.026 224.377 178.688C215.653 175.516 217.51 168.124 222.877 162.653Z"/></svg>