<?xml version="1.0" encoding="utf-8" ?><svg xmlns="http://www.w3.org/2000/svg" xmlns:xlink="http://www.w3.org/1999/xlink" width="512" height="512" viewBox="0 0 512 512"><path fill="#DCE8F6" d="M199.923 95.954L199.972 75.1687C199.977 61.9936 199.127 51.2449 209.57 41.0746C214.264 36.4878 220.27 33.476 226.754 32.4573C232.243 31.6324 243.827 31.9451 249.846 31.9465L291.004 31.9543L379.896 31.9584C394.574 31.9588 409.275 31.9421 423.955 31.9595C433.38 31.9707 441.007 35.2626 447.558 42.0563C451.884 46.5439 455.206 53.2873 455.855 59.5052C456.234 63.1317 456.095 68.1954 456.09 71.9843C456.044 79.0309 456.064 86.0778 456.148 93.124C456.608 126.414 456.23 160.513 456.229 193.855L456.224 359.289C456.316 380.994 456.269 402.699 456.082 424.403C456.044 432.505 456.271 441.168 456.063 449.205C455.89 457.699 452.266 465.755 446.026 471.52C441.195 475.997 435.111 478.891 428.59 479.813C426.353 480.127 422.207 480.06 419.866 480.061L406.277 480.061L359.875 480.06L273.527 480.053L246.217 480.057C231.32 480.084 219.64 481.873 208.356 469.774C204.744 465.868 202.206 461.092 200.992 455.913C199.422 449.468 200.047 437.921 199.969 430.841C199.923 426.667 199.786 420.168 199.939 416.07C200.171 412.439 199.98 406.858 199.981 403.017L199.98 376.831L199.991 296.02L127.388 296.033C114.954 296.001 103.038 291.049 94.2417 282.26C77.8709 265.69 80.0947 249.305 80.0977 228.21L80.1517 188.895C63.5122 181.782 53.6718 164.432 56.1066 146.5C58.5413 128.569 72.6515 114.471 90.5852 112.052C108.519 109.633 125.86 119.489 132.958 136.135C154.838 135.567 177.925 136.137 199.994 135.924C199.922 122.75 200.208 109.071 199.923 95.954Z"/><path fill="#FEE55A" d="M80.1517 188.895C63.5122 181.782 53.6718 164.432 56.1066 146.5C58.5413 128.569 72.6515 114.471 90.5852 112.052C108.519 109.633 125.86 119.489 132.958 136.135C154.838 135.567 177.925 136.137 199.994 135.924L200.291 135.943C205.92 136.271 213.792 136.016 219.649 136.013L256.001 136.001C264.951 136.001 275.282 135.464 283.871 137.573C292.666 139.734 301.768 145.156 307.842 151.913C313.372 158.049 317.209 165.518 318.978 173.587C320.356 179.917 320.011 187.483 320.008 194.072L319.992 216.537L320.002 238.775C320.008 242.671 320.14 247.707 319.921 251.512C319.09 264.165 313.221 275.957 303.627 284.249C295.34 291.502 283.131 296.571 272.034 296.012C272.814 299.694 273.313 303.92 273.851 307.691L276.497 326.263L278.809 342.401C279.256 345.515 279.89 349.18 280.082 352.256C275.889 347.575 272.212 342.925 268.181 338.187L246.031 312.331L237.868 302.777C236.208 300.834 234.582 298.806 232.739 297.033C231.85 296.178 231.281 296.104 230.079 296.039C226.59 295.948 223.015 295.998 219.525 296.009L199.991 296.02L127.388 296.033C114.954 296.001 103.038 291.049 94.2417 282.26C77.8709 265.69 80.0947 249.305 80.0977 228.21L80.1517 188.895Z"/><path fill="#FE656E" d="M80.1517 188.895C63.5122 181.782 53.6718 164.432 56.1066 146.5C58.5413 128.569 72.6515 114.471 90.5852 112.052C108.519 109.633 125.86 119.489 132.958 136.135C139.402 151.245 136.009 168.754 124.389 180.364C112.769 191.974 95.2559 195.351 80.1517 188.895Z"/><path fill="#DCE8F6" d="M94.579 136.067C105.704 135.405 103.963 146.086 104.023 153.663C104.074 160.135 104.922 165.415 97.5767 167.863C95.8267 168.04 94.1137 167.939 92.4892 167.204C90.7045 166.396 89.4143 164.822 88.7325 163.01C87.4473 159.594 87.4506 143.365 89.003 140.208C90.1323 137.912 92.2557 136.819 94.579 136.067Z"/><path fill="#DCE8F6" d="M127.354 224.087C135.619 223.736 145.781 224.011 154.22 224.011L204.585 224.017L253.52 224.008C261.945 224.005 270.458 223.954 278.883 224.065C280.936 224.219 282.5 224.109 284.28 225.232C288.402 227.833 289.156 233.495 286.039 237.194C284.647 238.845 282.783 239.575 280.649 239.92C273.565 240.328 262.774 240.004 255.527 240.005L206.873 240.01L155.523 240.008C146.708 240.007 137.793 240.074 128.981 239.928C126.995 239.733 125.132 239.918 123.478 238.576C117.382 233.627 119.65 225.346 127.354 224.087Z"/><path fill="#DCE8F6" d="M159.355 192.087C165.909 191.779 174.482 192.009 181.135 192.01L222.104 192.017L259.501 192.006C266.077 192.003 272.495 192.049 279.272 192.078C286.594 192.109 290.318 198.5 286.339 204.831C285.241 206.577 282.701 207.592 280.653 207.92C275.352 208.243 267.25 208.006 261.749 208.007L225.335 208.011L183.225 208.008C175.885 208.007 168.458 208.061 161.121 207.936C159.273 207.748 157.391 207.947 155.806 206.798C149.31 202.085 151.488 193.371 159.355 192.087Z"/><path fill="#DCE8F6" d="M127.329 256.091C132.923 255.808 140.078 256.006 145.808 256.008L179.528 256.017L213.297 256.007C217.513 256.006 232.83 255.372 236.064 257.1C241.932 260.237 241.478 270.505 232.649 271.92C227.671 272.232 220.059 272.007 214.872 272.008L181.465 272.013L146.83 272.009C140.793 272.008 134.632 272.073 128.602 271.914C126.925 271.762 125.149 271.799 123.735 270.74C117.381 265.98 119.488 257.371 127.329 256.091Z"/><path fill="#DCE8F6" d="M175.344 160.087C180.154 159.836 186.41 160.003 191.315 160.005L220.789 160.017L248.503 160.005C252.614 160.003 265.436 159.374 268.336 161.275C270.197 162.514 271.48 164.452 271.893 166.65C272.789 171.429 269.22 175.185 264.641 175.922C260.171 176.204 253.512 176.008 248.888 176.009L219.599 176.013L191.551 176.009C186.473 176.008 181.277 176.088 176.212 175.89C174.392 175.819 172.985 175.648 171.478 174.572C169.688 173.277 168.483 171.327 168.125 169.147C167.326 164.301 170.755 160.842 175.344 160.087Z"/><path fill="#685E67" d="M199.923 95.954L199.972 75.1687C199.977 61.9936 199.127 51.2449 209.57 41.0746C214.264 36.4878 220.27 33.476 226.754 32.4573C232.243 31.6324 243.827 31.9451 249.846 31.9465L291.004 31.9543L379.896 31.9584C394.574 31.9588 409.275 31.9421 423.955 31.9595C433.38 31.9707 441.007 35.2626 447.558 42.0563C451.884 46.5439 455.206 53.2873 455.855 59.5052C456.234 63.1317 456.095 68.1954 456.09 71.9843C456.044 79.0309 456.064 86.0778 456.148 93.124C456.608 126.414 456.23 160.513 456.229 193.855L456.224 359.289C456.316 380.994 456.269 402.699 456.082 424.403C456.044 432.505 456.271 441.168 456.063 449.205C455.89 457.699 452.266 465.755 446.026 471.52C441.195 475.997 435.111 478.891 428.59 479.813C426.353 480.127 422.207 480.06 419.866 480.061L406.277 480.061L359.875 480.06L273.527 480.053L246.217 480.057C231.32 480.084 219.64 481.873 208.356 469.774C204.744 465.868 202.206 461.092 200.992 455.913C199.422 449.468 200.047 437.921 199.969 430.841C199.923 426.667 199.786 420.168 199.939 416.07L274.579 416.025L440.054 416.013L455.937 416.027L455.94 96.0049L440.088 95.9732L199.923 95.954Z"/><path fill="#5B535B" d="M296.443 440.107C298.663 439.864 303.749 439.995 306.209 439.994L325.023 439.996L346.949 440.002C351.133 439.999 355.145 440.06 359.587 440.133C366.961 440.254 370.034 446.762 366.32 452.937C365.076 455.004 361.952 455.684 359.558 455.927C347.345 456.364 333.337 455.997 320.92 456.008L304.907 456.015C298.594 456.013 289.047 457.5 288.086 448.781C287.858 446.616 288.526 444.451 289.933 442.79C291.755 440.681 293.886 440.33 296.443 440.107Z"/><path fill="#5B535B" d="M280.424 56.1023C281.976 55.9053 286.029 55.9957 287.77 55.995L301.385 55.9994L318.536 55.9957C322.104 55.9971 325.827 55.8691 329.362 56.2761C335.707 57.0066 337.959 64.851 333.807 69.4061C331.893 71.5064 330.336 71.6594 327.651 71.894C326.69 72.0597 322.78 72.0079 321.632 72.0094L309.627 72.0198L289.947 72.0214C283.484 72.0182 273.3 73.7272 272.109 65.0308C271.804 62.903 272.394 60.7439 273.738 59.0665C275.694 56.6413 277.59 56.3739 280.424 56.1023Z"/><path fill="#5B535B" d="M360.404 56.1013C364.558 55.5569 370.395 56.1654 374.701 56.0293C379.189 55.8874 383.678 58.2846 383.944 63.3131C384.059 65.5173 383.293 67.6768 381.814 69.3157C379.868 71.4547 378.293 71.6997 375.656 71.8951C372.443 72.4134 367.599 71.7441 364.22 72.0246C358.962 72.4613 352.628 71.2489 352.055 64.8489C351.847 62.6641 352.549 60.4903 353.996 58.8404C355.912 56.6347 357.744 56.3194 360.404 56.1013Z"/><path fill="#5B535B" d="M407.168 440.072C411.535 439.617 415.447 442.781 415.916 447.146C416.385 451.512 413.233 455.434 408.869 455.916C404.486 456.4 400.543 453.232 400.072 448.847C399.602 444.463 402.782 440.53 407.168 440.072Z"/><path fill="#5B535B" d="M247.168 440.072C251.534 439.618 255.446 442.781 255.915 447.146C256.384 451.511 253.233 455.433 248.869 455.915C244.486 456.4 240.543 453.232 240.072 448.847C239.601 444.463 242.782 440.529 247.168 440.072Z"/></svg>