<svg version="1.2" xmlns="http://www.w3.org/2000/svg" viewBox="0 0 400 400" width="400" height="400">
	<title>New Project</title>
	<style>
		.s0 { fill: #fdd007 } 
		.s1 { fill: none;stroke: #fd9801;stroke-miterlimit:100;stroke-width: 15 } 
		.s2 { fill: #fd9801 } 
	</style>
	<path id="Shape 1" fill-rule="evenodd" class="s0" d="m200 354c-85.2 0-154-68.8-154-154 0-85.2 68.8-154 154-154 85.2 0 154 68.8 154 154 0 85.2-68.8 154-154 154z"/>
	<path id="Layer 2" fill-rule="evenodd" class="s1" d="m199.6 328.4c-71.3 0-128.9-57.6-128.9-128.8 0-71.3 57.6-128.9 128.9-128.9 71.2 0 128.8 57.6 128.8 128.9 0 71.2-57.6 128.8-128.8 128.8z"/>
	<path id="Layer 3" class="s2" d=""/>
	<path id="Shape 2" fill-rule="evenodd" class="s2" d="m221.5 156.9c18.1 1.1 33.3 7.3 45.1 14.5 12.8 8 22 17.5 26.7 24.3 1.9 2.6 1.9 6 0 8.6-4.7 6.8-13.9 16.3-26.7 24.3-11.8 7.2-27 13.4-45.1 14.5l-25.4 15.8c-3.5 2.1-8.3 2.3-11.9 0.4-3.7-1.9-5.6-5.5-4.7-9l3.2-13.2c-6.4-2.4-12.2-5.4-17.2-8.5-5.1-3.1-9.5-6.5-13.4-9.8l-30.5 14.7c-4.2 1.9-9.4 1.4-12.7-1.4-3.4-2.7-4.1-7-1.8-10.4l15-21.7-15-21.7c-2.3-3.4-1.7-7.6 1.7-10.4 3.4-2.8 8.6-3.3 12.7-1.3l30.6 14.7c3.8-3.4 8.3-6.7 13.3-9.9 5.1-3.1 10.9-6 17.2-8.5l-3.2-13.1c-0.8-3.6 1-7.2 4.7-9.1 3.7-1.9 8.5-1.7 11.9 0.4zm13.3 49.3c2 1.6 4.7 2.5 7.5 2.5 2.7 0 5.4-0.9 7.4-2.5 1.9-1.6 3.1-3.8 3.1-6.1 0-2.3-1.2-4.5-3.1-6.2-2-1.6-4.7-2.5-7.4-2.5-2.8 0-5.5 0.9-7.5 2.5-1.9 1.7-3 3.9-3 6.2 0 2.3 1.1 4.5 3 6.1z"/>
</svg>