<?xml version="1.0" encoding="utf-8" ?><svg xmlns="http://www.w3.org/2000/svg" xmlns:xlink="http://www.w3.org/1999/xlink" width="60" height="60" viewBox="0 0 60 60"><defs><linearGradient id="gradient_0" gradientUnits="userSpaceOnUse" x1="371.18469" y1="407.94919" x2="140.55864" y2="103.32"><stop offset="0" stop-color="#FEB52B"/><stop offset="1" stop-color="#FFD131"/></linearGradient></defs><path fill="url(#gradient_0)" transform="matrix(0.117187 0 0 0.117187 -0.000488281 -1.52588e-05)" d="M248.171 64.3601C353.969 59.9919 443.269 142.235 447.605 248.034C451.941 353.834 369.671 443.108 263.87 447.412C158.115 451.714 68.8869 369.487 64.5527 263.733C60.2185 157.979 142.418 68.7264 248.171 64.3601Z"/><path fill="#4E4242" transform="matrix(0.117187 0 0 0.117187 -0.000488281 -1.52588e-05)" d="M252.418 295.561C298.168 294.4 329.421 330.458 328.193 375.137C328.08 379.254 328.009 384.036 324.693 387.011C317.274 393.667 309.095 382.067 304.642 378.24C291.87 367.266 274.987 360.864 258.188 360.225C238.199 358.837 217.919 367.066 203.681 380.997C198.853 385.72 193.606 392.596 185.904 386.076C180.772 381.732 182.069 373.268 182.485 367.318C185.213 328.305 212.798 298.378 252.418 295.561Z"/><path fill="#C3491E" transform="matrix(0.117187 0 0 0.117187 -0.000488281 -1.52588e-05)" d="M251.058 312.759C280.813 309.939 305.397 333.331 311.763 361.189C295.211 349.681 283.252 343.635 262.147 341.998C237.273 341.837 220.941 345.927 199.973 361.189C205.641 335.622 224.255 315.935 251.058 312.759Z"/><path fill="#4E4242" transform="matrix(0.117187 0 0 0.117187 -0.000488281 -1.52588e-05)" d="M164.148 192.533C182.883 191.265 201.851 198.235 214.63 212.164C218.469 216.348 224.248 223.381 223.837 229.444C223.495 234.474 218.839 237.374 214.088 236.935C204.566 236.058 203.39 212.544 172.061 209.539C138.586 206.897 131.743 235.632 123.059 237.191C118.286 238.048 113.253 234.751 112.615 229.83C112.038 225.367 116.275 219.836 118.873 216.574C130.117 202.451 146.382 194.49 164.148 192.533Z"/><path fill="#4E4242" transform="matrix(0.117187 0 0 0.117187 -0.000488281 -1.52588e-05)" d="M339.891 192.533C358.644 190.762 378.204 199.52 390.43 213.505C393.683 217.225 399.708 224.186 399.206 229.476C398.738 234.408 393.99 237.672 389.21 237.165C380.238 236.214 376.759 212.893 347.809 209.539C334.485 206.949 317.433 215.26 309.451 225.429C306.221 229.545 304.384 236.175 298.403 236.938C293.715 237.536 289.098 234.163 288.579 229.396C287.657 220.921 300.535 209.122 306.795 204.522C317.212 196.866 327.183 193.811 339.891 192.533Z"/><path fill="#0094EE" transform="matrix(0.117187 0 0 0.117187 -0.000488281 -1.52588e-05)" d="M346.075 273.806C354.607 272.435 357.084 272.812 365.787 268.282C368.15 277.967 377.542 305.664 377.683 314.046C378.165 342.732 332.307 341.094 335.938 310.987C337.123 301.158 343.443 284.308 346.075 273.806Z"/><path fill="#0094EE" transform="matrix(0.117187 0 0 0.117187 -0.000488281 -1.52588e-05)" d="M146.232 268.282C152.8 271.279 158.494 273.46 165.803 273.806C168.04 285.757 174.502 302.283 175.149 313.543C176.413 335.532 145.322 343.222 136.129 323.888C131.666 314.503 135.751 305.842 138.247 296.524C140.769 287.108 142.969 277.473 146.232 268.282Z"/><path fill="#4E4242" transform="matrix(0.117187 0 0 0.117187 -0.000488281 -1.52588e-05)" d="M346.075 273.806C334.53 274.261 319.55 269.769 312.466 260.423C309.474 256.474 310.458 250.524 314.641 247.805C320.752 243.833 324.979 248.775 329.951 251.772C351.686 264.874 360.145 244.799 369.904 246.934C374.899 248.026 377.825 253.215 376.548 258.103C375.274 262.975 369.821 265.915 365.787 268.282C357.084 272.812 354.607 272.435 346.075 273.806Z"/><path fill="#4E4242" transform="matrix(0.117187 0 0 0.117187 -0.000488281 -1.52588e-05)" d="M146.232 268.282C142.254 265.318 135.927 261.717 135.035 256.35C134.265 251.72 138.123 246.661 142.823 246.27C151.109 245.581 161.591 263.905 180.341 252.76C185.062 249.953 189.013 244.565 195.215 246.585C203.345 249.234 202.223 257.752 197.061 262.617C188.508 270.678 177.281 273.793 165.803 273.806C158.494 273.46 152.8 271.279 146.232 268.282Z"/></svg>