<svg width="30" height="30" viewBox="0 0 30 30" fill="none" xmlns="http://www.w3.org/2000/svg">
<path d="M5.35742 13.2466C5.35742 12.808 5.52185 12.3853 5.81826 12.0619L13.7629 3.39499C14.4374 2.65918 15.5893 2.63415 16.2951 3.33997L25.0062 12.0511C25.335 12.3799 25.5198 12.8259 25.5198 13.2909V24.8374C25.5198 25.8057 24.7348 26.5906 23.7665 26.5906H7.11067C6.14238 26.5906 5.35742 25.8057 5.35742 24.8374V13.2466Z" fill="#FFB72C"/>
<path d="M11.5898 17.7267C11.5898 16.9736 12.2004 16.363 12.9535 16.363H17.7262C18.4793 16.363 19.0898 16.9736 19.0898 17.7267V26.5903H11.5898V17.7267Z" fill="#C18105"/>
<path d="M21.1348 5.45465C21.1348 5.07809 21.44 4.77283 21.8166 4.77283H24.5439C24.9204 4.77283 25.2257 5.07809 25.2257 5.45465V12.2728L21.1348 10.2274V5.45465Z" fill="#C18105"/>
<path d="M2.72656 15.6824L14.5172 3.89179C14.7834 3.62552 15.2151 3.62552 15.4814 3.89179L27.272 15.6824" stroke="#D94960" stroke-width="2.72727" stroke-linecap="round"/>
</svg>
