<?xml version="1.0" encoding="utf-8" ?><svg xmlns="http://www.w3.org/2000/svg" xmlns:xlink="http://www.w3.org/1999/xlink" width="60" height="60" viewBox="0 0 60 60"><defs><linearGradient id="gradient_0" gradientUnits="userSpaceOnUse" x1="380.40549" y1="131.79518" x2="164.09496" y2="254.91585"><stop offset="0" stop-color="#FFA365"/><stop offset="1" stop-color="#E8419E"/></linearGradient></defs><path fill="url(#gradient_0)" transform="matrix(0.117187 0 0 0.117187 -0.000488281 0)" d="M251.591 45.6346C299.461 43.9021 345.524 68.8832 369.071 110.67C407.309 178.53 380.477 260.586 312.264 297.558C306.885 300.473 299.63 302.047 298.552 309.087C296.624 321.675 301.106 334.519 295.292 347.97C277.42 389.32 218.125 375.435 215.016 340.382C214.487 334.424 214.985 328.189 214.989 322.196C215.004 302.459 214.179 284.609 222.572 266.17C230.687 248.732 246.375 231.848 264.024 223.471C266.903 222.104 270.046 221.236 272.995 220.023C291.251 212.521 302.086 192.848 300.804 173.482C297.538 124.167 228.279 116.162 212.948 161.793C208.987 173.58 210.865 181.037 201.43 191.943C185.877 209.92 157.894 212.293 140.031 196.391C123.73 181.878 123.653 162.052 128.98 142.561C144.465 85.9047 192.766 48.4735 251.591 45.6346ZM288.434 245.384C272.214 250.681 260.25 260.84 252.352 276.277C243.584 293.416 244.452 304.17 244.333 322.541C244.305 326.91 243.596 332.632 244.936 336.791C248.449 347.697 263.518 347.103 267.822 337.27C269.175 334.178 268.89 329.947 268.893 326.63C268.917 302.668 269.175 279.314 295.27 270.438C347.431 252.695 369.252 184.995 348.263 136.248C330.871 95.8562 291.216 72.9113 247.997 75.474C203.101 80.8135 165.847 109.632 157.787 155.971C156.571 162.959 155.135 170.364 161.573 175.412C167.181 179.81 175.358 179.482 179.713 173.543C181.93 170.519 182.201 160.893 183.312 156.549C195.892 107.382 256.139 84.6052 296.99 113.109C312.712 124.08 326.316 141.911 329.598 161.094C334.948 192.373 320.436 234.046 288.434 245.384Z"/><defs><linearGradient id="gradient_1" gradientUnits="userSpaceOnUse" x1="253.36737" y1="382.61139" x2="259.30154" y2="463.5329"><stop offset="0" stop-color="#2898B1"/><stop offset="1" stop-color="#00DAC8"/></linearGradient></defs><path fill="url(#gradient_1)" transform="matrix(0.117187 0 0 0.117187 -0.000488281 0)" d="M244.33 382.15C252.344 379.518 267.708 380.966 274.778 385.83C284.743 389.29 293.548 402.759 296.133 412.457C301.952 434.283 287.916 457.513 266.13 463.044C243.562 468.773 221.725 453.759 216.447 431.603C211.86 412.351 224.03 386.794 244.33 382.15ZM256.63 433.616C262.649 433.317 267.29 428.203 267.006 422.184C266.723 416.165 261.622 411.51 255.602 411.778C249.559 412.046 244.883 417.171 245.168 423.213C245.453 429.254 250.589 433.917 256.63 433.616Z"/><path fill="#2E9BB0" transform="matrix(0.117187 0 0 0.117187 -0.000488281 0)" d="M244.33 382.15C252.344 379.518 267.708 380.966 274.778 385.83L273.943 385.822L273.881 386.155C275.9 390.469 261.048 387.267 258.418 387.151C255.373 387.017 245.675 386.456 243.418 384.65C242.817 384.837 242.252 385.088 241.618 384.943C241.431 382.645 243.604 383.662 244.33 382.15Z"/></svg>