<?xml version="1.0" encoding="utf-8" ?><svg xmlns="http://www.w3.org/2000/svg" xmlns:xlink="http://www.w3.org/1999/xlink" width="60" height="60" viewBox="0 0 60 60"><path fill="#2C404E" transform="matrix(0.117187 0 0 0.117187 -0.000488281 -3.05176e-05)" d="M347.203 78.3473C375.622 75.5403 390.698 113.433 367.012 130.588C367.209 135.685 367.03 140.836 367.019 145.939L367.012 172.697L387.918 172.7C403.873 172.683 418.181 171.124 426.666 188.429C430.235 195.708 429.51 203.809 429.509 211.675L429.514 389.066C429.571 403.796 429.869 417.956 413.572 425.543C404.905 429.577 394.529 428.368 385.242 428.365L127.693 428.365C118.807 428.373 109.085 429.589 100.578 426.514C89.1506 421.536 83.0595 411.641 82.6909 399.104C82.2488 384.07 82.6661 368.902 82.6661 353.853L82.6399 205.489C82.6422 188.167 90.7373 173.2 110.238 172.697C110.571 153.619 108.952 131.691 110.314 113.068C110.637 108.647 112.604 107.128 116.889 106.102C123.502 107.854 179.531 155.895 188.368 163.034C192.1 166.048 196.304 170.233 200.305 172.697L288.074 172.698C302.737 172.698 317.491 172.342 332.145 172.697L332.145 130.588C326.177 124.419 322.613 120.116 321.215 111.373C318.474 94.2246 330.745 80.8494 347.203 78.3473ZM102.634 224.54C102.911 220.001 102.304 215.589 103.346 211.066C107.477 193.133 123.553 194.552 137.412 194.553L275.145 194.554C277.983 194.548 283.988 193.982 286.349 194.558L286.564 194.517C295.071 192.84 294.173 192.166 303.837 194.558C304.68 194.173 328.738 194.642 332.145 194.558C332.25 191.485 332.373 188.346 332.145 185.277L117.554 185.268C99.2028 185.27 94.8747 190.508 94.8851 208.723L94.8888 219.014L102.634 224.54ZM133.669 172.697L159.55 172.697C166.235 172.69 172.951 172.543 179.632 172.697C177.011 170.169 155.271 152.1 153.689 151.908L141.52 163.983C138.799 166.668 135.274 169.129 133.669 172.697ZM367.012 194.558L415.729 194.558C410.469 183.655 401.136 185.26 390.939 185.26L367.012 185.277L367.012 194.558ZM122.956 164.206C126.866 161.305 130.151 157.363 133.669 154.006C137.428 150.7 140.653 146.857 144.228 143.363C138.574 139.013 128.575 129.386 122.956 126.31C122.87 138.926 122.783 151.594 122.956 164.206ZM417.327 234.441L416.879 234.334C415.785 235.034 414.752 235.787 413.715 236.567C415.959 238.118 417.026 236.541 417.327 234.441ZM348.741 90.594C342.76 90.9587 337.436 94.5089 334.8 99.8901C332.165 105.271 332.624 111.654 336.002 116.602C339.381 121.551 345.158 124.303 351.129 123.808C360.223 123.054 367.016 115.121 366.362 106.019C365.707 96.9177 357.849 90.0386 348.741 90.594ZM352.617 136.436C349.966 136.662 347.304 136.519 344.649 136.436L344.658 185.426C344.66 197.783 346.962 212.536 337.219 222.144C326.398 232.815 306.695 230.204 301.345 215.081C299.634 210.245 299.487 203.058 292.296 205.664C289.089 208.993 290.112 212.212 291.134 216.25C303.942 251.909 351.331 243.042 354.623 208.145C355.318 200.778 355.045 193.261 355.038 185.867L355.022 151.995C355.02 147.5 357.454 135.612 352.617 136.436ZM94.8888 234.441L94.8841 383.105C94.8844 394.321 92.4079 413.636 108.489 415.542C110.749 415.365 113.144 415.528 115.418 415.542C107.049 411.835 103.94 405.408 104.235 396.403L104.235 396.403C104.62 392.27 104.258 387.896 104.249 383.73L104.202 252.838C104.175 249.098 103.824 245.108 104.235 241.405C101.655 238.605 98.1008 236.459 94.8888 234.441Z"/><path fill="#F8AC44" transform="matrix(0.117187 0 0 0.117187 -0.000488281 -3.05176e-05)" d="M367.012 194.558L415.729 194.558C418.416 200.034 417.318 211.742 417.327 218.06C413.321 221.249 409.125 224.181 405.004 227.217L278.81 321.058C271.381 326.583 264.076 334.355 253.88 333.169C244.312 332.056 227.75 317.364 219.929 311.653L115.34 233.796C111.64 231.044 105.753 227.566 102.634 224.54C102.911 220.001 102.304 215.589 103.346 211.066C107.477 193.133 123.553 194.552 137.412 194.553L275.145 194.554C277.983 194.548 283.988 193.982 286.349 194.558C281.8 198.544 277.809 202.854 277.684 209.325C276.986 245.432 325.053 266.435 353.438 238.19C366.41 225.282 367.029 212.012 367.012 194.558Z"/><path fill="#2C404E" transform="matrix(0.117187 0 0 0.117187 -0.000488281 -3.05176e-05)" d="M197.617 263.73L265.383 263.729C271.06 263.729 295.192 263.088 298.819 264.266C304.743 266.189 303.636 273.969 298.01 276.439C293.969 276.697 289.777 276.445 285.718 276.444L222.548 276.446C217.993 276.445 199.875 277.359 196.296 275.758C191.054 273.414 192.056 265.329 197.617 263.73Z"/><path fill="#2C404E" transform="matrix(0.117187 0 0 0.117187 -0.000488281 -3.05176e-05)" d="M199.433 214.305L238.524 214.301C244.935 214.301 252.69 213.787 258.971 214.57C266.445 215.501 266.724 226.502 259.151 227.007L218.009 227.008C211.904 227.01 203.904 227.491 198.023 226.953C191.112 226.322 190.13 215.59 199.433 214.305Z"/><path fill="#2C404E" transform="matrix(0.117187 0 0 0.117187 -0.000488281 -3.05176e-05)" d="M198.595 239.111C206.528 239.08 258.137 238.415 261.42 239.844C267.434 242.46 264.651 250.164 259.151 251.639L204.94 251.657C199.81 251.665 193.875 252.635 192.894 245.766C192.358 242.01 195.103 239.449 198.595 239.111Z"/><path fill="#C2D7DF" transform="matrix(0.117187 0 0 0.117187 -0.000488281 -3.05176e-05)" d="M297.049 322.955C298.165 323.401 310.372 333.23 312.741 335.039C336.539 353.212 359.645 372.436 384.24 389.534L194.875 389.534L129.026 389.534C132.795 386.202 137.051 383.287 141.019 380.183L171.366 356.821C185.344 346.112 199.987 333.722 214.466 323.867C233.365 334.597 248.42 356.506 273.623 340.693C281.811 335.556 289.259 328.704 297.049 322.955Z"/><path fill="#C2D7DF" transform="matrix(0.117187 0 0 0.117187 -0.000488281 -3.05176e-05)" d="M413.715 236.567C415.959 238.118 417.026 236.541 417.327 234.441L417.327 391.87C413.349 391.856 409.296 391.689 405.327 391.87C402.641 390.515 398.204 386.245 395.679 384.132C377.556 368.963 358.649 354.82 340.046 340.255L319.686 324.588C315.734 321.575 311.851 318.318 307.648 315.668C311.814 311.667 316.96 308.426 321.622 304.999L390.651 253.476C398.302 247.851 405.777 241.765 413.715 236.567Z"/><path fill="#C2D7DF" transform="matrix(0.117187 0 0 0.117187 -0.000488281 -3.05176e-05)" d="M104.235 241.405C114.182 247.802 123.449 255.45 132.929 262.517L185.392 301.574C191.646 306.218 197.688 311.148 204.033 315.668C200.461 318.67 196.674 321.418 192.973 324.258L136.378 368.232C129.514 373.469 106.554 388.827 104.235 396.403C104.62 392.27 104.258 387.896 104.249 383.73L104.202 252.838C104.175 249.098 103.824 245.108 104.235 241.405Z"/><path fill="#6DA1B6" transform="matrix(0.117187 0 0 0.117187 -0.000488281 -3.05176e-05)" d="M417.327 391.87C417.322 405.24 415.702 415.625 399.672 415.593L123.117 415.525C119.437 415.529 111.616 416.389 108.489 415.542C110.749 415.365 113.144 415.528 115.418 415.542C107.049 411.835 103.94 405.408 104.235 396.403C110.492 404.281 110.808 402.429 121.067 402.424L385.24 402.401C391.932 402.402 415.975 405.844 405.327 391.87C409.296 391.689 413.349 391.856 417.327 391.87Z"/><path fill="#F8AC44" transform="matrix(0.117187 0 0 0.117187 -0.000488281 -3.05176e-05)" d="M332.145 194.558C332.214 200.611 333.509 208.299 328.946 213.024C325.404 216.693 318.764 217.708 314.954 213.819C310.023 208.787 314.571 202.904 303.837 194.558C304.68 194.173 328.738 194.642 332.145 194.558Z"/></svg>