<?xml version="1.0" encoding="utf-8" ?><svg xmlns="http://www.w3.org/2000/svg" xmlns:xlink="http://www.w3.org/1999/xlink" width="60" height="60" viewBox="0 0 60 60"><path fill="#1B1919" transform="matrix(0.117187 0 0 0.117187 0 -1.52588e-05)" d="M250.196 137.78L250.859 137.769C332.633 136.925 408.2 178.795 462.377 237.98C466.07 242.014 474.836 249.63 474.734 255.61C474.608 263.032 452.631 284.388 447.46 289.601C402.297 335.132 326.861 371.484 261.188 371.766C176.862 373.536 98.8828 330.936 45.1291 267.829C34.2528 255.061 35.1902 254.552 46.0972 241.891C93.1588 187.262 160.407 146.662 232.927 138.972C238.668 138.363 244.441 138.209 250.196 137.78ZM260.649 358.551C317.635 356.046 361.804 307.823 359.309 250.837C356.813 193.85 308.599 149.673 251.612 152.158C194.61 154.643 150.42 202.873 152.915 259.874C155.411 316.875 203.648 361.057 260.649 358.551ZM329.56 164.295C333.469 167.627 337.315 170.905 340.828 174.66C342.331 174.153 341.865 172.594 345.86 171.082C340.691 168.34 335.048 166.315 329.56 164.295ZM170.221 335.208C169.823 334.953 169.492 334.772 169.197 334.392L168.858 334.477C168.491 335.581 168.864 336.647 168.186 337.59C166.657 338.177 164.73 338.252 166.334 340.098C171.253 342.45 176.795 344.045 182 345.644C177.767 342.433 174.128 338.782 170.221 335.208ZM349.713 337.678C350.058 335.856 351.627 336.358 352.937 335.694L352.812 335.189C351.678 334.608 346.543 333.63 346.449 333.487C346.276 332.056 347.938 331.348 347.472 329.885L346.629 329.493C341.861 335.486 336.017 340.157 330.751 345.644C336.979 342.751 343.343 340.239 349.713 337.678ZM184.573 164.295C177.936 165.72 171.635 168.346 165.422 171.082C166.607 171.958 167.882 171.296 168.931 172.169C170.239 173.257 169.052 174.806 171.08 175.435C175.211 170.983 179.296 167.285 184.573 164.295Z"/><path fill="#1B1919" transform="matrix(0.117187 0 0 0.117187 0 -1.52588e-05)" d="M253.183 180.441C294.374 178.679 329.182 210.671 330.893 251.864C332.604 293.058 300.57 327.826 259.375 329.486C218.25 331.144 183.556 299.178 181.847 258.056C180.139 216.934 212.063 182.2 253.183 180.441Z"/><path fill="#A9D35C" transform="matrix(0.117187 0 0 0.117187 0 -1.52588e-05)" d="M251.054 194.405C284.534 191.424 314.095 216.143 317.086 249.622C320.078 283.101 295.368 312.669 261.89 315.671C228.397 318.675 198.813 293.952 195.82 260.458C192.827 226.964 217.559 197.388 251.054 194.405Z"/><path fill="#1B1919" transform="matrix(0.117187 0 0 0.117187 0 -1.52588e-05)" d="M255.106 213.285C261.515 212.799 263.48 217.046 263.602 222.787C303.237 232.572 296.587 289.116 257.311 290.568C212.237 291.356 210.844 226.659 249.221 222.787C249.135 217.899 250.198 215.098 255.106 213.285Z"/><path fill="#419D40" transform="matrix(0.117187 0 0 0.117187 0 -1.52588e-05)" d="M254.162 235.319C265.653 234.35 275.75 242.886 276.708 254.377C277.666 265.869 269.121 275.958 257.628 276.906C246.151 277.852 236.078 269.32 235.121 257.844C234.164 246.367 242.686 236.286 254.162 235.319Z"/><path fill="#E0E0DF" transform="matrix(0.117187 0 0 0.117187 0 -1.52588e-05)" d="M53.3014 255.494L53.3689 255.393C57.1576 249.638 62.5408 244.463 67.2536 239.448C94.0947 210.88 128.68 185.583 165.422 171.082C166.607 171.958 167.882 171.296 168.931 172.169C170.239 173.257 169.052 174.806 171.08 175.435C132.769 215.497 127.7 278.41 160.578 323.589C163.537 327.655 166.919 331.42 170.221 335.208C169.823 334.953 169.492 334.772 169.197 334.392L168.858 334.477C168.491 335.581 168.864 336.647 168.186 337.59C166.657 338.177 164.73 338.252 166.334 340.098C131.775 328.043 95.8571 300.186 70.4518 274.471C64.4304 268.377 59.1695 261.692 53.3014 255.494Z"/><path fill="#E0E0DF" transform="matrix(0.117187 0 0 0.117187 0 -1.52588e-05)" d="M345.86 171.082C351.491 172.407 359.125 176.797 364.539 179.506C405.892 200.2 429.309 223.14 459.568 255.494C432.1 290.507 391.191 320.718 349.713 337.678C350.058 335.856 351.627 336.358 352.937 335.694L352.812 335.189C351.678 334.608 346.543 333.63 346.449 333.487C346.276 332.056 347.938 331.348 347.472 329.885L346.629 329.493C350.033 326.053 352.826 321.696 355.39 317.599C384.373 271.286 377.628 214.942 340.828 174.66C342.331 174.153 341.865 172.594 345.86 171.082Z"/><path fill="#1B1919" transform="matrix(0.117187 0 0 0.117187 0 -1.52588e-05)" d="M114.653 362.76C117.719 362.518 121.743 365.844 124.237 367.306C133.782 372.901 143.585 377.33 153.838 381.485C161.993 384.79 162.187 392.58 154.105 395.267C146.425 396.15 114.057 378.598 109.805 374.316C105.613 370.093 109.302 364.351 114.653 362.76Z"/><path fill="#1B1919" transform="matrix(0.117187 0 0 0.117187 0 -1.52588e-05)" d="M151.073 113.763C156.592 113.652 160.835 118.41 158.266 123.694C156.932 126.437 151.151 128.462 148.599 129.775C140.932 133.721 123.337 145.65 116.655 147.77C111.059 148.649 106.401 143.396 109.272 137.937C111.783 133.163 144.593 115.968 151.073 113.763Z"/><path fill="#1B1919" transform="matrix(0.117187 0 0 0.117187 0 -1.52588e-05)" d="M358.736 113.763C366.094 113.518 396.469 131.08 401.485 135.828C405.778 139.891 403.707 145.744 398.664 147.77C393.901 148.488 390.816 144.88 387.136 142.412C381.833 138.854 354.882 126.249 353.621 122.852C352.039 118.59 354.775 115.087 358.736 113.763Z"/><path fill="#1B1919" transform="matrix(0.117187 0 0 0.117187 0 -1.52588e-05)" d="M395.575 363.558C401.96 362.899 407.159 370.222 402.17 374.804C394.829 381.546 372.336 389.669 361.782 395.267C353.893 395.845 349.632 386.287 357.12 382.039C362.64 378.908 372.404 375.441 378.743 372.41C384.32 369.743 390.057 365.814 395.575 363.558Z"/></svg>