<?xml version="1.0" encoding="utf-8" ?><svg xmlns="http://www.w3.org/2000/svg" xmlns:xlink="http://www.w3.org/1999/xlink" width="30" height="30" viewBox="0 0 30 30"><path fill="#FEB33D" transform="scale(0.0585937 0.0585937)" d="M112.269 106.002C124.047 105.662 135.926 106.006 147.716 106.003C182.754 105.991 202.728 105.319 235.546 123.934C241.55 127.34 250.952 133.031 256.146 137.387C260.228 134.383 264.645 131.686 268.854 128.846C303.418 105.891 326.687 105.994 364.999 106.001L386.264 105.993C390.75 105.969 395.241 105.764 399.724 106.002L399.724 127.491L417.23 127.466C433.371 127.457 437.319 127.663 437.289 146.482L437.261 319.548C437.262 336.692 437.516 353.878 437.26 371.017L437.263 371.405C437.339 387.693 422.8 386.256 410.854 386.251L299.729 386.24C296.029 390.291 293.947 396.971 289.616 400.217C285.713 403.143 276.712 401.97 272.146 401.974L237.2 401.978C219.307 401.972 223.783 400.199 213.817 386.24L99.942 386.257C77.9875 386.276 74.8108 386.561 74.8299 361.213L74.8281 153.195C74.7976 133.777 71.2311 129.693 93.761 127.491C96.4456 127.837 109.83 127.867 112.269 127.491L112.269 106.002Z"/><path fill="#FA596E" transform="scale(0.0585937 0.0585937)" d="M268.854 128.846C303.418 105.891 326.687 105.994 364.999 106.001L386.264 105.993C390.75 105.969 395.241 105.764 399.724 106.002L399.724 127.491L417.23 127.466C433.371 127.457 437.319 127.663 437.289 146.482L437.261 319.548C437.262 336.692 437.516 353.878 437.26 371.017C433.43 371.194 429.574 371.028 425.74 371.023L403.933 371.017C384.056 371.016 364.241 371.081 344.375 370.586L310.265 369.828C294.99 369.468 287.64 368.672 279.166 383.989L256.146 383.989C256.223 378.728 255.863 373.402 256.721 368.185C260.194 359.308 262.952 358.854 269.546 353.915L269.783 353.735C269.091 351.419 269.787 314.656 269.787 309.214L269.782 159.89C269.782 155.123 271.03 131.12 268.854 128.846Z"/><path fill="#4CB6FE" transform="scale(0.0585937 0.0585937)" d="M399.724 127.491L417.23 127.466C433.371 127.457 437.319 127.663 437.289 146.482L437.261 319.548C437.262 336.692 437.516 353.878 437.26 371.017C433.43 371.194 429.574 371.028 425.74 371.023L403.933 371.017C384.056 371.016 364.241 371.081 344.375 370.586L310.265 369.828C294.99 369.468 287.64 368.672 279.166 383.989L256.146 383.989C256.223 378.728 255.863 373.402 256.721 368.185C260.194 359.308 262.952 358.854 269.546 353.915L269.783 353.735C290.016 344.909 305.074 344.423 326.891 344.424L384.79 344.427C389.74 344.424 394.789 344.162 399.724 344.431L399.726 199.846C399.726 175.745 399.365 151.586 399.724 127.491Z"/><path fill="#FD4C39" transform="scale(0.0585937 0.0585937)" d="M380.1 301.241C380.475 301.257 380.263 301.203 380.675 301.555C380.909 308.22 380.773 314.925 380.769 321.595L288.938 321.595L288.42 321.576C287.654 320.576 288.006 303.895 288.01 301.241L369.465 301.248C373.006 301.258 376.565 301.449 380.1 301.241Z"/><path fill="#FD4C39" transform="scale(0.0585937 0.0585937)" d="M288.01 140.981L380.769 140.981L380.769 160.94L288.01 160.94L288.01 140.981Z"/><path fill="#FD4C39" transform="scale(0.0585937 0.0585937)" d="M351.056 260.263L367.556 260.253C371.984 260.208 376.339 260.018 380.769 260.263C380.47 266.774 380.768 273.424 380.769 279.95C374.133 279.516 367.233 279.944 360.565 279.947L318.563 279.95L288.01 279.95L288.01 260.263L351.056 260.263Z"/><path fill="#FD4C39" transform="scale(0.0585937 0.0585937)" d="M288.01 220.392L380.769 220.392C380.622 226.909 380.842 233.447 380.769 239.97C370.588 240.4 360.23 239.964 350.027 239.962L288.01 239.97L288.01 220.392Z"/><path fill="#FD4C39" transform="scale(0.0585937 0.0585937)" d="M296.93 180.983L380.769 180.983L380.769 199.961C377.826 200.025 374.881 199.983 371.938 199.961L288.01 199.961L288.01 180.983C291.018 181.268 293.923 181.187 296.93 180.983Z"/><path fill="#2A89F6" transform="scale(0.0585937 0.0585937)" d="M213.817 386.24L99.942 386.257C77.9875 386.276 74.8108 386.561 74.8299 361.213L74.8281 153.195C74.7976 133.777 71.2311 129.693 93.761 127.491C96.4456 127.837 109.83 127.867 112.269 127.491L112.269 345.019L198.046 345.011C219.129 345.027 236.462 346.894 252.401 362.783C253.652 364.03 254.846 365.362 256.146 366.556L256.721 368.185C255.863 373.402 256.223 378.728 256.146 383.989L279.166 383.989C287.64 368.672 294.99 369.468 310.265 369.828L344.375 370.586C364.241 371.081 384.056 371.016 403.933 371.017L425.74 371.023C429.574 371.028 433.43 371.194 437.26 371.017L437.263 371.405C437.339 387.693 422.8 386.256 410.854 386.251L299.729 386.24C296.029 390.291 293.947 396.971 289.616 400.217C285.713 403.143 276.712 401.97 272.146 401.974L237.2 401.978C219.307 401.972 223.783 400.199 213.817 386.24Z"/><path fill="#13D3D0" transform="scale(0.0585937 0.0585937)" d="M93.761 127.491C96.4456 127.837 109.83 127.867 112.269 127.491L112.269 345.019L198.046 345.011C219.129 345.027 236.462 346.894 252.401 362.783C253.652 364.03 254.846 365.362 256.146 366.556L256.721 368.185C255.863 373.402 256.223 378.728 256.146 383.989C248.505 384.44 240.612 383.998 232.941 383.989C222.768 370.016 228.879 369.485 206.832 369.478L133.995 369.478C125.076 369.479 116.108 369.69 107.194 369.468C90.9173 369.063 93.7632 356.799 93.76 344.934L93.7586 141.392C93.7535 136.768 93.5462 132.107 93.761 127.491Z"/><path fill="#CB3C70" transform="scale(0.0585937 0.0585937)" d="M268.854 128.846C271.03 131.12 269.782 155.123 269.782 159.89L269.787 309.214C269.787 314.656 269.091 351.419 269.783 353.735L269.546 353.915C262.952 358.854 260.194 359.308 256.721 368.185L256.146 366.556C255.933 358.084 256.143 349.549 256.143 341.069L256.146 137.387C260.228 134.383 264.645 131.686 268.854 128.846Z"/><path fill="#FEFEFE" transform="scale(0.0585937 0.0585937)" d="M177.187 140.981L192.222 140.981L192.222 245.309C185.853 245.485 179.437 245.323 173.063 245.309L173.063 224.625L173.063 163.373C166.747 166.773 160.314 170.931 154.46 175.052C152.261 170.47 150.429 165.627 148.451 160.94C153.566 157.707 173.395 141.991 177.187 140.981Z"/><path fill="#FE8E3B" transform="scale(0.0585937 0.0585937)" d="M228.394 301.241C231.099 300.774 229.563 318.525 229.63 321.595C226.011 321.351 222.347 321.564 218.721 321.577L132.687 321.595C130.465 321.899 131.455 316.38 131.454 314.511L131.478 301.241L228.394 301.241Z"/><path fill="#FE8E3B" transform="scale(0.0585937 0.0585937)" d="M131.478 260.263C142.772 260.447 154.09 260.263 165.388 260.26L229.63 260.263L229.63 279.95C225.839 279.747 221.991 279.941 218.193 279.952L131.478 279.95L131.478 260.263Z"/></svg>