<?xml version="1.0" encoding="utf-8" ?><svg xmlns="http://www.w3.org/2000/svg" xmlns:xlink="http://www.w3.org/1999/xlink" width="60" height="60" viewBox="0 0 60 60"><defs><linearGradient id="gradient_0" gradientUnits="userSpaceOnUse" x1="208.67946" y1="59.622154" x2="191.04813" y2="338.11383"><stop offset="0" stop-color="#1CBACB"/><stop offset="1" stop-color="#CC2FE6"/></linearGradient></defs><path fill="url(#gradient_0)" transform="scale(0.117187 0.117187)" d="M104.953 95.2952C158.479 43.6088 251.92 48.9689 300.708 104.641C324.831 126.799 344.319 184.53 336.689 218.051C335.922 235.303 322.773 265.053 313.021 278.383C311.514 280.443 309.569 282.615 308.461 284.905C313.844 293.321 327.735 302.556 334.241 312.09C326.103 316.818 317.568 327.401 314.043 335.824C305.718 328.619 292.918 316.207 285.254 308.092C280.5 311.245 276.136 314.835 271.255 317.86C178.888 375.121 58.3223 305.934 59.2314 198.841C59.2629 195.122 59.6085 191.362 59.2899 187.651L59.2464 187.176C64.5356 150.944 76.0396 120.108 104.953 95.2952ZM86.0495 204.8C89.0562 259.954 131.713 304.737 186.655 310.421C241.597 316.105 292.518 281.002 306.752 227.633C318.412 183.915 302.704 137.469 266.902 109.802C222.442 75.4432 159.433 79.2217 119.397 118.647C96.4401 141.254 84.2956 172.629 86.0495 204.8Z"/><defs><linearGradient id="gradient_1" gradientUnits="userSpaceOnUse" x1="215.66373" y1="125.28899" x2="180.67841" y2="272.1734"><stop offset="0" stop-color="#58B0E1"/><stop offset="1" stop-color="#B26AEF"/></linearGradient></defs><path fill="url(#gradient_1)" transform="scale(0.117187 0.117187)" d="M194.566 123.472C236.221 121.46 271.656 153.522 273.806 195.17C275.957 236.818 244.013 272.359 202.372 274.648C160.535 276.948 124.789 244.821 122.629 202.976C120.468 161.131 152.714 125.493 194.566 123.472Z"/><defs><linearGradient id="gradient_2" gradientUnits="userSpaceOnUse" x1="162.5437" y1="236.93277" x2="212.48651" y2="183.63036"><stop offset="0" stop-color="#FFA7E1"/><stop offset="1" stop-color="#9BD9EE"/></linearGradient></defs><path fill="url(#gradient_2)" transform="scale(0.117187 0.117187)" d="M176.704 151.653C195.215 143.285 216.901 146.425 232.279 159.7C247.656 172.975 253.928 193.97 248.351 213.505C241.722 236.722 220.026 252.357 195.904 251.298C171.782 250.239 151.539 232.764 146.971 209.055C142.402 185.345 154.702 161.6 176.704 151.653Z"/><path fill="#74E0ED" transform="scale(0.117187 0.117187)" d="M176.704 151.653C195.215 143.285 216.901 146.425 232.279 159.7C247.656 172.975 253.928 193.97 248.351 213.505C247.168 214.323 247.711 215.432 245.871 215.576C237.783 210.602 229.411 196.526 223.176 197.588C222.789 197.653 222.67 197.475 222.341 197.28C220.182 190.415 215.881 188.764 209.023 189.254C209.119 181.824 205.573 176.982 198.006 175.907C197.265 175.251 197.254 173.775 196.867 172.853C194.929 168.238 180.78 155.762 176.704 151.653Z"/><defs><linearGradient id="gradient_3" gradientUnits="userSpaceOnUse" x1="211.54272" y1="184.99995" x2="183.58647" y2="213.88313"><stop offset="0" stop-color="#8099E6"/><stop offset="1" stop-color="#A186F2"/></linearGradient></defs><path fill="url(#gradient_3)" transform="scale(0.117187 0.117187)" d="M198.006 175.907C205.573 176.982 209.119 181.824 209.023 189.254C215.881 188.764 220.182 190.415 222.341 197.28C223.86 206.315 216.848 210.04 209.023 210.495C209.173 226.199 187.345 228.327 186.102 210.495C167.87 211.026 169.583 187.014 186.102 189.254C186.644 181.274 189.572 176.563 198.006 175.907Z"/><path fill="#F68384" transform="scale(0.117187 0.117187)" d="M334.241 312.09C346.605 308.852 351.992 314.473 359.96 322.3L414.745 377.609C416.278 379.143 418.347 380.789 419.571 382.561C423.31 386.004 426.803 389.756 430.413 393.337C439.527 402.377 451.583 410.652 452.099 424.512C453.029 449.498 424.369 461.243 405.053 442.577C392.93 430.863 379.127 417.525 367.822 405.046C364.73 403.256 352.524 389.963 349.47 386.89C340.321 377.684 330.766 368.824 321.849 359.394C315.452 352.629 312.18 345.462 314.043 335.824C317.568 327.401 326.103 316.818 334.241 312.09Z"/><path fill="#F75196" transform="scale(0.117187 0.117187)" d="M367.822 405.046C369.54 404.986 375.883 412.745 377.965 414.262C384.588 419.088 390.323 419.619 396.599 423.138C399.272 424.636 410.941 423.017 413.42 422.167C423.528 418.701 424.232 411.835 426.94 403.136C427.356 401.798 428.436 400.042 428.471 398.701L427.568 397.792C428.302 396.634 430.349 395.743 430.498 394.396C428.611 391.591 422.213 386.289 419.463 383.117L419.571 382.561C423.31 386.004 426.803 389.756 430.413 393.337C439.527 402.377 451.583 410.652 452.099 424.512C453.029 449.498 424.369 461.243 405.053 442.577C392.93 430.863 379.127 417.525 367.822 405.046Z"/></svg>