<svg version="1.2" xmlns="http://www.w3.org/2000/svg" viewBox="0 0 512 512" width="512" height="512">
	<title>flaming-flame-icons-download-free-png-and-vector-icons-766499</title>
	<style>
		.s0 { fill: #444d5f } 
	</style>
	<path id="Layer 1" class="s0" d="m235.3 43.2c0.4 2.9 1.2 9.6 1.8 14.8 0.7 6.8 0.7 12.5-0.1 20-0.7 5.8-2.3 14.2-3.6 18.7-1.3 4.6-3.5 10.9-4.8 14-1.3 3.2-4 8.5-5.8 11.8-1.9 3.3-4.6 7.8-6 10-1.4 2.2-5.8 8.3-9.9 13.5-4 5.2-19.1 21.4-33.4 36-14.3 14.6-29.7 30.7-34.3 35.8-4.5 5-11.5 13.6-15.5 18.9-4 5.4-9.8 14.3-12.9 19.8-3.1 5.5-7.2 14.1-9.1 19-2 4.9-4.5 12.6-5.6 17-1.1 4.4-2.5 11.4-3.1 15.5-0.6 4.1-1.1 14-1.1 22 0 8.3 0.7 19 1.6 25 0.9 5.8 2.3 13.4 3.1 17 0.8 3.6 2.3 9.2 3.3 12.5 1.1 3.3 3.1 9.1 4.6 13 1.4 3.9 4.4 10.6 6.7 15 2.2 4.4 5.7 10.5 7.8 13.5 2 3 6.2 8.4 9.2 12 3 3.6 9.2 9.6 13.9 13.3 4.7 3.8 12.8 8.9 18.4 11.7 5.5 2.8 13.6 5.9 18 7 4.4 1.1 9.2 2 10.7 2 1.6 0 2.8-0.6 2.8-1.3 0-0.6-2.5-8.4-5.6-17.2-3-8.8-6.8-20.9-8.4-27-1.5-6.1-3.3-15.9-4-22-0.9-8.2-0.9-13.5-0.1-20.8 0.6-5.3 2.3-13.4 3.7-17.9 1.5-4.6 3.8-10.6 5.2-13.3 1.3-2.8 4.1-7.5 6.2-10.5 2-3 5.6-7.8 8-10.5 2.4-2.8 7.7-8 11.9-11.7 4.2-3.7 7.7-6.7 7.7-6.5 0.1 0.1-0.4 3.1-1.2 6.7-0.7 3.6-1.4 9.9-1.4 14 0 4.1 0.7 11.6 1.5 16.5 0.9 4.9 2.9 13.1 4.6 18 1.6 4.9 5.4 13.9 8.3 20 2.8 6.1 7.4 14.4 10.1 18.5 2.6 4.1 6.9 9.7 9.4 12.3 2.5 2.6 5.2 4.8 5.8 4.7 0.7 0 1.3-0.3 1.3-0.8 0-0.4 4.5-6.1 10-12.7 5.4-6.6 11.3-14.3 12.9-17 1.7-2.8 4-7.6 5.1-10.8 1.1-3.1 2.2-7.8 2.6-10.5 0.3-2.6 0.7-6.2 1-8 0.2-1.7 0.8-3.2 1.4-3.2 0.5 0 3.5 2.4 6.5 5.2 3.3 3.1 7 8 9 11.8 1.8 3.6 4 9 4.9 12 0.9 3 2.3 9.6 3.1 14.5 0.8 4.9 1.5 14.6 1.5 21.5 0 6.9-0.5 16.3-1 21-0.6 4.7-2 11.9-3.1 16-1.1 4.1-2.7 8.5-3.5 9.7-1.3 2.1-1.2 2.3 0.3 2.3 1 0 6.3-1.1 11.8-2.5 5.5-1.4 14.5-4.7 20-7.3 5.5-2.7 12.9-6.8 16.5-9.2 3.6-2.4 10.1-7.3 14.5-11.1 4.4-3.7 10.5-9.5 13.5-13 3-3.4 7.2-8.5 9.3-11.3 2.1-2.8 6.3-9.2 9.2-14.1 2.9-4.9 7-13.1 9-18 2.1-4.9 4.8-13.3 6.1-18.5 1.4-5.2 3-14.9 3.6-21.5 0.8-9 0.8-15-0.1-24-0.6-6.6-2-15.8-3-20.5-1-4.7-3.2-12.6-4.9-17.5-1.6-4.9-4.5-12.1-6.3-16l-3.2-7c-1.1 10.9-2.4 17.6-3.5 22-1.1 4.4-3.7 11.8-5.7 16.5-2 4.7-5.5 11.6-7.7 15.5-2.3 3.9-6 9.7-8.3 13-2.3 3.3-7.4 9.9-11.4 14.7-3.9 4.9-7.3 8.7-7.6 8.5-0.3-0.1 0.6-5.4 1.9-11.7 1.4-6.3 4.5-19.6 7-29.5 2.4-9.9 5.2-21.6 6-26 0.9-4.4 2-12.1 2.6-17 0.5-4.9 1-12.5 1-16.8 0-4.2-0.5-12.1-1.1-17.5-0.5-5.3-2.1-15.2-3.5-22-1.3-6.7-4.4-18.4-6.9-26-2.8-8.3-8-20.7-13.4-31.7-4.9-9.9-12.7-23.6-17.2-30.5-4.5-6.9-10.8-15.9-13.9-20-3.2-4.1-9.5-11.7-14.1-16.9-4.6-5.2-12.7-13.3-17.9-17.9-5.2-4.6-14-11.4-19.5-15.1-5.5-3.7-12.9-8.1-16.5-9.9-3.6-1.7-9-4.1-12-5.2l-5.4-2.1z"/>
</svg>