<svg version="1.2" xmlns="http://www.w3.org/2000/svg" viewBox="0 0 1024 1024" width="1024" height="1024"><style>.a{fill:#bf5feb}.b{fill:#603076}.c{fill:#1c1c29;stroke:#e7a0f4;stroke-miterlimit:100;stroke-width:10}.d{fill:#9bbedd}.e{fill:#8643a4}</style><path class="a" d="m242.4 190l0.5-0.8c2.9-5.2 4.8-11 7.5-16.3 13.2-25.4 28.7-42.4 56.7-50.4 35.1-10.1 86.3-11.6 123.2-12.9 59.7-2.5 119.6-2.2 179.3 0.9 29.4 1.6 59.3 2.9 88.2 8.3 12.3 2.3 24.8 5.3 35.8 11.3 17.7 9.8 30.1 27.7 39 45.4 2.4 4.8 4.4 11.1 7.4 15.5 15.4 0 30.6 2.8 41.9 14.1 24.4 24.6 32.9 82.2 32.6 116.1-0.3 33.5-8 83.2-32.7 107.6-10.4 10.3-23.6 15-38.2 14.8q-0.9 0-1.9-0.1c-2.4 4.5-4.3 9.1-6.7 13.6-8.3 15.7-19.1 30.5-34.7 39.7-3.8 2.2-7.9 4.1-12 5.7-2.4 1-5.7 1.9-7.8 3.3-8.1 1.8-16.2 3.8-24.4 5.1-19.7 3.3-39.7 5-59.7 6.4-49.6 3.5-99.3 3.3-149 2.8q-41.1-0.1-82.1-2.3c-34.3-1.7-68.3-4.1-101.9-11.7-0.3 0-1-0.2-1.3-0.3-5.5-3.3-12.1-4.9-17.8-8.1-21.8-12.2-33-32.5-43.6-54.1-13.4-0.6-24.3-2.4-34.9-11.2-25.3-21.1-33.7-64.9-36.4-96.5-3.1-37 3.4-98.4 28.1-127.5 12-14 27.4-17 44.9-18.4z"/><path class="b" d="m780 191c15.4 0 30.6 2.8 41.9 14.1 24.4 24.6 32.9 82.2 32.6 116.1-0.3 33.5-8 83.2-32.7 107.6-10.4 10.3-23.6 15-38.2 14.8q-0.9 0-1.9-0.1c23.2-50 21.2-138.7 12.9-191.9-3.2-20.7-7.8-40.7-14.6-60.6z"/><path class="b" d="m240.7 443.6c-13.4-0.6-24.3-2.4-34.9-11.2-25.3-21.1-33.7-64.9-36.4-96.5-3.1-37 3.4-98.4 28.1-127.5 12-14 27.4-17 44.9-18.4-24.4 75.8-30.3 178.1-1.7 253.6z"/><path class="c" d="m453.4 176.8l1-0.1c40.6-1.1 81.5-0.3 122.2 0.4q33.8 0.4 67.6 2.6c13.1 0.9 26.4 1.7 39.3 4.7 9.9 2.2 18.7 5.7 26.1 12.8 26.7 25.7 32.4 85 32.9 120.3 0.5 33.3-2.8 84.5-27.2 109.3-21.4 21.8-65.9 21.8-94.7 23.3q-25.9 1.6-51.8 1.9c-18.3 0-36.5 0.7-54.8 0.8q-50.7 0-101.3-2.3c-25.3-1.2-51.3-1.5-75.8-8.3-10.5-2.9-20.1-7.4-28.1-15-23.8-22.5-27.1-65.5-28-96.6-1.2-37.4 3.1-103.4 30-131.7 5.8-6.1 12.7-9.9 20.7-12.5 18.5-6 38.9-6.3 58.2-7.3q31.8-1.6 63.7-2.3z"/><path class="d" d="m616.8 238.1c8.6-0.7 17.5 0.2 24.9 5 9.5 6.3 14.7 17.1 17 27.9 3.3 16.3 3.7 56.6 0.5 72.6-1.2 6.2-3.4 12.3-6.9 17.6-5.8 8.6-13.9 12.7-23.9 14.7-8.4 0.8-17.3-0.2-24.7-4.6-9.3-5.7-14.6-15.7-17-26.1-2.9-12.5-3.5-59.4-1.3-72.7 1.1-6.5 3.1-13 6.7-18.6 5.8-9.1 14.4-13.6 24.7-15.8z"/><path class="d" d="m399.3 237.7c8.6 0.3 16.6 1.8 23.5 7.2 9.3 7.1 13.5 18.5 14.8 29.8 1.1 9.3 0.5 18.8 0.5 28.1 0 19.9 2.5 44.6-10.7 61.1-6.4 8.1-14.6 11-24.5 12.1-9 0.2-17.8-1.4-24.9-7.2-9.5-7.7-13.4-19.8-14.6-31.6-1.6-15.3-1.5-54.3 1.9-68.5 1.6-6.9 4.5-13.6 9.1-19.2 6.6-7.9 14.9-10.9 24.9-11.8z"/><path class="d" d=""/><path class="a" d="m302.1 505.8c0.3 0.1 1 0.3 1.3 0.3 33.6 7.6 67.6 10 101.9 11.7q41 2.2 82.1 2.3c49.7 0.5 99.4 0.7 149-2.8 20-1.4 40-3.1 59.7-6.4 8.2-1.3 16.3-3.3 24.4-5.1l-0.2 0.9c9 3.7 16.5 7.7 23.1 15 2.2 2.6 4.2 5.5 6.6 7.9 11.9 7 22.5 17.8 32.4 27.2 34.7 33 65.5 69.3 87.4 112.2 5.6 11.1 10.9 22.3 14.1 34.3 3.2 11.8 3.6 22.2 2.1 34.3-4.5 12.7-11.5 24.1-24.1 30-7.9 3.6-16.6 4.5-25.1 5.5-7.5-0.5-14.5-2-21.8-3.6-7.7-0.5-24.8-11.9-31-16.7-6.6-7.1-13.7-13.3-19.8-21.1-20-25.7-33-56.4-44.1-86.8-3.1-8.5-6.5-17.2-9-25.9-6.6 30.1-17.4 58.6-29.7 86.7-5.9 13.5-12.2 27.7-20.6 39.8-8.2 14.1-17.9 29.4-29.3 41.1-6.4 10.2-22 23.4-32 30.7-33.2 24.2-72.9 34.2-113.6 27.6-37.2-6.1-75.3-30.5-97.4-61.2-11-11.9-20.5-25.1-28.3-39.2-4.3-5.6-7.6-12.2-10.8-18.5-13.2-26.1-24-53.3-32.2-81.4-2.4-7.9-4.8-16-6.5-24.1-3.4 8.9-6.3 18-9.7 26.9-10.8 29.1-23.4 59.3-42.6 84.1-6.2 8-13.6 14.6-20.2 22.1-10.4 6.6-19 13.8-31.3 16.6-6.9 2.1-14.4 2.9-21.6 2.9-8.7-0.5-18.6-2.8-26.2-7-11.2-6.1-18.8-16.9-22.2-29-1.3-11.2-1.2-21.8 1.8-32.7 14.6-53.9 64.4-113.9 104.8-151 9.2-8.4 18.5-17.6 29.3-23.7 7.6-12 16.3-18.3 29.3-23.9z"/><path class="b" d="m360.2 744.5c53.8 21.7 114 25.8 171.4 24.1 16.1-0.5 32-1.1 48-3.2 27.8-3.7 55.1-9.9 81.2-19.9-8.2 14.1-17.9 29.4-29.3 41.1-6.4 10.2-22 23.4-32 30.7-33.2 24.2-72.9 34.2-113.6 27.6-37.2-6.1-75.3-30.5-97.4-61.2-11-11.9-20.5-25.1-28.3-39.2z"/><path class="e" d="m388.5 783.7q0.3 0.1 0.5 0.1c6 1.3 12 4.2 17.6 6.4q9.4 3.4 19 5.9c43.4 11.1 90.2 12.4 134.5 7.1 13.8-1.7 27.3-4 40.8-7.4 4.9-1.2 28.8-9.4 30.6-9.2-6.4 10.2-22 23.4-32 30.7-33.2 24.2-72.9 34.2-113.6 27.6-37.2-6.1-75.3-30.5-97.4-61.2z"/><path class="b" d="m303.4 506.1c33.6 7.6 67.6 10 101.9 11.7q41 2.2 82.1 2.3c49.7 0.5 99.4 0.7 149-2.8 20-1.4 40-3.1 59.7-6.4 8.2-1.3 16.3-3.3 24.4-5.1l-0.2 0.9c-0.8 5.5 3.8 19.8 1.8 23.6-17 7.8-33.8 13.7-52.1 17.4-22.4 4.4-44.9 7.5-67.6 9.1-33.7 2.4-67.4 2.3-101.1 1.8-49.2-0.7-99.1-2.7-147.6-11.2-15.3-2.7-30.7-5.7-45.4-11.3-2.9-1.1-5.7-2.3-8.6-3.4 0.5-8.5 1.4-18.4 3.7-26.6z"/><path class="e" d="m302.1 505.8c0.3 0.1 1 0.3 1.3 0.3-2.3 8.2-3.2 18.1-3.7 26.6-1.2 27.2 3.2 54.6 9.3 81.1-13-10.6-25.3-22.2-32.9-37.3-7.4-14.9-8.5-31.1-3.3-46.8 7.6-12 16.3-18.3 29.3-23.9z"/><path class="e" d="m720.3 506.7c9 3.7 16.5 7.7 23.1 15 2.2 2.6 4.2 5.5 6.6 7.9l0.1 0.9c0.5 4.9 2.2 9.7 2.5 14.7 1.3 16.9-6.1 33.2-16.3 46.2-6.4 8.2-14.6 16.4-23.3 22.1 5.2-24.7 10.2-49.8 9.5-75.2-0.1-2.4 0.2-5.7-0.4-8 2-3.8-2.6-18.1-1.8-23.6z"/></svg>