<svg version="1.2" xmlns="http://www.w3.org/2000/svg" viewBox="0 0 400 400" width="400" height="400">
	<title>vector path</title>
	<style>
		.s0 { fill: none;stroke: #d7d7d9;stroke-linejoin: round;stroke-width: 15;stroke-dasharray: 60,30 } 
		.s1 { fill: none;stroke: #ffffff;stroke-linecap: round;stroke-linejoin: round;stroke-width: 15 } 
		.s2 { fill: none;stroke: #666a81;stroke-linecap: round;stroke-linejoin: round;stroke-width: 15;stroke-dasharray: 60,30 } 
		.s3 { fill: #bf7dcd } 
	</style>
	<path id="Layer 6" class="s0" d="m54 124"/>
	<path id="Layer 4" fill-rule="evenodd" class="s1" d="m74.8 109.4c-12 0-21.8-10.2-21.8-22.7 0-12.6 9.8-22.7 21.8-22.7 12.1 0 21.9 10.1 21.9 22.7 0 12.5-9.8 22.7-21.9 22.7z"/>
	<path id="Shape 1" class="s2" d="m77.9 132.4c0.2 30.7 36.2 44.7 60.1 49.2 45.7 8.8 93.3 1.2 138.1 14.2 17.8 5.2 38 12.6 44.8 31.4 9.4 25.9-25.2 37.6-44.6 43.4-33.9 10.1-72.6 5.2-107.5 5.2-22.7 0-47.5-1.8-57.8 22.2-9.3 21.7 11.1 44.6 29.9 51.8 39.9 15.3 102.9 10 102.9 66.1"/>
	<path id="Shape 2" class="s3" d="m71.7 84.7c0.6 1.4 1.9 2.3 3.3 2.4 1.5 0 2.7-0.7 3.2-2l14.6-38.2c0.6-1.6 0-3.4-1.5-4.4-1.4-1-3.3-0.9-4.5 0.2l-13.2 13.2-14.4-14.6c-1.3-1.2-3.2-1.5-4.5-0.6-1.4 0.8-1.9 2.6-1.1 4.2z"/>
</svg>