<svg version="1.2" xmlns="http://www.w3.org/2000/svg" viewBox="0 0 400 400" width="400" height="400">
	<title>vector path</title>
	<style>
		.s0 { fill: none;stroke: #d7d7d9;stroke-linejoin: round;stroke-width: 15;stroke-dasharray: 60,30 } 
		.s1 { fill: none;stroke: #d7d7d9;stroke-linecap: round;stroke-linejoin: round;stroke-width: 15 } 
		.s2 { fill: #9b7dcd;stroke: #9b7dcd;stroke-linecap: round;stroke-linejoin: round;stroke-width: 8 } 
	</style>
	<path id="Layer 6" class="s0" d="m54 124"/>
	<path id="Layer 4" fill-rule="evenodd" class="s1" d="m44.8 99.4c-12 0-21.8-10.2-21.8-22.7 0-12.6 9.8-22.7 21.8-22.7 12.1 0 21.9 10.1 21.9 22.7 0 12.5-9.8 22.7-21.9 22.7z"/>
	<path id="Shape 1" class="s0" d="m56.9 124.4c0.2 30.7 36.2 44.7 60.1 49.2 45.7 8.8 93.3 1.2 138.1 14.2 17.8 5.2 38 12.6 44.8 31.4 9.4 25.9-25.2 37.6-44.6 43.4-33.9 10.1-72.6 5.2-107.5 5.2-22.7 0-47.5-1.8-57.8 22.2-9.3 21.7 11.1 44.6 29.9 51.8 39.9 15.3 102.9 10 102.9 66.1"/>
	<path id="Layer 5" class="s2" d="m40.9 65c1.8 3 4.7 3 6.5 0l18.5-30.8c1.3-2.2 1.7-5.5 1-8.4-0.7-2.9-2.4-4.8-4.3-4.8h-37c-1.8 0-3.5 1.9-4.2 4.8-0.8 2.9-0.4 6.2 1 8.4 0 0 18.5 30.8 18.5 30.8z"/>
</svg>