<svg version="1.2" xmlns="http://www.w3.org/2000/svg" viewBox="0 0 1200 630" width="1200" height="630">
	<style>
		.s0 { fill: #5e5751 } 
		.s1 { fill: #b9ada4 } 
		.s2 { fill: #f7f7f0 } 
		.s3 { fill: #edb37e } 
		.s4 { fill: #f07e66 } 
	</style>
	<path class="s0" d="m523.86 52.34c42.61-3.08 67.65 23.44 72.7 64.85 3.9 31.97 3.63 72.97-16.23 99.88-10.53 14.28-25.04 20.22-42.29 22.53-46.88 2.01-68.53-22.12-74.77-68.19-4.17-30.75-2.16-70.66 16.43-96.62 11.12-15.54 25.96-19.94 44.16-22.45zm8.2 146.92c5.14-1.48 10.56-3.87 13.03-9.03 7.28-15.21 8.11-33.93 7.54-50.54-0.56-16.47-1.65-46.58-24.26-47.05-28.01 8.41-22.18 66.2-16.86 88.59 2.62 10.99 8.86 17.84 20.55 18.03z"/>
	<path class="s0" d="m817.59 52.36c17.29-1.34 35.52 1.64 49.68 12.27 10.25 7.66 17 19.11 18.75 31.78 2.82 19.76-5.65 34.31-17.03 49.47 2.99 2.39 5.97 4.92 8.61 7.64 24.38 25.17 11.57 64.36-17.98 78.72-10.18 4.95-17.05 5.93-28.28 7.38-25 1.36-50.36-3.88-65.89-25.23-18.66-25.67-9.15-57.19 15.37-74.89-8.83-8.83-14.85-16.88-16.41-29.69-1.51-13.38 2.34-26.82 10.72-37.36 10.83-13.75 25.79-18.16 42.46-20.09zm16.48 146.67c4.21-2.44 9.45-6.31 10.51-11.2 3.71-17.09-23.39-25.6-34.21-30.4-1.51 2.08-3.21 4.28-4.52 6.47-11.73 19.52 0.05 40.5 23.43 36.2q2.42-0.43 4.79-1.07zm-0.43-70.24c2.26 0.68 1.66 0.86 3.56 0.16 3.58-3.94 4.84-8.73 5.66-13.83 2.77-17.01-6.11-25.01-22.6-23.7q-0.46 0.03-0.91 0.08c-8.41 2.73-14.05 8.82-11.03 18.45 3.03 9.62 16.57 15.18 25.32 18.84z"/>
	<path class="s0" d="m673.15 55.2c16.11-0.75 37.92-0.06 54.47-0.04l0.01 101.1q10.65-0.2 21.29 0.2-0.12 18.2 0.16 36.4-10.76-0.14-21.53 0.05l0.04 43.88c-10.95 0.06-33.06 0.74-43.22-0.14-1.11-1.1-0.79-1.36-0.95-3.26l0.2-40.45c-26.55-0.48-54.09-0.14-80.72-0.14-0.07-9.06-0.19-18.02 0.09-27.08 23.73-36.32 46.25-74.48 70.16-110.52zm-22.32 100.82q16.41 0.28 32.81 0.09c-0.49-15.74 0.06-31.54 0.39-47.29 0.05-1.9 0.79-11.51 0.46-12.74-7.59 15.19-14.91 27.64-24.52 41.67-2.36 3.46-10.42 14.1-10.97 17.53l0.54 0.68z"/>
	<path class="s0" d="m378.88 52.39c11.74-1.16 23.59 0.52 34.55 4.89 12.92 5.29 24.63 14.77 30.1 27.87 3.75 8.98 4.81 18.86 4.08 28.52-3.81 50.36-61.64 53.71-74.45 85h77.47l-0.11 38.15-78.16-0.01-47.6 0.16c-0.26-1.37-0.41-2.61-0.57-3.94-5.25-43.25 10.77-65.41 45.4-89.08 9.42-6.67 19.86-12.37 27.17-21.49 6.83-8.52 6.19-18.67-3.03-25.12-4.36-3.06-9.75-4.26-15-3.33-10.49 1.9-18.18 10.91-23.94 19.16-8.95-5.13-24.36-16.1-33.02-22.11 12.82-23.28 30.53-35.87 57.11-38.67z"/>
	<path class="s1" d="m227.38 630l-0.09-202.13-0.08-66.75c-0.01-11.99-0.07-24.1 0.15-36.09 0.05-2.36 0.71-9.97 2.37-11.43 2.34-2.07 5.46-2.37 8.45-2.38 54.2-0.07 108.44-0.05 162.64-0.06l320.24-0.01 175.02 0.01h56.27c9.7 0 19.42-0.08 29.12 0.16 5.38 0.13 8.2 4.77 8.33 9.69 0.3 11.57 0.15 23.19 0.12 34.77l-0.09 66.61-0.08 207.61h-22.26-61.11-41.06-61.37-21.2-66.56-30.94-65.86-21.16-61.34-41.08-61.07-21.15-36.21-41.72-16.06-29.66-39.28z"/>
	<path class="s2" d="m805.34 520.31c8.36-1.52 18.43-1.31 27.07-1.41q19.97-0.19 39.95-0.17l54.15 0.05c12.07 0.04 28.01-0.79 39.52 1.97 2.18 0.52 1.46 34.21 1.46 39l-0.01 70.25h-61.1-41.06-61.37l0.01-63.44c-0.03-10.43-0.74-37.31 1.38-46.25z"/>
	<path class="s0" d="m864.63 583.42c5.75-6.23 10.85-9.83 19.27-9.82 25.42 0.05 26.27 22.09 10.1 36.51-3.87 3.46-8.32 7.52-12.04 10.79q12.23-0.05 24.45 0.22l-0.03 8.88h-41.06v-8.53c8.07-6.65 25.12-19.92 26.11-30.15 1.1-11.44-12.04-5.96-17.05-0.75-2.86-2.06-7.14-4.96-9.75-7.15z"/>
	<path class="s3" d="m620.26 520.79c4.07-1.3 8.59-2.02 12.87-2.02 45.81-0.01 91.64 0.15 137.45 0.2 2.95 0 8.13 0.68 10.72 1.83 2.82 6.32 1.49 96.57 1.45 109.2h-66.56-30.93-65.87l-0.06-65.62c0-12.18-0.25-31.77 0.93-43.59z"/>
	<path class="s2" d="m680.08 587.84c5.83-20.45 33.79-17.9 40.43-4.51 1.31 2.61 1.48 5.65 0.48 8.39-1.56 4.39-5.1 7.27-8.72 9.93 11.2 8.64 15.45 17.22 3.92 28.35h-30.94c-9.55-11.5-7.79-18.96 3.39-28.47-5.65-4.58-6.96-6.6-8.56-13.69z"/>
	<path class="s3" d="m700.37 606.38c9.12 4.2 15.18 13.21 1.69 17.14-15.78-2.58-10.39-9.95-1.69-17.14z"/>
	<path class="s3" d="m697.07 583.74q1.1-0.1 2.19-0.15c10.8-0.55 11.6 5.62 4.06 12.49-6.14 1.91-14.25-4.98-6.25-12.34z"/>
	<path class="s2" d="m434.74 630l-0.04-68.5c0-6.05-0.95-37.92 1.76-40.67 9.52-3.14 25.93-1.92 36.42-1.9l49-0.01h42.65c8.96 0.01 24.62-0.44 32.73 1.44 1.45 14.76 1.01 30.05 1.01 44.93l-0.04 64.71h-61.34-41.08z"/>
	<path class="s0" d="m495.18 583.43q1.41-1.5 2.85-2.97c7.97-8.21 24.57-9.54 33.05-1.39 2.81 2.65 4.43 6.33 4.49 10.19 0.19 13.18-13.97 24.05-23.06 31.7q12.21-0.17 24.43 0.16l-0.05 8.88h-41.08l-0.09-7.98c5.21-4.6 27.72-23.1 26.82-31.1-1.22-10.98-11.78-5.86-17.6-0.44z"/>
	<path class="s4" d="m251.46 520.3c11.45-1.38 22.37-1.07 33.86-1.06l41.87 0.04 49.95-0.02c7.78 0 29.27-1.07 35.19 2.28 2.77 7.89 1.24 94.08 1.26 108.46h-36.21-41.72-16.06-29.66-39.28q-0.57-37.13-0.21-74.26c0.15-11.24 0.05-24.37 1.01-35.44z"/>
	<path class="s2" d="m284.6 582.88c23.38-23.86 56.65 1.76 32.2 18.36 11.31 11.04 13.83 15.95 2.8 28.76h-29.66c-1.83-1.8-4.18-3.97-5.87-5.82 3.44-2.65 6.6-5.08 10.21-7.5 3.22 3.2 5.52 5.36 10.25 5.4 6.86 0.07 11.19-8.03 4.87-12.49-3.45-2.43-7.78-2.12-11.77-2.05l-0.01-10.81c3.53 0 18.21-0.41 11.89-9.86-3.17-4.75-11.06-0.12-14.97 3.03z"/>
	<path class="s2" d="m335.07 583.62c3.09-3.48 4.57-5.3 8.85-7.59 11.41-6.12 30.94-2.95 31.47 12.79 0.45 13.62-12.97 24.35-22.74 32.05q12.36-0.42 24.73-0.15v9.28h-41.72l-0.03-8.25c6.49-5.62 31.84-25.75 26.08-35.39-5.97-4.14-12.21-0.05-16.41 4.42-3.1-2.13-7.36-4.89-10.23-7.16z"/>
	<path class="s3" d="m813.96 333.68c32.72-1.11 65.89 0.04 98.63 0.28 15.43 0.12 30.79-0.25 46.21-0.25 3 0 8.12 1.26 8.36 4.93 0.69 6.48 0.5 13.08 0.5 19.59l-0.05 35.02 0.06 59.85c0.04 11.81 0.18 23.75-0.04 35.56-0.12 6.45-0.54 8.07-7.13 8.85l-95.66-0.06c-19.85 0.02-40.52 0.75-60.23-0.65-0.9-8.06-0.66-17.88-0.67-26.11l-0.01-38.01v-58.45c0-5.74-0.63-34.42 1.17-37.73 2.35-2.43 5.57-2.44 8.86-2.83z"/>
	<path class="s2" d="m883.75 388.18c18.68-1.8 31.44 14.12 13.06 28.3q1.75 1.17 3.44 2.4c3.75 2.75 6.39 6.56 7.05 11.23 0.51 3.89-0.59 7.83-3.04 10.9-4.06 5.17-9.21 6.33-15.25 7.1-21.29 2.75-35.82-15.92-15.76-31.53-15.66-11.38-7.42-26.36 10.5-28.4z"/>
	<path class="s3" d="m885.23 421.16c8.85 4.71 15.21 13.46 1.38 17.06-15.45-2.03-10.3-10.34-1.38-17.06z"/>
	<path class="s3" d="m881.67 398.5c4.15-0.12 10.1-0.21 11.52 4.59-0.09 3.48-2.02 4.92-4.42 7.34-6.51 2.99-14.91-3.79-7.1-11.93z"/>
	<path class="s3" d="m444.68 333.68c46.72-1.95 94.34 1.48 141.17 0.05 2.58-0.08 8.46 1.05 10.78 2.17 1.95 4 1.42 23.91 1.4 29.16l-0.11 41.49c-0.07 26.47 0.1 52.9 0.15 79.35 0.01 6.68 0.1 11.14-7.3 11.61l-94.77 0.02c-19.3 0.01-40.68 0.65-59.69-0.84-2.61-7.8-1.85-21.44-1.77-29.9l0.11-31.65c0.02-30.34-0.15-60.68 0.06-91.01 0.06-9.24 1.33-9.5 9.97-10.45z"/>
	<path class="s2" d="m514.44 388.18c6.89-0.82 15.48 1.56 19.73 7.37 1.99 2.67 2.82 6.03 2.3 9.32-0.94 5.67-4.62 8.54-8.94 11.6q0.8 0.52 1.58 1.05c4.33 2.94 7.75 6.45 8.71 11.85 0.7 3.86-0.21 7.83-2.52 11-4.25 5.87-9.8 6.93-16.32 7.92-7.56 0.1-15.91-0.84-21.17-6.97-2.53-2.9-3.76-6.72-3.4-10.56 0.63-6.66 4.7-10.35 9.49-14.2-11.06-8.13-11.15-20.63 2.23-26.66 2.42-1.09 5.64-1.39 8.31-1.72z"/>
	<path class="s3" d="m515.77 421.18c7.44 2.49 15.6 12.76 2.24 17.02-15.99-1.89-11.53-9.4-2.24-17.02z"/>
	<path class="s3" d="m512.47 398.51l0.71-0.03c9.94-0.34 15.24 4.43 5.77 12.26-8.7 1.48-13.57-5.16-6.48-12.23z"/>
	<path class="s2" d="m254.4 334.28c45.59-1.57 91.34 0.91 136.95-0.23 7.3-0.18 13.97-0.03 21.1 1.53 1.76 40.45 0.75 81.99 0.76 122.52 0 11.54 0.32 25.8-0.96 37.08-1.29 1.85-0.92 1.31-3.31 2.25-29.81 0.77-59.71-0.05-89.54 0.14-19.02 0.12-45.44 2.05-63.78-0.63-1.34-0.19-3.54-0.46-4.34-1.65-2.35-3.46-2.72-148.87-0.23-158.67 1.08-1.63 1.55-1.7 3.35-2.34z"/>
	<path class="s0" d="m335.5 389.74c3.56-0.18 8.52-0.01 12.18 0.02l0.19 37.38 7.14 0.13v10.19l-7.15 0.12 0.04 9.02-11.61-0.01 0.01-9.01c-9.42-0.44-19.11-0.34-28.55-0.36l-0.05-10.69c6.69-10.22 19.99-26.61 27.8-36.79z"/>
	<path class="s2" d="m335.47 407.16c1.53 3.55 0.91 15.46 0.83 19.93l-14.45 0.01-0.53-0.75c1.13-3.38 11.37-15.73 14.15-19.19z"/>
	<path class="s2" d="m625.19 334.25c23.74-0.93 53.79-0.12 77.82-0.17 13.92-0.03 68.93-1.29 79.15 2.02 1.52 34.27 0.05 69.65 0.62 104.07 0.14 8.47 0.86 49.46-1.02 55.04-1.72 1.89-1.29 1.35-3.96 2.23-19.21 0.02-151.15 1.28-156.75-1.46-2.37-4.01-1.71-30.1-1.7-36.24l0.08-60.85c0.03-17.5-0.13-35.03-0.15-52.53 0-2.62 0.37-7.7 1.57-10 0.93-1.79 2.36-1.67 4.34-2.11z"/>
	<path class="s0" d="m695.5 388.67c7.17-0.2 16.86 0.29 21.36 6.44 11.68 16-9.6 32.14-19.52 40.47l24.12 0.42-0.02 10.68h-24.47l-16.63 0.03 0.02-10.07c6.5-5.44 31.19-25.32 26.34-34.87-5.61-5.24-12.71-0.84-17.04 3.59l-9.86-7.11c5.91-6.34 7.39-7.41 15.7-9.58z"/>
</svg>