<svg version="1.2" xmlns="http://www.w3.org/2000/svg" viewBox="0 0 400 400" width="400" height="400">
	<style>
		.s0 { fill: #fffaec;stroke: #000000;stroke-miterlimit:100;stroke-width: 10 } 
		.s1 { fill: #38bd6d } 
		.s2 { fill: #342323 } 
		.s3 { fill: #e27272 } 
		.s4 { fill: #000000 } 
	</style>
	<path id="Background copy 3" fill-rule="evenodd" class="s0" d="m152.33 65.23l139.53-53.95c12.36-4.78 26.26 1.37 31.04 13.73l71.98 186.16c4.78 12.36-1.37 26.26-13.73 31.04l-139.53 53.95c-12.36 4.78-26.26-1.37-31.04-13.73l-71.98-186.16c-4.78-12.36 1.37-26.26 13.73-31.04z"/>
	<path id="" class="s1" d="m267.41 113.68c-5.82 2.33-8.65 8.91-6.33 14.73l0.34 0.85c0.82 2.06 2.19 3.84 3.94 5.19l5.38 4.09c0.31 0.23 0.42 0.45 0.46 0.65 0.05 0.22 0.03 0.49-0.1 0.76q-0.19 0.41-0.48 0.59c-0.16 0.1-0.41 0.18-0.79 0.11l-6.66-1.08c-2.2-0.36-4.43-0.11-6.49 0.71l-0.82 0.33c-5.83 2.31-8.66 8.89-6.33 14.72 1.11 2.78 3.29 5.01 6.04 6.21l0.29 0.12c0.81 0.35 1.2 1.31 0.85 2.13l-0.13 0.29c-1.17 2.76-1.21 5.88-0.1 8.66 2.32 5.83 8.9 8.65 14.72 6.33l0.85-0.33c2.06-0.83 3.84-2.19 5.19-3.95l4.09-5.37c0.23-0.31 0.45-0.42 0.65-0.46 0.22-0.05 0.48-0.04 0.75 0.1q0.42 0.19 0.59 0.48c0.11 0.15 0.19 0.4 0.12 0.79l-1.08 6.66c-0.36 2.19-0.11 4.42 0.71 6.48l0.34 0.85c2.32 5.8 8.91 8.65 14.73 6.33 2.78-1.11 5.01-3.3 6.21-6.05l0.12-0.28c0.35-0.82 1.31-1.21 2.13-0.85l0.29 0.12c2.76 1.19 5.88 1.22 8.66 0.11 5.81-2.32 8.65-8.91 6.33-14.73l-0.34-0.84c-0.82-2.07-2.19-3.85-3.94-5.2l-5.38-4.09c-0.31-0.23-0.42-0.45-0.46-0.65-0.05-0.22-0.03-0.48 0.1-0.76q0.19-0.41 0.48-0.59c0.16-0.1 0.41-0.18 0.79-0.11l6.66 1.08c2.2 0.36 4.43 0.11 6.49-0.71l0.84-0.34c5.8-2.31 8.65-8.91 6.32-14.73-1.11-2.78-3.29-5.01-6.04-6.21l-0.29-0.12c-0.81-0.35-1.2-1.32-0.85-2.13l0.13-0.29c1.18-2.76 1.21-5.88 0.1-8.67-2.31-5.8-8.9-8.65-14.72-6.32l-0.85 0.33c-2.06 0.82-3.84 2.19-5.19 3.95l-4.09 5.37c-0.23 0.31-0.45 0.42-0.65 0.46-0.22 0.05-0.48 0.03-0.75-0.1q-0.42-0.19-0.59-0.48c-0.11-0.16-0.19-0.4-0.12-0.79l1.08-6.66c0.36-2.2 0.11-4.43-0.71-6.49l-0.33-0.82c-2.34-5.82-8.93-8.65-14.75-6.32-2.78 1.11-5.01 3.29-6.21 6.04l-0.12 0.29c-0.35 0.81-1.31 1.2-2.13 0.85l-0.29-0.13c-2.75-1.17-5.88-1.22-8.66-0.11z"/>
	<path id="Background copy" fill-rule="evenodd" class="s0" d="m83.29 92.61l139.53-53.95c12.36-4.78 26.26 1.37 31.04 13.73l71.98 186.16c4.78 12.36-1.37 26.26-13.73 31.04l-139.53 53.95c-12.36 4.78-26.26-1.37-31.04-13.73l-71.98-186.16c-4.78-12.36 1.37-26.26 13.73-31.04z"/>
	<path id="Shape 1" fill-rule="evenodd" class="s2" d="m257.54 161.08c3.15 2.54 4.91 7.76 3.92 11.67l-13.65 54.15c-0.99 3.92-4.35 5.04-7.49 2.52l-43.56-34.94c-3.15-2.55-4.91-7.77-3.92-11.68l13.65-54.15c0.99-3.91 4.34-5.04 7.49-2.51zm-14.89-79.59c0.6 0.45 0.91 1.38 0.69 2.09l-2.98 9.85c-0.22 0.72-0.88 0.94-1.47 0.49l-8.29-6.1c-0.6-0.45-0.91-1.38-0.69-2.09l2.97-9.85c0.22-0.72 0.88-0.94 1.48-0.5z"/>
	<path id="Background copy 2" fill-rule="evenodd" class="s0" d="m19.01 117.61l139.53-53.95c12.36-4.78 26.26 1.36 31.04 13.73l71.98 186.15c4.78 12.37-1.37 26.26-13.73 31.04l-139.53 53.95c-12.36 4.78-26.26-1.36-31.04-13.73l-71.98-186.15c-4.78-12.37 1.37-26.26 13.73-31.04z"/>
	<path id="Layer 1" fill-rule="evenodd" class="s3" d="m95.91 212.1l-0.38-0.99c-4.59-11.9-1.05-24.92 8.35-30.8 6.23-3.89 14.05-3.99 21-0.3l2.56 1.36 0.98-2.72c2.67-7.41 8.53-12.58 15.76-13.89 10.92-1.96 22.28 5.32 26.87 17.22l0.38 0.99c2.73 7.07 2.8 14.8 0.17 21.35l-15.57 39.01c-0.64 1.62-1.85 2.85-3.37 3.43-1.52 0.59-3.23 0.49-4.8-0.28l-37.73-18.44c-6.35-3.09-11.49-8.88-14.22-15.94zm62.92-97.77l-0.07-0.21c-0.86-2.47-0.05-5.11 1.91-6.25 1.3-0.75 2.9-0.72 4.3 0.08l0.52 0.3 0.21-0.55c0.6-1.5 1.83-2.52 3.32-2.74 2.25-0.33 4.53 1.24 5.39 3.7l0.07 0.21c0.51 1.46 0.47 3.04-0.11 4.37l-3.45 7.88c-0.14 0.32-0.39 0.57-0.71 0.68-0.31 0.1-0.66 0.07-0.98-0.09l-7.6-4.03c-1.27-0.67-2.29-1.89-2.8-3.35z"/>
	<path id="A" class="s4" aria-label="A"  d="m162.1 93.5l-7.1-8.5-0.1 11.1zm-10.1 11.7l0.6-22.3 3-1.1 14.4 17-2.7 1-3.6-4.4-8.9 3.1v5.7z"/>
	<path id="A copy" class="s4" aria-label="A"  d="m232.3 63.8l-7-8.5-0.2 11zm-10 11.7l0.5-22.3 3-1 14.5 17-2.8 0.9-3.6-4.4-8.8 3.1v5.7z"/>
	<path id="A copy 2" class="s4" aria-label="A"  d="m300.2 36.4l-7.1-8.5-0.1 11zm-10.1 11.7l0.6-22.3 3-1 14.4 17-2.8 1-3.5-4.5-8.9 3.2v5.6z"/>
	<path id="Shape 2" class="s1" d="m300.4 49.62c-1.18 0.44-1.8 1.68-1.4 2.77l0.06 0.16q0.22 0.59 0.74 0.98l1.03 0.77q0.08 0.07 0.08 0.13 0.01 0.06-0.03 0.14-0.04 0.08-0.1 0.11-0.04 0.04-0.16 0.02l-1.31-0.2q-0.66-0.1-1.3 0.13l-0.17 0.06c-1.18 0.44-1.81 1.68-1.4 2.78 0.19 0.52 0.61 0.94 1.14 1.17l0.06 0.02c0.16 0.07 0.22 0.25 0.15 0.4l-0.03 0.06c-0.26 0.52-0.3 1.11-0.11 1.63 0.41 1.1 1.69 1.63 2.87 1.2l0.18-0.07q0.63-0.24 1.07-0.74l0.86-1.01q0.08-0.08 0.14-0.09 0.07-0.02 0.15 0.02 0.08 0.04 0.11 0.09 0.04 0.04 0.02 0.15l-0.28 1.25q-0.14 0.63 0.08 1.23l0.05 0.16c0.41 1.09 1.69 1.63 2.88 1.19 0.56-0.21 1.03-0.62 1.29-1.14l0.03-0.05c0.08-0.16 0.27-0.23 0.43-0.16l0.06 0.02c0.54 0.23 1.16 0.23 1.72 0.02 1.18-0.43 1.81-1.67 1.41-2.77l-0.06-0.16q-0.23-0.59-0.74-0.98l-1.03-0.77q-0.08-0.07-0.08-0.13-0.02-0.06 0.02-0.14 0.05-0.08 0.1-0.11 0.05-0.03 0.16-0.02l1.32 0.2q0.66 0.1 1.3-0.13l0.17-0.06c1.18-0.44 1.81-1.68 1.4-2.78-0.19-0.52-0.61-0.95-1.14-1.17l-0.06-0.02c-0.16-0.07-0.22-0.25-0.15-0.41l0.03-0.05c0.27-0.52 0.3-1.11 0.11-1.63-0.41-1.1-1.69-1.64-2.87-1.2l-0.18 0.06q-0.63 0.24-1.07 0.75l-0.86 1.01q-0.08 0.08-0.14 0.09-0.07 0.01-0.15-0.02-0.08-0.04-0.11-0.09-0.04-0.04-0.02-0.15l0.28-1.26q0.14-0.63-0.08-1.22l-0.05-0.16c-0.41-1.09-1.7-1.63-2.88-1.19-0.56 0.21-1.03 0.62-1.29 1.14l-0.03 0.05c-0.08 0.16-0.28 0.23-0.43 0.16l-0.06-0.02c-0.54-0.22-1.16-0.23-1.73-0.02z"/>
</svg>