<?xml version="1.0" encoding="utf-8" ?><svg xmlns="http://www.w3.org/2000/svg" xmlns:xlink="http://www.w3.org/1999/xlink" width="60" height="60" viewBox="0 0 60 60"><defs><linearGradient id="gradient_0" gradientUnits="userSpaceOnUse" x1="59.471989" y1="213.37805" x2="334.04822" y2="220.39542"><stop offset="0" stop-color="#FA758C"/><stop offset="1" stop-color="#F34EA9"/></linearGradient></defs><path fill="url(#gradient_0)" transform="scale(0.117187 0.117187)" d="M93.5448 279.18C59.8082 245.983 45.322 202.403 75.0426 160.996C121.237 96.636 228.556 88.6573 290.447 133.224C316.533 152.008 329.742 172.234 334.761 203.271C334.787 210.104 334.841 216.862 333.847 223.645C326.058 276.785 267.136 309.437 217.941 313.976C193.577 318.358 156.334 311.472 133.497 304.039C128.447 305.371 123.431 308.009 118.636 310.082C109.13 314.193 90.2951 323.468 80.5344 325.606C76.2516 326.544 72.7994 323.516 74.0289 319.257C76.8138 309.611 88.7074 289.27 93.5448 279.18Z"/><path fill="#FDCBBA" transform="scale(0.117187 0.117187)" d="M134.984 189.154C146.767 188.673 156.72 197.814 157.241 209.595C157.762 221.376 148.655 231.36 136.875 231.92C125.039 232.483 114.998 223.323 114.475 211.486C113.952 199.648 123.145 189.638 134.984 189.154Z"/><path fill="#FDCBBA" transform="scale(0.117187 0.117187)" d="M256.429 189.312C268.199 188.307 278.544 197.061 279.5 208.835C280.456 220.609 271.659 230.917 259.881 231.824C248.172 232.726 237.938 223.992 236.988 212.287C236.037 200.582 244.728 190.312 256.429 189.312Z"/><path fill="#FDCBBA" transform="scale(0.117187 0.117187)" d="M194.276 189.6C205.833 188.27 216.294 196.523 217.69 208.071C219.087 219.619 210.895 230.127 199.355 231.591C187.72 233.066 177.108 224.792 175.699 213.149C174.291 201.507 182.626 190.941 194.276 189.6Z"/><defs><linearGradient id="gradient_1" gradientUnits="userSpaceOnUse" x1="450.27631" y1="315.11328" x2="223.64023" y2="281.3877"><stop offset="0" stop-color="#5DA3F8"/><stop offset="1" stop-color="#4EBCF4"/></linearGradient></defs><path fill="url(#gradient_1)" transform="scale(0.117187 0.117187)" d="M334.761 203.271C364.348 204.89 397.443 216.737 419.91 235.839C461.348 271.071 464.123 325.317 422.144 360.92C425.997 369.822 430.405 378.807 433.596 387.96C442.222 403.37 435.197 411.949 422.144 401.854C419.3 401.112 412.527 396.909 409.5 395.31L394.34 387.322C391.112 385.624 387.784 384.023 384.695 382.082C341.27 395.861 296.757 395.239 257.341 369.247C238.424 356.772 222.559 336.463 217.941 313.976C267.136 309.437 326.058 276.785 333.847 223.645C334.841 216.862 334.787 210.104 334.761 203.271Z"/><path fill="#8285F8" transform="scale(0.117187 0.117187)" d="M433.596 387.96C442.222 403.37 435.197 411.949 422.144 401.854C424.991 401.54 432.088 409.143 435.453 403.747C435.027 401.505 436.116 401.48 437.024 399.829C438.388 397.351 434.082 390.725 433.246 388.071L433.596 387.96Z"/></svg>