<?xml version="1.0" encoding="utf-8" ?><svg xmlns="http://www.w3.org/2000/svg" xmlns:xlink="http://www.w3.org/1999/xlink" width="60" height="60" viewBox="0 0 60 60"><path fill="#FE703E" transform="matrix(0.117187 0 0 0.117187 0 -1.52588e-05)" d="M258.359 137.291C266.215 111.615 272.171 84.3221 298 70.6047C340.458 48.0559 390.055 88.3821 375.243 134.222C370.499 148.901 358.331 162.55 343.826 168.193C350.463 168.97 356.767 168.211 363.402 168.19L403.834 168.203C421.523 168.197 425.125 164.052 425.054 183.259L425.06 215.976C425.123 236.522 419.692 229.167 401.783 230.459L401.783 246.897L401.783 326.945L401.783 363.191L401.799 429.101C401.82 445.319 398.256 442.669 383.878 442.658L299.309 442.647C297.802 442.689 296.283 442.649 294.775 442.647L217.779 442.647L128.373 442.664C112.469 442.674 109.893 444.731 109.883 426.555L109.884 363.191C109.455 359.741 109.859 355.692 109.866 352.188L109.884 326.945C109.577 318.147 109.878 309.229 109.879 300.416L109.884 246.897C109.914 241.429 109.65 235.92 109.884 230.459C102.683 230.491 87.4565 233.4 87.2581 222.636C87.0485 211.27 85.8181 183.118 87.5747 172.594C88.5602 166.689 96.5028 168.168 100.747 168.183L173.326 168.193C138.481 160.999 123.257 115.652 144.859 86.6634C162.843 62.5292 196.992 56.8836 221.218 75.1181C236.847 86.8816 251.036 117.528 253.9 137.291C254.489 139.15 255.375 140.957 256.323 142.657C257.089 140.891 257.743 139.114 258.359 137.291ZM253.9 137.291C251.036 117.528 236.847 86.8816 221.218 75.1181C196.992 56.8836 162.843 62.5292 144.859 86.6634C123.257 115.652 138.481 160.999 173.326 168.193C182.204 169.026 197.649 169.4 206.834 168.724C210.421 168.618 214.197 168.52 217.779 168.724L217.779 230.459L217.779 230.459C222.487 230.715 227.223 230.464 231.937 230.459L283.494 230.46C287.217 230.463 291.074 230.754 294.775 230.459C294.19 235.465 294.789 240.82 294.775 245.878L294.737 320.17C294.726 322.266 294.403 324.909 294.775 326.945L295.715 326.945L401.783 326.945L401.783 246.897L401.783 230.459C419.692 229.167 425.123 236.522 425.06 215.976L425.054 183.259C425.125 164.052 421.523 168.197 403.834 168.203L363.402 168.19C356.767 168.211 350.463 168.97 343.826 168.193C358.331 162.55 370.499 148.901 375.243 134.222C390.055 88.3821 340.458 48.0559 298 70.6047C272.171 84.3221 266.215 111.615 258.359 137.291C257.743 139.114 257.089 140.891 256.323 142.657C255.375 140.957 254.489 139.15 253.9 137.291Z"/><path fill="#FD485E" transform="matrix(0.117187 0 0 0.117187 0 -1.52588e-05)" d="M258.359 137.291C266.215 111.615 272.171 84.3221 298 70.6047C340.458 48.0559 390.055 88.3821 375.243 134.222C370.499 148.901 358.331 162.55 343.826 168.193C350.463 168.97 356.767 168.211 363.402 168.19L403.834 168.203C421.523 168.197 425.125 164.052 425.054 183.259L425.06 215.976C425.123 236.522 419.692 229.167 401.783 230.459L401.783 246.897L401.783 326.945L295.715 326.945L294.775 326.945C294.403 324.909 294.726 322.266 294.737 320.17L294.775 245.878C294.789 240.82 294.19 235.465 294.775 230.459C291.074 230.754 287.217 230.463 283.494 230.46L231.937 230.459C227.223 230.464 222.487 230.715 217.779 230.459L217.779 230.459L217.779 168.724C214.197 168.52 210.421 168.618 206.834 168.724C197.649 169.4 182.204 169.026 173.326 168.193C138.481 160.999 123.257 115.652 144.859 86.6634C162.843 62.5292 196.992 56.8836 221.218 75.1181C236.847 86.8816 251.036 117.528 253.9 137.291C254.489 139.15 255.375 140.957 256.323 142.657C257.089 140.891 257.743 139.114 258.359 137.291ZM268.59 158.879C272.892 157.902 277.414 156.545 281.812 156.235C293.445 151.683 319.445 148.305 324.937 135.661C329.131 126.004 319.811 112.807 309.945 115.591C290.9 115.43 272.373 142.745 268.59 158.879ZM231.805 156.235C235.775 157.23 239.779 158.323 243.841 158.879C239.357 143.485 220.659 113.418 201.154 115.591C186.927 117.42 180.64 133.749 193.399 142.912C201.816 148.956 221.579 153.702 231.805 156.235Z"/><path fill="#0BE1BF" transform="matrix(0.117187 0 0 0.117187 0 -1.52588e-05)" d="M294.775 230.459C302.131 230.322 309.505 230.454 316.863 230.456L387.921 230.448C392.511 230.444 397.207 230.213 401.783 230.459L401.783 246.897L401.783 326.945L295.715 326.945L294.775 326.945C294.403 324.909 294.726 322.266 294.737 320.17L294.775 245.878C294.789 240.82 294.19 235.465 294.775 230.459L294.775 230.459Z"/><path fill="#03C4B8" transform="matrix(0.117187 0 0 0.117187 0 -1.52588e-05)" d="M294.775 230.459C302.131 230.322 309.505 230.454 316.863 230.456L387.921 230.448C392.511 230.444 397.207 230.213 401.783 230.459L401.783 246.897C393.508 247.167 385.144 246.9 376.857 246.9L327.1 246.897C318.921 246.892 310.634 246.463 302.475 246.897L302.475 326.945C300.223 326.87 297.962 326.735 295.715 326.945L294.775 326.945C294.403 324.909 294.726 322.266 294.737 320.17L294.775 245.878C294.789 240.82 294.19 235.465 294.775 230.459L294.775 230.459Z"/><path fill="#B265C3" transform="matrix(0.117187 0 0 0.117187 0 -1.52588e-05)" d="M343.826 168.193C350.463 168.97 356.767 168.211 363.402 168.19L403.834 168.203C421.523 168.197 425.125 164.052 425.054 183.259L425.06 215.976C425.123 236.522 419.692 229.167 401.783 230.459C397.207 230.213 392.511 230.444 387.921 230.448L316.863 230.456C309.505 230.454 302.131 230.322 294.775 230.459C296.078 225.031 295.721 219.284 295.721 213.736L295.717 196.608C295.713 187.363 296.13 177.945 295.715 168.724C298.431 168.495 301.142 168.53 303.858 168.724C312.598 169.797 335.711 169.085 343.826 168.193Z"/><path fill="#FECB3F" transform="matrix(0.117187 0 0 0.117187 0 -1.52588e-05)" d="M258.359 137.291C266.215 111.615 272.171 84.3221 298 70.6047C340.458 48.0559 390.055 88.3821 375.243 134.222C370.499 148.901 358.331 162.55 343.826 168.193C335.711 169.085 312.598 169.797 303.858 168.724C306.368 167.219 309.411 166.292 312.139 165.238C325.969 159.896 339.243 152.877 342.749 137.006C346.66 119.303 335.114 102.372 317.518 98.6687C296.623 94.272 276.851 110.111 265.746 126.325C263.79 129.181 261.272 135.745 258.359 137.291Z"/><path fill="#FECB3F" transform="matrix(0.117187 0 0 0.117187 0 -1.52588e-05)" d="M173.326 168.193C138.481 160.999 123.257 115.652 144.859 86.6634C162.843 62.5292 196.992 56.8836 221.218 75.1181C236.847 86.8816 251.036 117.528 253.9 137.291C250.742 135.928 240.112 109.262 215.639 100.513C191.299 91.8113 165.164 109.352 169.33 135.76C171.779 151.278 185.059 159.283 198.301 164.773C201.06 165.916 204.423 166.977 206.834 168.724C197.649 169.4 182.204 169.026 173.326 168.193Z"/><path fill="#FECB3F" transform="matrix(0.117187 0 0 0.117187 0 -1.52588e-05)" d="M217.779 168.724C243.001 169.378 270.488 169.216 295.715 168.724C296.13 177.945 295.713 187.363 295.717 196.608L295.721 213.736C295.721 219.284 296.078 225.031 294.775 230.459L294.775 230.459C291.074 230.754 287.217 230.463 283.494 230.46L231.937 230.459C227.223 230.464 222.487 230.715 217.779 230.459L217.779 230.459L217.779 168.724Z"/><path fill="#0BE1BF" transform="matrix(0.117187 0 0 0.117187 0 -1.52588e-05)" d="M109.884 230.459C102.683 230.491 87.4565 233.4 87.2581 222.636C87.0485 211.27 85.8181 183.118 87.5747 172.594C88.5602 166.689 96.5028 168.168 100.747 168.183L173.326 168.193C182.204 169.026 197.649 169.4 206.834 168.724C210.421 168.618 214.197 168.52 217.779 168.724L217.779 230.459L217.779 230.459C217.771 235.898 217.511 241.473 217.779 246.897L217.779 246.897L217.782 300.126C217.782 309.053 217.971 318.023 217.779 326.945L109.884 326.945C109.577 318.147 109.878 309.229 109.879 300.416L109.884 246.897C109.914 241.429 109.65 235.92 109.884 230.459Z"/><path fill="#B265C3" transform="matrix(0.117187 0 0 0.117187 0 -1.52588e-05)" d="M109.884 230.459C102.683 230.491 87.4565 233.4 87.2581 222.636C87.0485 211.27 85.8181 183.118 87.5747 172.594C88.5602 166.689 96.5028 168.168 100.747 168.183L173.326 168.193C182.204 169.026 197.649 169.4 206.834 168.724C210.421 168.618 214.197 168.52 217.779 168.724L217.779 230.459C209.253 230.306 200.701 230.457 192.172 230.459L120.169 230.447C116.822 230.433 113.18 229.977 109.884 230.459Z"/><path fill="#03C4B8" transform="matrix(0.117187 0 0 0.117187 0 -1.52588e-05)" d="M109.884 230.459C113.18 229.977 116.822 230.433 120.169 230.447L192.172 230.459C200.701 230.457 209.253 230.306 217.779 230.459L217.779 230.459C217.771 235.898 217.511 241.473 217.779 246.897L217.779 246.897C207.842 247.214 197.78 246.892 187.828 246.892L127.769 246.893C126.004 246.892 110.632 247.442 109.884 246.897C109.914 241.429 109.65 235.92 109.884 230.459Z"/><path fill="#0BE1BF" transform="matrix(0.117187 0 0 0.117187 0 -1.52588e-05)" d="M109.884 326.945L217.779 326.945C217.362 332.56 216.938 357.78 217.779 363.191C217.945 368.432 217.795 373.715 217.783 378.962L217.786 430.649C217.789 434.634 217.961 438.67 217.779 442.647L128.373 442.664C112.469 442.674 109.893 444.731 109.883 426.555L109.884 363.191C109.455 359.741 109.859 355.692 109.866 352.188L109.884 326.945Z"/><path fill="#FECB3F" transform="matrix(0.117187 0 0 0.117187 0 -1.52588e-05)" d="M109.884 326.945L217.779 326.945C217.362 332.56 216.938 357.78 217.779 363.191C215.321 362.973 212.787 363.164 210.319 363.176L121.595 363.184C117.796 363.173 113.611 362.6 109.884 363.191C109.455 359.741 109.859 355.692 109.866 352.188L109.884 326.945Z"/><path fill="#0BE1BF" transform="matrix(0.117187 0 0 0.117187 0 -1.52588e-05)" d="M294.775 326.945L295.715 326.945L401.783 326.945L401.783 363.191L401.799 429.101C401.82 445.319 398.256 442.669 383.878 442.658L299.309 442.647C297.802 442.689 296.283 442.649 294.775 442.647L294.775 363.191L294.775 326.945Z"/><path fill="#FECB3F" transform="matrix(0.117187 0 0 0.117187 0 -1.52588e-05)" d="M294.775 326.945L295.715 326.945L401.783 326.945L401.783 363.191L302.475 363.191C299.907 363.255 297.343 363.223 294.775 363.191L294.775 326.945Z"/><path fill="#03C4B8" transform="matrix(0.117187 0 0 0.117187 0 -1.52588e-05)" d="M294.775 363.191C297.343 363.223 299.907 363.255 302.475 363.191L302.475 442.647C301.503 442.584 300.221 442.325 299.309 442.647C297.802 442.689 296.283 442.649 294.775 442.647L294.775 363.191Z"/><path fill="#F57231" transform="matrix(0.117187 0 0 0.117187 0 -1.52588e-05)" d="M217.779 230.459C222.487 230.715 227.223 230.464 231.937 230.459L283.494 230.46C287.217 230.463 291.074 230.754 294.775 230.459C294.19 235.465 294.789 240.82 294.775 245.878C290.908 247.562 241.366 246.97 233.067 246.934C231.306 246.926 218.255 247.054 217.779 246.897C217.511 241.473 217.771 235.898 217.779 230.459Z"/></svg>