<svg version="1.2" xmlns="http://www.w3.org/2000/svg" viewBox="0 0 400 400" width="400" height="400">
	<title>New Project</title>
	<style>
		.s0 { fill: none;stroke: #ffffff;stroke-miterlimit:100;stroke-width: 22 } 
		.s1 { fill: #ffffff } 
	</style>
	<path id="Layer 1" class="s0" d="m144.7 99.8l155.1-43.3c17-4.7 34.7 5.2 39.4 22.2l43.3 155.1c4.7 17-5.2 34.7-22.2 39.4l-155.1 43.3c-17 4.7-34.7-5.2-39.4-22.2l-43.3-155.1c-4.7-17 5.2-34.7 22.2-39.4zm0 0l155.1-43.3c17-4.7 34.7 5.2 39.4 22.2l43.3 155.1c4.7 17-5.2 34.7-22.2 39.4l-155.1 43.3c-17 4.7-34.7-5.2-39.4-22.2l-43.3-155.1c-4.7-17 5.2-34.7 22.2-39.4z"/>
	<path id="Layer 1 copy" class="s0" d="m80.4 201.6l54.1 18.3c16.7 5.6 25.7 23.8 20.1 40.5l-18.3 54.1c-5.7 16.7-23.8 25.7-40.6 20.1l-54-18.3c-16.8-5.7-25.8-23.8-20.1-40.6l18.3-54c5.6-16.8 23.8-25.8 40.5-20.1zm0 0l54.1 18.3c16.7 5.6 25.7 23.8 20.1 40.5l-18.3 54.1c-5.7 16.7-23.8 25.7-40.6 20.1l-54-18.3c-16.8-5.7-25.8-23.8-20.1-40.6l18.3-54c5.6-16.8 23.8-25.8 40.5-20.1z"/>
	<path id="A" class="s1" aria-label="A"  d="m311.7 241.3l18.4-5.2-85.6-120-20.2 5.7-11.3 147 18.5-5.1 2.5-32.9 58.5-16.4zm-28.1-39.7l-48.5 13.6 5.3-74.6z"/>
	<path id="B" class="s1" aria-label="B"  d="m95 283.1c-2.1 6.5-8.1 8.9-15.8 6.3l-13.9-4.5 6.9-21.2 13.6 4.5c7.7 2.5 11.4 8.2 9.2 14.9zm7.2-27.5c-2 6.1-7.4 8.4-14.7 6l-13.2-4.3 6.4-19.5 13 4.3c7.7 2.5 10.5 7.6 8.5 13.5zm0.4 30.8c2.4-7.4-0.9-15.4-7.1-18.7 6.4 0 12.6-2.8 15.1-10.4 2.7-8.4-1.4-17.4-14.1-21.5l-21.5-7-19.6 60 22.4 7.3c12.4 4.1 21.8-0.6 24.8-9.7z"/>
</svg>