<?xml version="1.0" encoding="utf-8" ?><svg xmlns="http://www.w3.org/2000/svg" xmlns:xlink="http://www.w3.org/1999/xlink" width="30" height="30" viewBox="0 0 30 30"><defs><linearGradient id="gradient_0" gradientUnits="userSpaceOnUse" x1="82.067688" y1="232.53723" x2="362.93155" y2="247.86308"><stop offset="0" stop-color="#FB9806"/><stop offset="1" stop-color="#FED00D"/></linearGradient></defs><path fill="url(#gradient_0)" transform="scale(0.0585937 0.0585937)" d="M89.2487 409.257L89.2031 406.164L89.2427 103.637C89.2379 99.1473 89.0399 94.5495 89.5618 90.0855C92.1089 68.2989 116.694 71.7856 131.93 71.7971L328.471 71.7848C350.257 71.7586 360.078 76.7073 360.06 99.8488L360.039 112.255L374.799 112.255L394.424 112.237C402.497 112.233 411.429 110.926 417.685 117.155C425.982 125.417 423.251 144.861 423.249 155.864L423.403 362.293C423.391 363.683 423.422 365.144 423.244 366.521C423.284 382.068 423.024 395.075 414.606 408.845C402.363 428.872 377.258 441.965 353.673 438.39C351.964 438.812 337.745 438.73 335.854 438.39C332.443 438.68 329.038 438.453 325.621 438.414L159.439 438.387C143.147 438.388 126.808 438.656 110.521 438.39C93.8202 438.117 88.8603 423.497 89.2487 409.257ZM315.761 423.193C320.169 426.284 324.415 429.498 329.023 432.302C330.816 434.318 335.011 437.169 335.854 438.39C337.745 438.73 351.964 438.812 353.673 438.39C377.258 441.965 402.363 428.872 414.606 408.845C423.024 395.075 423.284 382.068 423.244 366.521C422.489 365.483 422.371 364.019 422.116 362.781C416.843 337.157 399.117 320.145 374.065 312.916C369.472 311.973 364.718 311.639 360.039 311.565C323.713 311.362 296.48 342.753 296.469 378.129C296.468 383.065 297.378 387.7 297.833 392.575C299.682 398.074 301.434 403.376 304.274 408.476C307.681 413.891 311.666 418.321 315.761 423.193ZM248.375 81.2181C253.837 79.0704 259.157 76.6115 264.606 74.4471C240.901 74.0994 217.134 74.4545 193.421 74.4504L168.627 74.4312C164.782 74.4246 160.698 74.1016 156.884 74.4471C152.675 74.631 156.307 75.3678 158.067 76.1934C167.099 80.4298 190.212 91.4609 199.653 93.8047C215.555 97.7522 233.28 86.9095 248.375 81.2181Z"/><path fill="#44C5F1" transform="scale(0.0585937 0.0585937)" d="M360.039 112.255L374.799 112.255L394.424 112.237C402.497 112.233 411.429 110.926 417.685 117.155C425.982 125.417 423.251 144.861 423.249 155.864L423.403 362.293C423.391 363.683 423.422 365.144 423.244 366.521C422.489 365.483 422.371 364.019 422.116 362.781C416.843 337.157 399.117 320.145 374.065 312.916C369.472 311.973 364.718 311.639 360.039 311.565L360.039 112.255Z"/><path fill="#14ACE9" transform="scale(0.0585937 0.0585937)" d="M360.039 112.255L374.799 112.255L374.824 305.042C374.831 306.344 375.539 312.804 374.065 312.916C369.472 311.973 364.718 311.639 360.039 311.565L360.039 112.255Z"/><path fill="#E45A74" transform="scale(0.0585937 0.0585937)" d="M297.833 392.575C297.378 387.7 296.468 383.065 296.469 378.129C296.48 342.753 323.713 311.362 360.039 311.565C364.718 311.639 369.472 311.973 374.065 312.916C399.117 320.145 416.843 337.157 422.116 362.781C422.371 364.019 422.489 365.483 423.244 366.521C423.284 382.068 423.024 395.075 414.606 408.845C402.363 428.872 377.258 441.965 353.673 438.39C351.964 438.812 337.745 438.73 335.854 438.39C335.011 437.169 330.816 434.318 329.023 432.302C324.415 429.498 320.169 426.284 315.761 423.193C311.666 418.321 307.681 413.891 304.274 408.476C301.434 403.376 299.682 398.074 297.833 392.575ZM335.854 347.358C337.521 351.627 339.84 359.023 344.373 360.969C348.767 358.895 353.173 356.623 357.759 355.004L357.759 408.476C343.089 408.183 342.542 405.267 342.723 420.563C343.447 426.39 360.4 423.758 365.5 423.771C370.942 423.786 378.221 425.294 383.347 423.053C384.534 421.037 384.728 412.957 384.071 410.628C383.075 407.097 377.415 408.293 374.799 408.476L374.775 408.127C374.448 402.874 374.799 397.426 374.804 392.146L374.81 358.219C374.805 344.438 379.154 333.555 361.135 337.215C356.085 337.998 340.48 344.586 335.854 347.358Z"/><path fill="#0B7ECC" transform="scale(0.0585937 0.0585937)" d="M329.023 432.302C339.11 436.314 344.775 437.573 355.54 438.39L355.802 438.298C355.095 438.322 354.378 438.325 353.673 438.39C351.964 438.812 337.745 438.73 335.854 438.39C335.011 437.169 330.816 434.318 329.023 432.302Z"/><path fill="#14ACE9" transform="scale(0.0585937 0.0585937)" d="M297.833 392.575C299.682 398.074 301.434 403.376 304.274 408.476C307.681 413.891 311.666 418.321 315.761 423.193C320.169 426.284 324.415 429.498 329.023 432.302C330.816 434.318 335.011 437.169 335.854 438.39C332.443 438.68 329.038 438.453 325.621 438.414L159.439 438.387C143.147 438.388 126.808 438.656 110.521 438.39C93.8202 438.117 88.8603 423.497 89.2487 409.257C92.0036 405.338 92.6729 402.358 96.5495 398.822C106.424 389.816 124.432 392.569 136.774 392.567L285.463 392.572C289.585 392.569 293.715 392.381 297.833 392.575Z"/><path fill="#47EFFA" transform="scale(0.0585937 0.0585937)" d="M315.761 423.193L134.413 423.193C129.337 423.194 110.587 424.647 107.021 421.683C102.083 417.578 103.774 409.194 110.358 408.469C114.8 407.98 119.718 408.459 124.219 408.465L288.781 408.48C293.786 408.483 298.996 408.848 303.974 408.5L304.274 408.476C307.681 413.891 311.666 418.321 315.761 423.193Z"/><path fill="#E45A74" transform="scale(0.0585937 0.0585937)" d="M275.095 167.735L295.378 167.714C298.503 167.682 301.867 167.18 304.955 167.681C313.248 169.025 313.557 182.648 305.382 183.798C301.905 184.287 298.274 184.071 294.768 184.07L221.188 184.061L202.188 184.075C198.416 184.076 190.805 185.157 187.678 182.428C182.847 178.211 183.926 168.871 190.854 167.966C194.206 167.529 197.777 167.733 201.155 167.732L275.095 167.735Z"/><path fill="#E45A74" transform="scale(0.0585937 0.0585937)" d="M193.051 134.834L292.056 134.829C296.331 134.819 300.83 134.512 305.079 134.945C313.872 135.842 314.313 150.414 303.507 151.003C297.231 151.327 290.767 151.009 284.474 151.008L210.594 151.008C205.734 151.009 191.132 152.45 187.372 149.373C181.565 144.623 184.033 135.566 193.051 134.834Z"/></svg>