<?xml version="1.0" encoding="utf-8" ?><svg xmlns="http://www.w3.org/2000/svg" xmlns:xlink="http://www.w3.org/1999/xlink" width="60" height="60" viewBox="0 0 60 60"><defs><linearGradient id="gradient_0" gradientUnits="userSpaceOnUse" x1="237.53558" y1="142.24129" x2="260.27505" y2="235.09137"><stop offset="0" stop-color="#FDA732"/><stop offset="1" stop-color="#FE5A66"/></linearGradient></defs><path fill="url(#gradient_0)" transform="scale(0.117187 0.117187)" d="M174.898 266.069C175.393 256.449 173.176 249.145 171.805 239.911C165.758 199.186 196.149 151.587 236.676 142.082C262.922 135.925 290.971 144.214 310.76 162.264C331.121 180.835 340.998 209.033 344.49 235.854C345.076 240.351 345.409 244.903 346.434 249.327C346.085 253.107 346.295 256.866 346.372 260.653C346.61 272.353 345.523 307.163 341.339 317.941C338.944 324.108 328.505 322.949 328.596 315.935C328.663 310.772 330.195 305.535 331 300.445C332.981 287.918 333.677 275.151 333.495 262.475C333.451 259.353 332.681 254.999 333.512 252.015C328.687 219.035 325.072 189.156 295.522 167.12C242.694 127.724 175.883 180.792 185.002 241.005C186.512 250.977 190.609 261.959 187.597 271.993C185.875 291.531 168.007 318.674 155.81 333.081C152.298 337.23 144.993 348.048 139.119 340.523C133.718 333.603 143.745 327.434 147.468 322.552C160.123 305.957 172.404 287.254 174.898 266.069Z"/><path fill="#FA4A78" transform="scale(0.117187 0.117187)" d="M174.898 266.069L175.154 266.67C178.292 257.207 168.575 234.016 172.083 219.811L172.351 220.861C174.245 221.645 183.14 222.495 184.442 220.599C183.826 226.646 183.48 233.404 184.278 239.425C186.113 253.278 189.286 257.061 187.321 271.679L187.597 271.993C185.875 291.531 168.007 318.674 155.81 333.081C152.298 337.23 144.993 348.048 139.119 340.523C133.718 333.603 143.745 327.434 147.468 322.552C160.123 305.957 172.404 287.254 174.898 266.069Z"/><path fill="#FA4A78" transform="scale(0.117187 0.117187)" d="M333.512 252.015C333.987 246.125 331.513 232.495 330.202 226.222C329.933 224.935 327.295 217.174 329.007 217.588C329.26 217.65 339.612 215.702 339.71 215.653L339.893 214.771C340.592 218.479 341.637 221.984 342.318 225.713C343.855 234.131 344.305 243.209 345.896 251.169L346.112 251.07L346.434 249.327C346.085 253.107 346.295 256.866 346.372 260.653C346.61 272.353 345.523 307.163 341.339 317.941C338.944 324.108 328.505 322.949 328.596 315.935C328.663 310.772 330.195 305.535 331 300.445C332.981 287.918 333.677 275.151 333.495 262.475C333.451 259.353 332.681 254.999 333.512 252.015Z"/><path fill="#F22F94" transform="scale(0.117187 0.117187)" d="M264.397 395.128C292.417 349.874 312.439 301.255 306.202 246.595C305.682 242.041 303.209 232.693 309.91 231.259C315.4 230.084 317.736 233.887 318.547 238.731C326.702 287.419 311.408 340.054 287.504 382.453C284.556 387.681 279.77 397.472 275.871 401.592C270.188 412.639 255.183 430.381 246.804 440.209C242.658 445.072 238.723 451.361 232.167 452.893C218.901 449.09 231.021 438.29 235.449 433.34C246.187 421.334 255.107 408.251 264.397 395.128Z"/><path fill="#B116DA" transform="scale(0.117187 0.117187)" d="M264.397 395.128L264.535 395.572C262.446 399.65 257.255 406.273 254.423 410.299C256.814 411.946 258.506 413.621 260.301 413.181C260.66 413.093 264.891 413.904 264.665 416.076C267.56 415.189 273.089 402.302 275.871 401.592C270.188 412.639 255.183 430.381 246.804 440.209C242.658 445.072 238.723 451.361 232.167 452.893C218.901 449.09 231.021 438.29 235.449 433.34C246.187 421.334 255.107 408.251 264.397 395.128Z"/><path fill="#F22F94" transform="scale(0.117187 0.117187)" d="M355.019 217.789C355.871 213.22 351.191 207.172 352.087 203.834C354.069 207.562 359.191 204.141 362.104 203.19L363.07 201.946L363.449 203.157C367.967 204.921 365.26 213.877 368.514 217.789C380.609 268.739 370.274 332.699 349.57 379.926C348.592 382.158 347.743 384.491 346.434 386.556C345.783 392.382 320.303 433.32 315.322 435.377C312.026 436.737 308.088 434.777 306.995 431.443C305.258 426.148 315.794 414.751 318.575 410.371C325.625 399.264 331.477 388.133 337.165 376.288C338.429 372.358 340.473 368.475 341.939 364.581C357.979 321.959 366.565 262.874 355.019 217.789Z"/><path fill="#B116DA" transform="scale(0.117187 0.117187)" d="M337.165 376.288C338.419 379.095 329.31 391.573 327.927 396.204C332.318 401.278 334.186 396.728 336.144 404.567C338.425 401.873 345.201 386.704 346.434 386.556C345.783 392.382 320.303 433.32 315.322 435.377C312.026 436.737 308.088 434.777 306.995 431.443C305.258 426.148 315.794 414.751 318.575 410.371C325.625 399.264 331.477 388.133 337.165 376.288Z"/><path fill="#FECF0C" transform="scale(0.117187 0.117187)" d="M160.245 125.876C163.648 123.046 166.686 119.728 170.061 116.832C201.476 89.8829 246.23 75.5174 286.832 87.3427C303.949 91.0624 337.917 108.748 348.368 123.051C348.584 125.007 351.116 125.714 351.272 127.778C348.945 126.403 350.134 130.264 347.516 132.232C345.058 134.079 348.237 136.967 343.124 134.638L342.986 134.872L343.141 135.076C345.534 138.267 341.063 133.068 339.972 132.644L339.565 132.808C324.264 118.64 308.082 107.841 287.627 102.153C266.576 95.2711 258.552 99.198 240.022 98.18C236.721 99.6727 232.768 99.8053 229.25 100.552C208.793 104.899 190.756 116.433 175.439 130.355C172.358 133.155 168.47 137.925 165.474 140.188L164.852 140.67L164.369 140.617L164.198 140.95L164.165 140.957C164.359 140.302 164.476 139.707 164.309 139.029C163.867 137.235 166.476 136.74 164.084 131.718C162.243 131.026 160.29 129.328 158.259 129.526C158.219 128.121 160.696 127.593 160.245 125.876Z"/><path fill="#FDB122" transform="scale(0.117187 0.117187)" d="M252.864 94.564C254.194 90.4614 255.084 93.2608 253.658 90.0033C254.832 87.2346 258.08 86.5256 257.216 84.253C259.133 81.5407 283.761 88.2266 286.832 87.3427C303.949 91.0624 337.917 108.748 348.368 123.051C348.584 125.007 351.116 125.714 351.272 127.778C348.945 126.403 350.134 130.264 347.516 132.232C345.058 134.079 348.237 136.967 343.124 134.638L342.986 134.872L343.141 135.076C345.534 138.267 341.063 133.068 339.972 132.644L339.565 132.808C324.264 118.64 308.082 107.841 287.627 102.153C266.576 95.2711 258.552 99.198 240.022 98.18C240.148 97.7734 240.03 97.9823 240.487 97.6317C245.568 98.41 253.937 96.8555 259.595 96.936C257.742 95.8167 254.136 98.1533 255.027 95.3121L255.148 94.9365C254.488 94.5735 253.614 94.6177 252.864 94.564Z"/><path fill="#FCC50A" transform="scale(0.117187 0.117187)" d="M259.595 96.936C260.958 96.9596 261.974 97.4742 263.177 96.5718C265.431 94.8808 269.654 93.4565 268.064 97.6038C268.879 97.8283 269.125 97.3971 269.871 97.3613C273.211 97.2008 284.778 101.474 288.591 101.707L288.666 101.949L287.627 102.153C266.576 95.2711 258.552 99.198 240.022 98.18C240.148 97.7734 240.03 97.9823 240.487 97.6317C245.568 98.41 253.937 96.8555 259.595 96.936Z"/><path fill="#F22F94" transform="scale(0.117187 0.117187)" d="M280.996 252.015C281.415 245.73 276.414 226.438 273.609 220.76C272.483 218.48 270.918 216.409 269.623 214.218L270.582 214.509L270.8 214.261C268.24 211.62 275.887 212.998 277.283 211.207C272.961 209.606 278.942 210.464 280.094 208.851L280.34 208.879L280.574 209.435L280.202 210.115L281.34 210.32C290.482 224.871 289.628 233.829 293.45 249.831L293.99 249.979C294.675 307.493 281.184 346.409 247.181 394.304C244.411 398.205 239.793 406.602 234.191 401.044C232.732 399.595 232.38 398.297 232.167 396.317C232.726 391.461 240.457 382.172 243.42 377.346C264.111 343.64 278.521 311.265 280.77 271.152C281.123 264.848 280.397 258.076 280.996 252.015Z"/><path fill="#F22F94" transform="scale(0.117187 0.117187)" d="M228.504 249.327C228.905 246.944 225.726 235.094 225.444 231.15C225.031 225.36 229.447 206.841 236.04 206.569C235.769 207.418 235.593 208.926 235.913 209.761L236.919 210.151C236.995 212.399 237.445 212.82 238.663 214.608C241.181 218.305 236.774 224.168 237.732 230.863C238.236 234.393 239.821 243.815 242.057 246.342L242.012 246.839C241.69 250.63 242.14 254.451 242.144 258.251C242.191 301.598 219.963 341.681 191.462 373.078C188.073 376.811 178.252 390.163 172.704 389.807C169.158 389.58 166.955 385.882 167.226 382.583C167.509 379.144 174.979 372.944 177.252 370.447C204.387 340.624 229.958 301.112 228.541 259.253C228.437 256.176 227.809 252.329 228.504 249.327Z"/><defs><linearGradient id="gradient_1" gradientUnits="userSpaceOnUse" x1="227.48288" y1="46.289009" x2="283.74817" y2="131.42578"><stop offset="0" stop-color="#FEE405"/><stop offset="1" stop-color="#FFA026"/></linearGradient></defs><path fill="url(#gradient_1)" transform="scale(0.117187 0.117187)" d="M247.416 55.7493C277.626 54.2354 308.383 62.4337 333.822 78.8046C338.375 81.7349 350.323 88.3247 340.914 94.5713C336.903 97.2343 331.842 92.5958 328.452 90.491C302.615 74.4529 291.225 74.2798 264.397 69.2682C234.93 70.717 221.924 70.6608 193.359 84.9031C187.172 87.9879 179.593 94.2202 173.466 95.6327C168.885 94.2751 165.081 89.6313 168.87 85.0506C171.176 82.2622 175.42 80.1669 178.465 78.2345C199.619 64.8075 222.707 57.9813 247.416 55.7493Z"/><defs><linearGradient id="gradient_2" gradientUnits="userSpaceOnUse" x1="247.6868" y1="168.85712" x2="258.31702" y2="249.55603"><stop offset="0" stop-color="#FD8E4A"/><stop offset="1" stop-color="#FD5168"/></linearGradient></defs><path fill="url(#gradient_2)" transform="scale(0.117187 0.117187)" d="M252.033 168.125C278.402 167.113 297.484 181.734 308.751 204.837C316.306 220.328 304.586 222.13 301.002 218.051C298.837 215.586 297.916 211.639 296.567 208.666C289.168 192.358 270.907 180.331 252.907 181.829C244.155 182.557 234.319 185.741 228.504 192.678C215.659 200.486 209.586 223.128 211.742 236.86C212.513 241.772 216.625 249.53 213.318 254.02C211.319 256.734 206.599 257.977 203.916 255.594C200.527 252.585 198.462 238.333 198.174 233.63C196.279 202.654 219.794 169.964 252.033 168.125Z"/><defs><linearGradient id="gradient_3" gradientUnits="userSpaceOnUse" x1="145.17354" y1="128.15604" x2="134.15149" y2="269.98065"><stop offset="0" stop-color="#FFCC12"/><stop offset="1" stop-color="#FC6963"/></linearGradient></defs><path fill="url(#gradient_3)" transform="scale(0.117187 0.117187)" d="M160.245 125.876C160.696 127.593 158.219 128.121 158.259 129.526C160.29 129.328 162.243 131.026 164.084 131.718C166.476 136.74 163.867 137.235 164.309 139.029C164.476 139.707 164.359 140.302 164.165 140.957L164.198 140.95L164.369 140.617L164.852 140.67L165.474 140.188C162.335 144.825 158.436 148.986 155.256 153.644C135.386 182.752 125.658 220.321 130.807 255.383C131.213 258.145 132.004 261.358 131.778 264.156C131.378 269.125 125.126 271.642 121.405 268.407C114.871 262.726 116.129 231.416 116.89 223.143C120.738 181.278 134.711 156.618 160.245 125.876Z"/><path fill="#D818BC" transform="scale(0.117187 0.117187)" d="M282.649 418.128C296.581 396.786 308.301 378.61 317.453 354.115C318.995 349.986 320.406 342.425 325.503 341.319C328.798 340.605 332.63 342.428 333.164 345.967C334.501 354.831 305.819 412.664 294.709 423.1C290.618 429.664 275.441 451.024 268.115 452.893C264.643 451.965 259.955 448.476 262.287 444.374C265.929 437.965 277.563 425.027 282.649 418.128Z"/><path fill="#B116DA" transform="scale(0.117187 0.117187)" d="M282.649 418.128L282.793 418.574C279.535 425.577 273.961 422.988 287.649 429.24C290.372 433.665 290.048 424.601 294.709 423.1C290.618 429.664 275.441 451.024 268.115 452.893C264.643 451.965 259.955 448.476 262.287 444.374C265.929 437.965 277.563 425.027 282.649 418.128Z"/><path fill="#F22F94" transform="scale(0.117187 0.117187)" d="M258.313 235.581C262.641 235.822 264.483 238.277 265.4 242.398C272.371 273.695 263.481 309.592 249.517 337.809C246.862 343.172 244.246 352.616 237.55 353.999C225.26 353.381 231.621 342.638 234.698 337.009C248.965 310.92 256.657 280.894 254.158 251.119C253.674 245.356 249.801 237.105 258.313 235.581Z"/><path fill="#FD6F53" transform="scale(0.117187 0.117187)" d="M348.368 123.051C375.628 145.839 392.637 191.218 395.722 225.377C396.106 229.621 394.493 234.515 389.44 234.611C382.206 234.748 382.757 222.934 382.128 218.236C377.632 184.667 362.257 157.101 339.565 132.808L339.972 132.644C341.063 133.068 345.534 138.267 343.141 135.076L342.986 134.872L343.124 134.638C348.237 136.967 345.058 134.079 347.516 132.232C350.134 130.264 348.945 126.403 351.272 127.778C351.116 125.714 348.584 125.007 348.368 123.051Z"/><path fill="#F22F94" transform="scale(0.117187 0.117187)" d="M204.761 278.58C219.877 277.6 204.928 305.334 202.366 310.619C197.07 321.54 168.96 365.251 157.247 369.304C152.669 369.074 148.391 364.417 150.889 359.84C152.527 356.84 158.947 351.364 161.809 347.975C175.011 332.345 188.806 313.601 195.244 293.903C197.193 287.937 197.284 279.805 204.761 278.58Z"/><path fill="#FA4A78" transform="scale(0.117187 0.117187)" d="M143.747 223.943C147.911 225.67 154.295 222.552 155.797 223.1C157.532 223.734 156.218 223.383 157.247 221.626C157.385 227.754 156.998 233.891 157.596 240.001C159.986 264.385 164.214 271.936 148.992 296.54C146.338 300.829 140.425 312.783 134.509 312.926C130.782 313.017 127.591 309.547 127.694 305.883C127.795 302.296 131.553 298.622 133.54 295.915C151.104 271.989 146.671 267.545 144.066 240.989C143.51 235.321 143.784 229.627 143.747 223.943Z"/><path fill="#FD6F53" transform="scale(0.117187 0.117187)" d="M355.019 217.789C348.825 190.216 336.144 165.577 314.725 146.992C311.883 144.526 307.136 142.535 305.219 139.308C301.496 133.036 308.286 125.909 316.031 131.522C343.691 151.568 363.344 183.519 368.457 217.396L368.514 217.789C365.26 213.877 367.967 204.921 363.449 203.157L363.07 201.946L362.104 203.19C359.191 204.141 354.069 207.562 352.087 203.834C351.191 207.172 355.871 213.22 355.019 217.789Z"/><path fill="#FE9A39" transform="scale(0.117187 0.117187)" d="M143.747 223.943C147.295 199.527 154.287 175.868 170.152 156.39C173.378 152.43 181.909 141.58 186.947 150.003C189.801 154.775 185.825 158.4 182.973 161.829C163.857 184.815 164.012 196.344 157.247 221.626C156.218 223.383 157.532 223.734 155.797 223.1C154.295 222.552 147.911 225.67 143.747 223.943Z"/><path fill="#FDB122" transform="scale(0.117187 0.117187)" d="M250.633 111.253C257.622 111.032 271.339 110.721 277.415 113.835C283.468 116.937 282.562 126.575 275.589 127.454C273.047 127.775 266.894 126.459 263.935 126.218C252.135 125.256 241.234 126.094 229.794 129.187C226.411 130.209 223.061 131.451 219.84 132.911C214.498 135.332 205.723 140.337 204.22 130.301C202.473 118.637 243.101 111.917 250.633 111.253Z"/><path fill="#D818BC" transform="scale(0.117187 0.117187)" d="M215.818 369.304C220.759 369.031 225.583 372.65 223.23 378.094C220.121 385.289 190.824 416.347 184 419.244C179.326 420.246 174.805 415.525 176.788 410.872C177.874 408.321 199.546 386.833 203.293 382.508C206.892 378.352 210.481 371.359 215.818 369.304Z"/><path fill="#FD6F53" transform="scale(0.117187 0.117187)" d="M228.504 249.327C225.016 237.837 222.914 224.778 228.739 213.749C236.787 198.51 254.187 191.008 270.003 199.528C287.171 208.777 291.485 232.212 293.99 249.979L293.45 249.831C289.628 233.829 290.482 224.871 281.34 210.32L280.202 210.115L280.574 209.435L280.34 208.879L280.094 208.851C278.942 210.464 272.961 209.606 277.283 211.207C275.887 212.998 268.24 211.62 270.8 214.261L270.582 214.509L269.623 214.218C270.918 216.409 272.483 218.48 273.609 220.76C276.414 226.438 281.415 245.73 280.996 252.015C277.38 239.06 278.431 220.563 265.509 212.618C256.404 207.02 245.559 210.576 240.249 219.574C236.783 225.447 238.099 230.923 239.673 237.133L242.057 246.342C239.821 243.815 238.236 234.393 237.732 230.863C236.774 224.168 241.181 218.305 238.663 214.608C237.445 212.82 236.995 212.399 236.919 210.151L235.913 209.761C235.593 208.926 235.769 207.418 236.04 206.569C229.447 206.841 225.031 225.36 225.444 231.15C225.726 235.094 228.905 246.944 228.504 249.327Z"/><path fill="#B116DA" transform="scale(0.117187 0.117187)" d="M217.838 413.297C222.723 413.187 226.593 418.045 224.27 422.628C222.234 426.644 211.257 438.242 206.376 439.858C201.436 440.175 197.259 435.718 199.727 430.736C201.391 427.377 213.495 414.92 217.838 413.297Z"/></svg>