<?xml version="1.0" encoding="utf-8" ?><svg xmlns="http://www.w3.org/2000/svg" xmlns:xlink="http://www.w3.org/1999/xlink" width="512" height="512" viewBox="0 0 512 512"><path fill="#546E7A" d="M216.402 245.728C218.825 247.403 223.007 251.531 225.174 253.717C240.541 269.181 250.873 288.931 254.811 310.373C258.683 331.702 256.356 352.378 248.206 372.4C245.01 380.25 241.705 388.057 238.522 395.907C235.635 403.141 232.7 410.356 229.718 417.552C225.193 428.685 221.057 439.063 214.124 449.035C197.476 473.014 171.929 489.338 143.175 494.372C124.5 497.644 101.048 495.654 83.5564 488.099C85.2598 483.083 87.9933 476.843 90.0266 471.871L100.819 445.5C102.213 442.117 106.082 433.355 106.929 430.406C130.594 439.634 157.01 428.97 167.159 405.472C171.363 395.737 175.2 385.826 179.231 376.016L186.671 358.005C194.447 339.027 197.788 330.285 189.858 309.902C191.011 308.763 213.788 252.308 216.402 245.728Z"/><path fill="#546E7A" d="M493.288 99.8977C499.657 128.021 494.736 157.521 479.582 182.054C466.793 202.462 447.611 218.064 425.026 226.428C417.737 229.101 409.804 230.915 402.246 232.67L365.943 241.104C357.966 242.942 346.586 245.675 338.525 246.468C314.412 248.956 290.158 243.339 269.595 230.503C256.961 222.624 246.088 212.224 237.655 199.952C236.434 198.17 233.866 194.274 233.033 192.393C238.581 191.417 245.427 189.653 250.971 188.363L281.64 181.225C284.448 180.572 298.661 177.693 300.521 176.729C311.906 183.3 322.894 186.816 336.165 183.97C356.162 179.682 376.102 174.459 396.063 170.11C422.505 164.348 437.727 140.623 432.677 114.262C436.218 113.034 444.822 111.295 448.914 110.346L481.241 102.846C483.196 102.395 492.021 100.62 493.288 99.8977Z"/><path fill="#7C939E" d="M83.5564 488.099C65.8139 479.921 53.9688 471.964 41.2621 456.861C22.6733 434.457 13.8204 405.547 16.6768 376.575C18.5607 355.903 27.7256 338.021 35.2785 319.087C46.6782 290.51 54.2319 266.998 78.8967 246.597C101.192 228.117 129.957 219.332 158.773 222.202C157.513 224.582 154.926 231.541 153.751 234.407L142.493 261.952L135.201 279.669C134.602 281.119 132.742 284.958 132.415 286.212C124.104 290.034 118.847 292.928 112.716 300.197C107.748 306.088 105.648 310.708 102.817 317.785C95.8426 335.224 88.4823 352.54 81.5431 369.995C76.6997 382.117 76.9802 394.868 82.4168 406.738C86.8969 416.718 96.4971 426.538 106.929 430.406C106.082 433.355 102.213 442.117 100.819 445.5L90.0266 471.871C87.9933 476.843 85.2598 483.083 83.5564 488.099Z"/><path fill="#7C939E" d="M218.986 131.759C218.976 128.859 219.785 123.507 220.258 120.625C222.231 108.591 226.016 97.5078 231.894 86.7898C245.359 61.7284 268.243 43.0547 295.495 34.8895C313.592 29.6311 332.368 26.5264 350.47 21.6388C382.085 13.1029 412.553 13.8617 441.497 30.5273C461.392 41.9823 476.859 58.8879 486.412 79.7649C489.375 86.3251 491.267 92.9192 493.288 99.8977C492.021 100.62 483.196 102.395 481.241 102.846L448.914 110.346C444.822 111.295 436.218 113.034 432.677 114.262C427.678 90.6011 403.527 74.4115 379.69 78.7634C367.698 80.9527 355.625 84.1814 343.715 86.9064L326.697 90.8105C318.812 92.6372 311.466 93.9541 304.255 98.0103C296.618 102.306 291.248 108.334 286.502 115.58C286.366 115.788 286.297 115.936 286.191 116.145C281.561 117.504 275.945 118.571 271.161 119.683L236.44 127.73C231.384 128.896 223.756 130.388 218.986 131.759Z"/><path fill="#7C939E" d="M286.191 116.145C301.26 113.342 315.122 106.554 329.565 116.584C336.741 121.568 339.542 126.821 342.224 134.776C343.9 143.856 342.903 151.932 337.599 159.667C330.04 170.69 320.201 172.152 308.114 174.833C306.707 175.145 301.525 176.239 300.521 176.729C298.661 177.693 284.448 180.572 281.64 181.225L250.971 188.363C245.427 189.653 238.581 191.417 233.033 192.393C231.543 192.464 226.652 193.757 224.893 194.166C219.521 195.417 214.201 196.844 208.752 197.804C206.595 195.657 199.476 183.378 197.661 180.251C199.289 176.954 204.635 168.708 206.811 165.552C209.261 162.339 212.024 156.955 214.998 152.976C212.257 149.585 206.042 139.134 203.757 135.023C208.358 134.333 214.368 132.811 218.986 131.759C223.756 130.388 231.384 128.896 236.44 127.73L271.161 119.683C275.945 118.571 281.561 117.504 286.191 116.145Z"/><path fill="#B0BDC1" d="M286.191 116.145C301.26 113.342 315.122 106.554 329.565 116.584C336.741 121.568 339.542 126.821 342.224 134.776C339.55 135.921 330.805 137.738 327.492 138.494L301.318 144.551L241.51 158.404C231.605 160.699 221.705 163.021 211.789 165.268C210.308 165.604 208.221 166.189 206.811 165.552C209.261 162.339 212.024 156.955 214.998 152.976C212.257 149.585 206.042 139.134 203.757 135.023C208.358 134.333 214.368 132.811 218.986 131.759C223.756 130.388 231.384 128.896 236.44 127.73L271.161 119.683C275.945 118.571 281.561 117.504 286.191 116.145Z"/><path fill="#B0BDC1" d="M158.773 222.202C160.648 218.943 165.472 203.59 168.193 199.727C168.585 199.484 170.288 199.187 170.604 199.262C174.306 200.139 188.305 198.763 189.824 202.497C191.478 206.564 193.302 211.309 195.112 215.25C197.005 219.429 199.855 225.676 201.381 229.964C207.422 230.071 215.986 230.747 222.078 231.364C220.36 236.297 218.111 240.832 216.402 245.728C213.788 252.308 191.011 308.763 189.858 309.902L189.624 310.355C188.898 311.791 187.016 316.994 186.362 318.726C181.723 331.012 177.152 340.484 163.913 345.128C157.428 347.403 148.446 347.121 142.166 344.319C134.63 341.041 129.126 335.856 125.626 328.372C118.505 313.148 127.403 300.041 132.415 286.212C132.742 284.958 134.602 281.119 135.201 279.669L142.493 261.952L153.751 234.407C154.926 231.541 157.513 224.582 158.773 222.202Z"/><path fill="#7C939E" d="M195.112 215.25C197.005 219.429 199.855 225.676 201.381 229.964C207.422 230.071 215.986 230.747 222.078 231.364C220.36 236.297 218.111 240.832 216.402 245.728C213.788 252.308 191.011 308.763 189.858 309.902L189.624 310.355C188.898 311.791 187.016 316.994 186.362 318.726C181.723 331.012 177.152 340.484 163.913 345.128C157.428 347.403 148.446 347.121 142.166 344.319C147.046 332.664 151.858 320.98 156.601 309.268L182.667 245.493L191.164 224.646C191.863 222.913 194.366 216.252 195.112 215.25Z"/><path fill="#F57C00" d="M75.5684 145.604C83.4178 145.952 93.1532 147.783 101.172 148.588C110.072 149.625 118.447 150.64 127.368 151.84C134.401 152.786 137.93 159.192 133.67 165.185C131.219 168.635 122.655 168.842 118.444 169.311C106.617 170.456 94.7378 172.387 82.7081 173.774C74.0524 174.771 65.7712 174.845 64.1379 163.437C62.9193 154.924 65.4331 146.528 75.5684 145.604Z"/><path fill="#F57C00" d="M175.205 47.8537C178.524 47.7657 181.294 47.9349 184.356 49.5903C186.464 50.5797 189.709 54.3605 190.081 56.8543C190.868 62.1245 189.31 69.8915 188.702 75.0813C187.256 87.4107 185.772 99.4915 184.106 111.763C183.48 116.368 181.436 118.326 176.98 119.472C173.091 119.638 169.417 117.838 168.44 113.647C167.305 108.776 166.865 103.735 166.287 98.7458C164.891 86.6795 163.233 74.6294 161.818 62.5665C161.352 58.5944 161.861 55.2319 164.54 52.0938C167.528 48.5934 170.987 48.1913 175.205 47.8537Z"/><path fill="#F57C00" d="M105.813 75.5745C108.991 75.271 113.494 76.6779 115.528 79.1748C126.114 92.1711 136.234 105.63 146.533 118.866C147.116 119.615 149.257 122.928 149.426 123.819C150.787 130.975 144.382 135.989 137.571 132.45C134.481 130.694 130.563 127.273 127.697 125.013C122.99 121.284 118.263 117.579 113.516 113.9L102.026 105.077C99.7335 103.319 97.395 101.569 95.2676 99.5997C86.1436 91.1544 95.6102 77.2679 105.813 75.5745Z"/></svg>