<svg class="size-6" viewBox="0 0 16 16" fill="none" xmlns="http://www.w3.org/2000/svg">
    <rect x="2.13281" width="11.7333" height="16" rx="1.18519" fill="#47D1B0"></rect>
    <path d="M7.3363 2.24397C7.57098 1.63846 8.42772 1.63846 8.6624 2.24397L9.18163 3.58364C9.28252 3.84396 9.52641 4.02116 9.80517 4.03667L11.2397 4.1165C11.8881 4.15258 12.1529 4.9674 11.6495 5.3777L10.5359 6.2855C10.3195 6.4619 10.2263 6.7486 10.2977 7.01851L10.6651 8.40753C10.8311 9.03533 10.138 9.53891 9.59222 9.18699L8.38472 8.40836C8.15008 8.25707 7.84862 8.25707 7.61398 8.40836L6.40647 9.18699C5.86071 9.53891 5.16759 9.03533 5.33364 8.40752L5.70101 7.01851C5.7724 6.7486 5.67924 6.4619 5.46284 6.2855L4.34918 5.3777C3.84584 4.9674 4.11059 4.15258 4.75898 4.1165L6.19353 4.03667C6.47229 4.02116 6.71618 3.84396 6.81707 3.58364L7.3363 2.24397Z" fill="#157A62"></path>
    <rect x="5.33301" y="11.2002" width="5.33333" height="1.06667" rx="0.533333" fill="#157A62"></rect>
    <rect x="3.73242" y="13.333" width="8.53333" height="1.06667" rx="0.533333" fill="#157A62"></rect>
  </svg>