<svg version="1.2" xmlns="http://www.w3.org/2000/svg" viewBox="0 0 400 400" width="400" height="400">
	<style>
		.s0 { fill: #000000 } 
		.s1 { fill: #3a5bc5 } 
		.s2 { fill: #c12f2f } 
		.s3 { fill: #43bd43 } 
		.s4 { fill: #ffffff } 
	</style>
	<path id="Background" class="s0" d=""/>
	<path id="Layer 1" fill-rule="evenodd" class="s1" d="m44 18h311c16.57 0 30 13.43 30 30v303c0 16.57-13.43 30-30 30h-311c-16.57 0-30-13.43-30-30v-303c0-16.57 13.43-30 30-30z"/>
	<path id="Layer 2" class="s2" d="m153.65 232.31c2.42-3.44 2.03-8.56-0.88-11.43-2.91-2.86-7.24-2.41-9.66 1.04l-28.99 41.2-29-41.2c-2.42-3.45-6.74-3.9-9.65-1.04-2.92 2.87-3.3 7.99-0.88 11.43l30.6 43.48-30.6 43.48c-2.42 3.45-2.04 8.57 0.88 11.44 2.91 2.86 7.23 2.41 9.65-1.04l29-41.2 28.99 41.2c2.42 3.45 6.75 3.9 9.66 1.04 2.91-2.87 3.3-7.99 0.88-11.44l-30.6-43.48z"/>
	<path id="Layer 3" class="s3" d="m171.16 65.39c2.83 4.53 2.83 11.88 0 16.4l-57.87 92.7c-2.82 4.52-7.41 4.52-10.24 0l-28.93-46.35c-2.83-4.53-2.83-11.88 0-16.4 2.82-4.53 7.41-4.53 10.24 0l23.82 38.13 52.77-84.48c2.82-4.52 7.41-4.52 10.21 0z"/>
	<path id="Shape 1" fill-rule="evenodd" class="s4" d="m214.5 99h126c8.01 0 14.5 6.49 14.5 14.5 0 8.01-6.49 14.5-14.5 14.5h-126c-8.01 0-14.5-6.49-14.5-14.5 0-8.01 6.49-14.5 14.5-14.5z"/>
	<path id="Shape 1 copy" fill-rule="evenodd" class="s4" d="m214.5 261h126c8.01 0 14.5 6.49 14.5 14.5 0 8.01-6.49 14.5-14.5 14.5h-126c-8.01 0-14.5-6.49-14.5-14.5 0-8.01 6.49-14.5 14.5-14.5z"/>
</svg>