<svg width="30" height="30" viewBox="0 0 30 30" fill="none" xmlns="http://www.w3.org/2000/svg">
<g clip-path="url(#clip0_178_21651)">
<circle cx="15.0005" cy="16.3632" r="9.54545" fill="#6B268E"/>
<path d="M15.1854 26.7105C16.8057 26.7105 18.3273 26.4021 19.7502 25.7852C21.1732 25.1683 22.4274 24.3171 23.5131 23.2314C24.607 22.1457 25.4624 20.8914 26.0793 19.4685C26.6962 18.0374 27.0046 16.5117 27.0046 14.8913C27.0046 13.2793 26.6921 11.7618 26.067 10.3389C25.4501 8.90774 24.5947 7.64933 23.5008 6.56365C22.4151 5.46973 21.1608 4.61435 19.7379 3.99748C18.315 3.38061 16.7934 3.07218 15.1731 3.07218C13.561 3.07218 12.0435 3.38061 10.6206 3.99748C9.19771 4.61435 7.9393 5.46973 6.84539 6.56365C5.7597 7.64933 4.90843 8.90774 4.29156 10.3389C3.67469 11.7618 3.36626 13.2793 3.36626 14.8913C3.36626 16.5117 3.67469 18.0374 4.29156 19.4685C4.91665 20.8914 5.77204 22.1457 6.85773 23.2314C7.94341 24.3171 9.19771 25.1683 10.6206 25.7852C12.0435 26.4021 13.5651 26.7105 15.1854 26.7105ZM15.1854 25.119C14.256 25.119 13.3472 24.9956 12.4589 24.7489C11.5788 24.5021 10.7522 24.1485 9.97907 23.6879C9.20593 23.2355 8.51915 22.6927 7.91874 22.0593C8.34643 21.3931 8.92629 20.8215 9.6583 20.3445C10.3903 19.8592 11.2251 19.4891 12.1628 19.2341C13.1086 18.9791 14.1162 18.8516 15.1854 18.8516C16.2382 18.8516 17.2334 18.9791 18.1711 19.2341C19.1169 19.4808 19.9559 19.8468 20.6879 20.3321C21.4199 20.8092 21.9998 21.3849 22.4274 22.0593C21.8353 22.6927 21.1485 23.2355 20.3671 23.6879C19.594 24.1485 18.7633 24.5021 17.875 24.7489C16.9949 24.9956 16.0984 25.119 15.1854 25.119ZM15.1854 16.8653C14.437 16.8571 13.7584 16.6597 13.1498 16.2731C12.5494 15.8866 12.0723 15.3643 11.7186 14.7063C11.365 14.0483 11.1881 13.3039 11.1881 12.4732C11.1881 11.6836 11.365 10.964 11.7186 10.3142C12.0723 9.6562 12.5494 9.13392 13.1498 8.74735C13.7584 8.35256 14.437 8.15516 15.1854 8.15516C15.9257 8.15516 16.596 8.35256 17.1964 8.74735C17.7968 9.13392 18.2739 9.6562 18.6275 10.3142C18.9894 10.964 19.1704 11.6836 19.1704 12.4732C19.1704 13.3039 18.9936 14.0524 18.6399 14.7186C18.2862 15.3848 17.8092 15.9112 17.2088 16.2978C16.6083 16.6844 15.9339 16.8735 15.1854 16.8653Z" fill="#D37DFF"/>
</g>
<defs>
<clipPath id="clip0_178_21651">
<rect width="30" height="30" fill="white"/>
</clipPath>
</defs>
</svg>
