<?xml version="1.0" encoding="utf-8" ?><svg xmlns="http://www.w3.org/2000/svg" xmlns:xlink="http://www.w3.org/1999/xlink" width="60" height="60" viewBox="0 0 60 60"><defs><linearGradient id="gradient_0" gradientUnits="userSpaceOnUse" x1="451.00153" y1="369.85284" x2="68.447746" y2="236.05876"><stop offset="0" stop-color="#FA9B2C"/><stop offset="1" stop-color="#FFB320"/></linearGradient></defs><path fill="url(#gradient_0)" transform="matrix(0.117187 0 0 0.117187 0 -7.62939e-06)" d="M214.558 122.108C206.603 117.507 200.602 113.024 198.121 103.596C194.369 89.3365 203.408 74.6615 217.619 71.0971C248.496 63.3521 268.175 106.742 233.903 122.108C233.895 134.688 233.761 147.282 233.903 159.86L268.917 159.875C272.502 159.875 278.205 159.236 281.399 159.86C287.55 150.364 292.827 140.354 298.713 130.699C303.218 138.331 310.795 153.461 316.351 159.86L394.49 159.86L394.49 185.028C405.773 191.007 426.124 205.733 436.493 213.342C436.698 220.108 436.5 226.939 436.495 233.711L436.619 407.776C436.768 428.207 420.191 436.716 401.755 436.734L113.593 436.737C101.953 436.746 92.3034 436.895 83.451 427.956C73.521 417.929 75.7471 403.516 75.7595 390.658L75.7578 213.342C78.7035 210.52 82.8219 208.294 86.1972 205.974C95.1974 199.791 110.05 190.405 118.001 183.336L118.001 159.86L204.611 159.845C207.881 159.826 211.32 159.485 214.558 159.86C215.226 149.402 215.086 132.557 214.558 122.108ZM322.312 416.769L396.287 416.796C399.755 416.824 403.217 417.051 406.679 416.769C398.436 409.265 389.499 402.408 380.839 395.39L312.254 339.784C306.785 335.296 301.346 330.277 295.532 326.272C289.536 330.826 265.925 349.449 260.275 351.727C251.813 355.138 243.353 346.46 237.221 341.879C232.378 338.261 220.356 328.717 215.269 326.272C210.568 329.44 206.427 333.221 202.062 336.813L115.347 407.932C111.981 410.694 107.569 413.351 104.885 416.769C128.967 417.068 153.094 416.769 177.18 416.769L322.312 416.769ZM359.816 353.041L415.509 398.78C417.277 396.238 416.191 361.972 416.191 356.658L416.187 254.174C416.191 250.632 417.262 241.829 415.556 238.983L415.312 238.918C409.755 243.083 404.06 247.046 398.454 251.143L320.038 308.026C317.304 310.016 314.219 311.899 311.798 314.258C327.874 325.988 343.888 340.598 359.816 353.041ZM224.626 105.805C229.576 105.751 233.553 101.707 233.524 96.756C233.495 91.8049 229.47 87.808 224.519 87.8129C219.533 87.8177 215.502 91.8766 215.532 96.8624C215.561 101.848 219.64 105.859 224.626 105.805ZM409.567 219.181C407.74 216.494 397.713 210.143 394.49 208.367L394.49 228.257C397.726 226.387 400.793 224.199 403.885 222.099C405.76 220.868 407.439 219.933 409.567 219.181ZM118.001 208.367C113.661 209.796 104.878 216.108 101.371 219.181C103.847 220.898 106.285 222.645 108.687 224.465C111.797 226.807 115.027 229.086 118.001 231.596C118.048 229.122 118.274 208.916 118.001 208.367ZM95.7295 238.918L95.7254 344.62C95.7251 362.684 95.5219 380.774 95.7295 398.835C101.819 395.129 107.239 389.539 112.749 384.983L152.507 352.024L175.57 333.069C183.314 326.627 190.941 320.23 199.065 314.258C192.614 308.186 184.653 303.405 177.508 298.168L127.937 262.296C121.066 257.319 102.056 241.987 95.7295 238.918Z"/><path fill="#CCD1D3" transform="matrix(0.117187 0 0 0.117187 0 -7.62939e-06)" d="M214.558 122.108C206.603 117.507 200.602 113.024 198.121 103.596C194.369 89.3365 203.408 74.6615 217.619 71.0971C248.496 63.3521 268.175 106.742 233.903 122.108C233.895 134.688 233.761 147.282 233.903 159.86L268.917 159.875C272.502 159.875 278.205 159.236 281.399 159.86C287.55 150.364 292.827 140.354 298.713 130.699C303.218 138.331 310.795 153.461 316.351 159.86C319.733 166.667 323.762 173.291 327.444 179.951C332.572 180.169 337.826 179.944 342.967 179.945L375.243 179.951L375.251 236.241C375.25 238.831 375.435 241.629 374.988 244.18C370.286 248.658 362.709 253.533 357.317 257.449L276.727 316.255C269.898 321.251 263.057 326.823 255.774 331.095L156.81 259.119C150.565 254.703 143.964 250.456 138.057 245.603L138.057 179.951L214.558 179.951L214.558 159.86C215.226 149.402 215.086 132.557 214.558 122.108ZM224.626 105.805C229.576 105.751 233.553 101.707 233.524 96.756C233.495 91.8049 229.47 87.808 224.519 87.8129C219.533 87.8177 215.502 91.8766 215.532 96.8624C215.561 101.848 219.64 105.859 224.626 105.805Z"/><path fill="#1C678E" transform="matrix(0.117187 0 0 0.117187 0 -7.62939e-06)" d="M214.558 122.108C206.603 117.507 200.602 113.024 198.121 103.596C194.369 89.3365 203.408 74.6615 217.619 71.0971C248.496 63.3521 268.175 106.742 233.903 122.108C233.895 134.688 233.761 147.282 233.903 159.86L268.917 159.875C272.502 159.875 278.205 159.236 281.399 159.86C287.55 150.364 292.827 140.354 298.713 130.699C303.218 138.331 310.795 153.461 316.351 159.86C319.733 166.667 323.762 173.291 327.444 179.951C327.726 180.441 327.927 180.826 328.043 181.382C321.856 182.236 315.018 181.294 308.748 181.492L308.763 199.113C308.763 203.532 308.895 208.01 308.403 212.406C304.261 249.402 255.547 267.776 229.028 241.399C215.861 228.303 214.556 217.039 214.548 199.487L214.558 179.951L214.558 159.86C215.226 149.402 215.086 132.557 214.558 122.108ZM224.626 105.805C229.576 105.751 233.553 101.707 233.524 96.756C233.495 91.8049 229.47 87.808 224.519 87.8129C219.533 87.8177 215.502 91.8766 215.532 96.8624C215.561 101.848 219.64 105.859 224.626 105.805Z"/><path fill="#CCD1D3" transform="matrix(0.117187 0 0 0.117187 0 -7.62939e-06)" d="M233.903 179.951L257.18 179.947C261.313 179.942 265.49 179.798 269.619 179.951C268.319 183.116 285.431 181.497 288.187 181.492L288.21 197.943C288.216 208.189 288.633 217.505 280.933 225.364C270.103 236.417 252.36 236.389 241.439 225.471C233.46 217.495 233.893 207.517 233.888 197.033L233.903 179.951Z"/><path fill="#FAA520" transform="matrix(0.117187 0 0 0.117187 0 -7.62939e-06)" d="M233.903 159.86L268.917 159.875C272.502 159.875 278.205 159.236 281.399 159.86C278.72 165.339 273.423 175.392 269.619 179.951C265.49 179.798 261.313 179.942 257.18 179.947L233.903 179.951L233.903 159.86Z"/></svg>