<?xml version="1.0" encoding="utf-8" ?><svg xmlns="http://www.w3.org/2000/svg" xmlns:xlink="http://www.w3.org/1999/xlink" width="785" height="449" viewBox="0 0 785 449"><path fill="#F8306F" transform="scale(0.747967 0.747967)" d="M768.566 118.668C792.767 112.277 827.198 130.638 839.112 150.906C890.499 148.973 924.646 192.352 924.436 241.583C964.152 277.316 958.43 333.584 923.252 370.736C923.938 418.428 890.585 451.798 843.748 456.086C837.449 459.699 832.092 464.637 826.061 468.645C798.672 486.845 749.667 490.89 726.634 463.119C715.788 465.481 704.726 464.666 694.113 461.738C682.753 458.981 673.025 453.423 663.083 447.479C685.446 419.232 694.546 369.329 691.51 333.213C685.705 327.294 677.67 323.078 670.699 318.676L670.699 297.536C689.013 284.848 689.436 291.198 691.51 267.286C703.672 284.183 737.806 278.728 729.006 265.513C722.891 256.329 710.002 276.554 694.113 251.797C698.235 246.866 698.528 244.432 694.113 239.494C702.031 217.977 713.319 221.424 729.485 229.732C739.428 234.842 743.812 220.579 725.622 213.061C707.118 205.413 690.188 216.092 683.264 233.557L670.699 225.778L670.699 203.059C677.379 198.097 684.728 194.006 691.51 189.146C691.504 170.779 692.941 156.383 687.509 138.529C700.386 136.546 710.531 135.295 723.337 138.529C736.508 127.199 750.896 119.175 768.566 118.668ZM814.926 209.767C819.862 212.897 821.605 216.097 823.567 221.427C820.454 226.362 814.339 236.551 821.585 240.922C830.51 246.305 829.184 227.411 841.793 223.174C864.428 215.567 879.912 249.614 860.738 262.543C856.96 264.865 850.707 265.424 847.798 268.47C841.968 274.574 846.802 283.677 835.001 287.559C821.427 292.026 815.507 277.402 802.704 277.807C791.774 278.153 783.412 286.387 780.983 296.835C777.278 312.763 790.958 316.76 792.583 307.654C796.668 284.754 797.624 286.338 816.302 297.899C833.489 308.537 851.432 294.866 857.486 277.801C902.952 261.507 876.802 194.152 833.302 213.206C829.481 205.56 825 200.207 816.621 197.646C813.757 180.202 794.793 155.509 776.486 164.573C748.391 164.152 730.92 205.447 757.147 221.005C759.069 222.145 767.496 225.132 768.205 226.403C772.579 234.237 757.492 238.728 757.103 244.863C756.91 247.9 760.184 251.153 763.162 251.241C774.893 251.59 787.112 227.202 776.321 217.172C768.75 210.135 757.779 212.616 756.944 199.033C755.68 178.449 781.187 168.23 796.103 181.913C810.99 195.57 795.065 209.28 814.926 209.767ZM748.617 398.916C745.437 429.311 784.166 444.247 806.541 425.988C819.066 415.767 824.368 394.803 813.044 381.739C801.554 368.483 789.759 378.546 796.671 385.234C800.584 389.02 804.699 389.624 806.417 395.433C808.977 444.423 736.686 414.134 764.021 385.256C766.621 382.509 769.983 380.586 772.957 378.282C788.461 366.272 780.919 338.178 770.305 349.312C766.527 353.276 769.966 360.776 767.418 365.813C765.163 370.271 754.772 374.71 748.617 385.174C727.321 392.755 709.982 374.444 718.032 358.182C723.607 346.921 735.708 349.474 739.911 334.091C745.507 313.614 728.112 301 709.53 301.567C703.28 305.371 702.203 312.978 711.079 314.298C716.716 315.137 722.04 314.534 725.911 319.577C738.898 336.499 709.16 336.787 705.009 359.648C699.846 388.084 723.622 402.998 748.617 398.916ZM821.248 363.64C833.7 390.614 869.576 389.48 879.854 360.749C888.134 337.605 869.124 310.705 843.748 314.028C838.868 314.586 827.183 320.313 834.74 325.397C839.428 328.55 844.362 325.893 849.464 326.224C884.852 328.521 867.575 387.028 838.547 367.421C830.495 361.982 834.275 349.677 824.422 351.382C818.008 352.492 819.874 359.264 821.248 363.64Z"/><path fill="#FEB00B" transform="scale(0.747967 0.747967)" d="M295.855 118.668C314.959 114.282 341.604 126.988 356.258 138.529C349.59 149.601 349.697 168.939 350.932 181.692C352.016 192.875 363.555 196.722 371.333 203.059C371.491 210.621 371.343 218.213 371.333 225.778C364.144 230.999 353.529 233.452 351.383 243.197C349.54 251.568 350.687 271.665 350.719 281.092C355.251 288.362 364.397 292.841 371.333 297.536C371.527 304.567 371.36 311.641 371.333 318.676C364.638 323.749 356.797 327.27 350.719 333.213C345.644 377.741 358.379 422.709 387.218 457.133C375.501 463.303 363.676 463.663 350.719 463.119C325.037 486.948 284.432 489.392 253.556 475.363C243.599 470.56 235.763 463.705 227.87 456.086C220.743 456.119 213.587 456.206 206.497 455.379C167.313 450.805 129.402 411.713 134.298 370.736C94.0261 337.677 94.4939 275.459 134.298 241.583C130.458 187.691 179.925 145.246 232.013 149.843C249.858 130.537 269.47 120.377 295.855 118.668Z"/><path fill="#FFD730" transform="scale(0.747967 0.747967)" d="M332.808 235.368C337.356 235.345 342.898 238.711 341.46 243.939C339.377 251.506 251.991 336.216 239.947 348.421C232.114 356.358 201.324 389.716 194.243 393.737C173.724 391.843 195.225 373.756 200.018 368.957L318.089 249.249C322.561 244.656 327.309 238.669 332.808 235.368Z"/><path fill="#FFD730" transform="scale(0.747967 0.747967)" d="M326.226 290.762C331.274 290.522 336.725 293.973 335.455 299.555C334.31 304.588 311.97 324.542 307.628 328.945L221.205 416.054C217.043 420.276 212.436 425.966 207.422 429.091C202.231 429.648 197.194 425.889 198.37 420.4C199.569 414.808 245.407 371.635 252.403 364.677L311.247 305.289C315.932 300.492 320.589 294.364 326.226 290.762Z"/><path fill="#FFD730" transform="scale(0.747967 0.747967)" d="M301.123 164.573C310.17 165.71 315.762 175.235 319.342 182.776C334.812 215.359 309.502 232.966 289.306 252.964C282.141 260.058 263.554 281.68 255.936 285.26C238.167 283.788 255.972 267.097 260.108 262.865C273.256 249.415 292.208 232.964 303.723 218.923C326.777 190.814 280.154 172.64 301.123 164.573Z"/><path fill="#FFD730" transform="scale(0.747967 0.747967)" d="M181.677 285.26C229.979 278.588 223.784 346.296 178.94 350.091C149.964 352.544 146.358 332.489 160.833 333.213C196.324 344.083 212.74 309.115 193.163 300.252C176.283 292.611 158.348 323.308 154.869 304.904C153.112 295.612 174.986 286.485 181.677 285.26Z"/><path fill="#FFD730" transform="scale(0.747967 0.747967)" d="M239.476 177.371C246.732 177.29 253.219 184.355 257.1 189.79C286.504 230.965 219.851 279.598 186.842 232.02C183.347 226.412 179.068 212.69 190.129 214.548C198.362 215.931 200.267 234.499 217.248 237.475C242.2 241.848 262.275 209.773 240.798 193.129C233.875 187.765 229.751 182.105 239.476 177.371Z"/><path fill="#FFD730" transform="scale(0.747967 0.747967)" d="M321.835 346.271C346.54 342.556 307.641 374.746 333.068 398.542C339.188 404.269 347.59 409.863 337.287 416.367C317.343 417.537 295.308 367.787 321.835 346.271Z"/><path fill="#FFD730" transform="scale(0.747967 0.747967)" d="M298.043 372.788C301.436 372.668 303.756 373.584 305.591 376.73C311.461 386.794 276.383 396.964 294.353 422.545C299.154 429.38 305.969 435.216 295.855 440.583C277.734 440.332 261.833 391.603 298.043 372.788Z"/><defs><linearGradient id="gradient_0" gradientUnits="userSpaceOnUse" x1="527.71429" y1="292.84845" x2="359.5347" y2="304.96136"><stop offset="0" stop-color="#099BF3"/><stop offset="1" stop-color="#13B7FA"/></linearGradient></defs><path fill="url(#gradient_0)" transform="scale(0.747967 0.747967)" d="M492.404 81.2044C517.426 76.499 515.35 103.639 515.348 118.965L515.34 155.688C461.228 164.703 455.539 205.605 455.65 251.797L484.675 251.797C484.584 224.967 482.043 194.114 515.34 187.246L515.34 258.564L476.839 258.525C449.767 258.512 429.554 257.295 429.083 290.273C428.806 309.684 429.03 329.134 429.042 348.549C429.073 398.255 433.645 403.695 480.196 403.581L515.34 403.539L515.34 470C514.988 503.081 522.622 521.794 476.529 503.128C416.984 479.014 369.259 437.366 363.533 369.27C362.708 359.452 363.385 349.195 363.437 339.333C369.391 333.627 376.617 329.731 383.715 325.659L383.715 290.762C377.337 285.932 370.31 281.881 363.437 277.801L363.437 245.526C369.868 240.511 377.346 237.125 383.715 232.02L383.715 195.947C377.545 190.717 370.138 186.546 363.437 181.992C363.228 143.98 359.676 136.644 396.483 121.189L466.101 91.6693C474.606 88.0245 483.441 83.5452 492.404 81.2044Z"/><defs><linearGradient id="gradient_1" gradientUnits="userSpaceOnUse" x1="518.73553" y1="297.04666" x2="684.3952" y2="288.00262"><stop offset="0" stop-color="#7330CB"/><stop offset="1" stop-color="#A637DE"/></linearGradient></defs><path fill="url(#gradient_1)" transform="scale(0.747967 0.747967)" d="M543.097 81.2044C555.237 80.1368 596.558 100.671 609.387 105.954C660.928 127.178 679.024 120.423 678.746 181.992C672.088 186.831 664.235 190.324 658.189 195.947C657.763 207.904 658.177 220.05 658.189 232.02C664.457 237.152 672.189 240.697 678.746 245.526L678.746 277.801C671.626 280.924 664.041 285.655 658.189 290.762C657.625 302.287 658.135 314.106 658.189 325.659C664.476 330.878 672.731 333.846 678.746 339.333C679.046 386.884 670.852 423.565 637.399 459.054C618.576 479.022 570.038 509.828 544.759 510.326C523.817 510.739 527.52 484.112 527.593 470L527.593 403.539L566.945 403.603C606.048 403.795 615.957 400.256 616.042 358.885L616.05 308.771C616.015 262.593 612.472 258.475 570.044 258.517L527.593 258.564L527.593 187.246C561.607 187.697 561.492 228.727 561.445 251.797C570.964 251.39 580.599 251.744 590.13 251.797C590.295 202.928 583.993 165.616 527.593 155.688L527.543 117.877C527.53 102.334 524.345 86.6772 543.097 81.2044Z"/><path fill="#C9F0FB" transform="scale(0.747967 0.747967)" d="M222.479 94.591C228.628 93.6105 246.17 94.7964 241.161 105.398C237.175 113.833 226.138 111.399 218.384 112.328C157.478 119.618 104.866 168.237 98.0225 229.843C97.3725 235.694 98.5768 242.778 95.7958 248.151C94.3605 250.077 92.6393 251.528 90.2062 251.897C75.295 254.162 80.2784 231.353 81.5952 223.332C92.9988 153.873 151.343 98.761 222.479 94.591Z"/><path fill="#F9D1DA" transform="scale(0.747967 0.747967)" d="M961.293 367.685C975.402 367.26 973.982 379.876 972.741 390.51C965.292 454.386 912.387 502.069 849.565 510.129C838.784 511.636 834.284 506.752 838.557 496.032C840.935 490.07 851.075 491.046 856.148 490.153C905.543 481.461 949.261 442.101 953.924 390.332C954.742 381.241 951.589 372.256 961.293 367.685Z"/><path fill="#07ACF9" transform="scale(0.747967 0.747967)" d="M508.672 337.075C504.025 327.402 496.582 326.725 497.406 313.164C498.253 299.232 508.896 289.911 522.586 290.762C535.471 290.619 545.114 300.891 545.133 313.701C545.152 326.778 538.77 328.301 532.54 337.075C532.287 349.126 538.206 368.196 522.586 367.685C500.932 368.28 510.123 354.521 508.672 337.075Z"/><path fill="#5C45D3" transform="scale(0.747967 0.747967)" d="M522.586 290.762C535.471 290.619 545.114 300.891 545.133 313.701C545.152 326.778 538.77 328.301 532.54 337.075C532.287 349.126 538.206 368.196 522.586 367.685L522.586 290.762Z"/></svg>