<?xml version="1.0" encoding="utf-8" ?><svg xmlns="http://www.w3.org/2000/svg" xmlns:xlink="http://www.w3.org/1999/xlink" width="60" height="60" viewBox="0 0 60 60"><path fill="#040305" transform="matrix(0.117187 0 0 0.117187 0 -7.62939e-06)" d="M116.443 182.826C133.435 181.633 149.939 192.677 155.967 208.463C162.548 225.697 157.173 246.741 147.55 261.94C146.186 264.095 144.534 266.186 143.524 268.535L143.392 268.85C165.378 275.567 183.259 296.901 185.631 319.783C186.372 326.924 185.936 334.249 186.008 341.424C190.578 339.199 195.033 336.929 199.419 334.357C200.62 329.078 202.297 323.808 203.87 318.63L213.54 287.667C211.039 287.169 202.734 287.092 201.266 284.849C196.32 277.292 216.099 282.149 218.011 282.715C214.87 262.411 208.033 262.976 189.397 263.281C180.888 263.421 182.567 258.115 185.703 257.464C188.294 256.926 191.411 257.421 194.054 257.49C210.68 257.922 219.353 259.122 222.912 278.059C228.586 264.793 237.329 255.289 249.991 248.411C252.526 247.034 261.482 242.456 264.261 243.571C272.834 247.01 252.57 253.864 251.132 254.638C240.683 260.268 233.409 268.884 228.608 279.671C230.925 279.195 250.496 274.543 248.193 281.352C247.066 284.685 232.032 284.269 227.081 286.212L226.772 286.336C243.659 290.777 260.292 296.565 276.849 302.094C283.019 304.374 289.368 306.337 295.633 308.351C304.317 311.142 315.314 314.221 312.311 326.04C309.886 335.587 306.594 345.04 303.652 354.448C296.387 377.676 294.869 377.052 274.404 370.145C261.656 365.842 248.874 360.747 235.888 357.304C219.974 366.569 202.339 374.135 186.008 382.907C185.99 384.7 188.918 421.18 180.275 409.749L68.6381 409.773C66.3621 409.779 63.2797 409.315 61.1031 409.842C60.5136 409.985 55.0635 417.64 54.5835 408.089C54.3169 402.785 54.5191 397.392 54.5207 392.08L54.5211 335.824C54.5214 310.725 57.6145 288.845 82.3362 274.514C86.8554 271.895 91.6978 270.129 96.3421 267.782C88.1818 260.778 82.4328 242.612 80.9999 232.134C77.5223 206.704 90.3229 186.351 116.443 182.826ZM86.0769 224.913C86.8955 225.52 87.3928 225.699 87.9679 224.754C93.4739 215.7 94.5468 207.636 104.358 200.943C112.793 195.189 127.694 193.636 137.843 195.712L138.185 195.785L138.606 195.228C116.943 177.467 85.4865 195.282 86.0769 224.913ZM306.944 321.81C305.377 315.38 295.408 314.383 290.129 312.629C278.525 308.772 266.793 305.194 255.287 301.056L253.435 305.52C259.115 307.126 264.881 308.542 270.478 310.421L296.131 318.953C298.957 319.875 303.633 321.913 306.497 322.122L306.944 321.81Z"/><path fill="#8A90B6" transform="matrix(0.117187 0 0 0.117187 0 -7.62939e-06)" d="M100.138 273.359C114.369 283.15 123.879 284.996 138.606 273.359C151 278.32 159.216 281.152 168.093 292.796C180.988 308.213 180.306 325.455 180.275 344.427C179.548 344.835 173.852 348.368 173.534 347.692C170.99 343.502 169.346 338.78 167.353 334.312L158.29 314.399C156.869 311.199 155.684 307.573 153.878 304.601C152.421 302.204 148.881 302.958 148.47 305.774C148.301 306.933 169.012 353.447 170.193 354.814C172.205 357.141 188.117 346.978 190.505 345.712C196.376 342.599 202.758 339.989 208.128 336.046C210.693 340.882 213.489 345.616 215.743 350.609C217.612 353.026 219.049 356.075 220.619 358.717L185.93 376.43C167.639 385.917 154.233 395.635 143.392 369.992C135.307 356.502 126.497 337.394 119.578 323.099C118.474 320.819 115.831 314.229 112.141 316.949C109.476 318.915 116.809 330.675 117.914 332.875L137.583 371.47C141.903 379.805 143.877 384.792 151.899 389.962C163.915 394.348 170.01 391.743 180.275 386.07L180.275 403.948C178.006 403.832 175.803 403.819 173.534 403.948L97.9836 403.948C85.4421 403.948 72.8365 404.241 60.3023 403.948L60.297 348.917C60.2888 331.58 58.244 313.304 67.5141 297.749C74.6477 285.779 86.6292 276.796 100.138 273.359Z"/><path fill="#6070A2" transform="matrix(0.117187 0 0 0.117187 0 -7.62939e-06)" d="M215.743 350.609C217.612 353.026 219.049 356.075 220.619 358.717L185.93 376.43C167.639 385.917 154.233 395.635 143.392 369.992C145.72 370.627 149.823 374.898 153.59 376.239C163.935 379.921 173.216 372.701 181.936 368.106C193.151 362.197 204.283 356.033 215.743 350.609Z"/><path fill="#6070A2" transform="matrix(0.117187 0 0 0.117187 0 -7.62939e-06)" d="M168.093 292.796C180.988 308.213 180.306 325.455 180.275 344.427C179.548 344.835 173.852 348.368 173.534 347.692C174.651 344.569 172.424 313.863 171.82 310.417C170.789 304.545 168.596 298.738 168.093 292.796Z"/><path fill="#6070A2" transform="matrix(0.117187 0 0 0.117187 0 -7.62939e-06)" d="M151.899 389.962C163.915 394.348 170.01 391.743 180.275 386.07L180.275 403.948C178.006 403.832 175.803 403.819 173.534 403.948L174.271 403.548C173.204 401.332 156.092 397.064 151.899 389.962Z"/><path fill="#E8E5E8" transform="matrix(0.117187 0 0 0.117187 0 -7.62939e-06)" d="M138.606 195.228C143.301 197.163 147.074 203.036 149.157 207.443C165.958 238.155 125.871 310.268 94.2404 255.071C89.6717 245.039 86.4803 236.119 86.0769 224.913C86.8955 225.52 87.3928 225.699 87.9679 224.754C93.4739 215.7 94.5468 207.636 104.358 200.943C112.793 195.189 127.694 193.636 137.843 195.712L138.185 195.785L138.606 195.228Z"/><path fill="#C7C6CA" transform="matrix(0.117187 0 0 0.117187 0 -7.62939e-06)" d="M149.157 207.443C165.958 238.155 125.871 310.268 94.2404 255.071C96.7641 255.59 99.4129 258.938 101.547 260.491C128.026 279.763 150.971 244.375 150.322 220.701C150.22 216.96 147.991 210.8 149.157 207.443Z"/><path fill="#FEDB68" transform="matrix(0.117187 0 0 0.117187 0 -7.62939e-06)" d="M253.435 305.52C259.115 307.126 264.881 308.542 270.478 310.421L296.131 318.953C298.957 319.875 303.633 321.913 306.497 322.122L306.944 321.81C307.86 324.937 305.252 330.19 304.312 333.142L299.396 348.571C297.943 353.198 296.681 359.441 294.718 363.684C290.825 372.097 283.528 367.272 277.297 365.168L254.259 357.221C250.047 355.794 245.809 354.215 241.475 353.2C246.79 349.747 252.917 346.263 254.826 339.734C256.668 333.437 251.707 328.398 246.014 326.877C248.054 319.678 250.65 312.459 253.435 305.52Z"/><path fill="#040305" transform="matrix(0.117187 0 0 0.117187 0 -7.62939e-06)" d="M274.47 316.272C278.481 316.073 276.899 316.473 277.271 318.237C277.663 320.096 282.487 321.034 281.619 324.437C280.002 326.125 278.223 325.046 276.849 323.632C275.925 324.837 274.979 326.081 274.47 327.523C282.252 332.309 280.267 341.175 272.807 340.256C272.375 340.203 272.13 340.12 271.71 340.241L271.406 341.424C271.078 342.382 268.346 341.709 267.695 341.383C266.687 340.879 267.979 339.739 267.702 338.849C261.773 336.022 262.3 327.901 269.535 334.792C269.718 333.506 270.027 332.238 270.306 330.969C266.935 328.8 263.749 324.773 266.728 320.855C269.499 317.209 273.413 319.695 274.47 316.272Z"/><path fill="#FFD8A3" transform="matrix(0.117187 0 0 0.117187 0 -7.62939e-06)" d="M272.758 332.499C274.74 333.367 276.181 334.065 274.47 336.046C271.8 336.452 272.359 334.476 272.758 332.499Z"/><path fill="#FFD8A3" transform="matrix(0.117187 0 0 0.117187 0 -7.62939e-06)" d="M271.406 322.679L272.176 322.797C273.004 323.899 272.211 325.949 271.406 326.877C269.77 325.134 269.059 323.975 271.406 322.679Z"/><path fill="#040305" transform="matrix(0.117187 0 0 0.117187 0 -7.62939e-06)" d="M255.287 343.647C257.894 345.278 261.1 346.147 264.002 347.136L278.852 352.216C281.077 352.984 291.974 355.517 289.239 359.57C288.62 360.489 288.07 360.735 287.001 360.932C279.215 359.911 260.906 351.676 252.026 349.035C253.181 347.271 254.261 345.49 255.287 343.647Z"/><path fill="#E8E5E8" transform="matrix(0.117187 0 0 0.117187 0 -7.62939e-06)" d="M213.54 334.357C217.716 330.462 223.55 326.257 228.608 323.632C231.453 343.253 242.598 324.553 250.012 336.046C248.398 345.187 233.171 351.615 225.636 355.991C224.692 354.217 223.712 352.454 222.912 350.609C219.407 345.48 216.924 339.605 213.54 334.357Z"/><path fill="#C5B1C8" transform="matrix(0.117187 0 0 0.117187 0 -7.62939e-06)" d="M250.012 336.046C248.398 345.187 233.171 351.615 225.636 355.991C224.692 354.217 223.712 352.454 222.912 350.609C224.525 349.948 226.045 348.959 227.585 348.135L236.971 343.189C239.885 341.679 248.735 338.739 250.012 336.046Z"/><path fill="#FA9091" transform="matrix(0.117187 0 0 0.117187 0 -7.62939e-06)" d="M225.636 292.796C231.04 292.488 243.835 297.566 250.012 299.126C247.121 305.729 244.823 312.464 242.482 319.276L239.899 326.877C238.552 326.927 237.181 327.15 235.888 327.523C234.497 323.425 232.287 319.632 230.971 315.594C228.678 308.56 227.19 300.107 225.636 292.796Z"/><path fill="#E8E5E8" transform="matrix(0.117187 0 0 0.117187 0 -7.62939e-06)" d="M218.011 289.118C220.209 291.177 224.557 313.078 225.636 317.881C220.925 321.733 215.994 325.26 211.044 328.794C209.861 329.899 207.16 330.103 205.579 330.969L212.729 306.747C214.422 300.879 215.804 294.814 218.011 289.118Z"/><path fill="#040305" transform="matrix(0.117187 0 0 0.117187 0 -7.62939e-06)" d="M347.406 101.745C347.488 101.731 347.568 101.71 347.651 101.703C391.638 98.2435 404.986 153.158 376.656 182.826C392.616 188.409 402.538 195.777 412.387 208.95C418.129 209.271 423.282 210.595 424.648 217.172C425.148 219.573 425.379 234.83 425.005 237.242C430.943 241.635 431.589 245.998 428.565 252.607C431.178 257.16 431.482 260.637 428.565 265.301C436.6 277.763 424.544 281.292 414.241 280.755C417.58 298.79 405.235 296.245 392.759 296.237L359.313 296.247L315.216 296.248C298.332 296.252 286.843 301.329 287.001 280.755C270.376 280.771 273.816 276.802 273.306 264.984C273.078 259.7 273.587 255.436 273.424 251.09C273.151 243.838 271.295 240.701 278.259 235.782C278.823 222.992 274.056 207.958 292.914 208.244C299.709 194.448 313.308 188.534 326.688 182.826C315.726 173.98 311.209 160.658 311.16 147.034C311.073 122.962 322.804 105.71 347.406 101.745ZM295.211 235.782C299.954 236.635 302.766 237.938 304.498 242.836C310.507 243.85 309.707 265.118 308.752 269.647C310.283 275.584 309.233 279.031 304.498 282.715L400.351 282.741C402.963 282.762 406.103 283.265 408.64 282.715L408.546 281.877C406.445 279.265 392.881 277.114 400.898 265.301C398.3 260.798 398.016 257.22 400.898 252.607C396.253 244.515 400.008 238.417 408.64 236.653L408.64 213.791L295.211 213.791C295.113 221.117 295.201 228.454 295.211 235.782ZM384.079 194.342C386.701 195.215 392.182 198.246 394.511 198.45C391.235 196.071 386.466 192.578 382.558 191.594C380.895 191.392 377.382 189.008 376.016 189.709C378.691 191.427 382.149 191.666 384.079 194.342ZM278.259 257.492C281.254 257.82 296.105 258.007 299.114 257.492C299.122 256.717 299.146 256.136 298.799 255.417C296.592 254.716 279.023 252.829 278.259 257.492ZM332.235 140.248C330.477 142.028 329.068 143.947 328.18 146.308C330.79 150.482 334.255 154.032 338.972 155.631C340.898 155.307 342.113 154.875 343.686 153.651C346.116 151.194 348.11 148.283 349.863 145.311C344.071 144.465 337.42 140.322 332.235 140.248ZM360.171 153.651C371.594 161.62 376.977 143.577 371.181 140.276L370.853 140.248C356.907 144.163 350.864 142.51 360.171 153.651Z"/><path fill="#040305" transform="matrix(0.117187 0 0 0.117187 0 -7.62939e-06)" d="M348.546 222.318C364.847 221.021 379.121 233.166 380.451 249.464C381.781 265.763 369.664 280.061 353.368 281.423C337.027 282.789 322.679 270.631 321.346 254.286C320.013 237.942 332.199 223.619 348.546 222.318Z"/><path fill="#FA9091" transform="matrix(0.117187 0 0 0.117187 0 -7.62939e-06)" d="M349.498 227.996C362.638 227.189 373.959 237.157 374.82 250.294C375.681 263.432 365.759 274.792 352.625 275.707C339.416 276.627 327.975 266.635 327.109 253.422C326.242 240.209 336.281 228.809 349.498 227.996Z"/><path fill="#040305" transform="matrix(0.117187 0 0 0.117187 0 -7.62939e-06)" d="M346.265 256.759C348.573 262.708 355.798 262.436 356.054 258.148C356.339 253.372 347.137 255.834 343.39 251.243C340.137 247.258 341.177 239.951 346.178 237.939C351.581 235.766 347.425 235.494 349.927 233.252C352.424 231.013 353.99 234.557 353.813 236.653C360.31 238.064 364.561 244.846 359.229 245.938C354.634 246.879 355.832 240.826 350.428 242.836C345.979 244.725 348.568 247.821 352.075 248.379C354.332 249.043 356.465 249.316 358.471 250.688C366.505 256.186 362.385 265.687 353.813 267.254C354.262 272.581 349.382 273.569 348.892 267.782C344.509 266.847 340.078 263.798 340.807 258.635C341.668 257.456 344.83 257.085 346.265 256.759Z"/><path fill="#4EAC9D" transform="matrix(0.117187 0 0 0.117187 0 -7.62939e-06)" d="M317.148 145.311C316.548 118.549 342.237 98.0766 365.94 110.907C369.568 112.509 372.876 115.209 375.693 117.965C383.295 123.953 385.941 135.949 385.717 145.311L379.122 145.311C375.7 126.822 363.18 138.435 352.075 140.248C339.884 138.634 328.89 126.675 323.07 145.311C321.162 145.283 319.007 145.589 317.148 145.311Z"/><path fill="#A0E2FD" transform="matrix(0.117187 0 0 0.117187 0 -7.62939e-06)" d="M317.148 145.311C316.548 118.549 342.237 98.0766 365.94 110.907C369.568 112.509 372.876 115.209 375.693 117.965C373.641 118.018 365.744 114.336 362.957 113.431C353.25 111.528 344.231 111.766 335.768 117.522C327.465 123.17 320.38 134.961 321.538 145.311C320.088 145.293 318.592 145.205 317.148 145.311Z"/><path fill="#4EAC9D" transform="matrix(0.117187 0 0 0.117187 0 -7.62939e-06)" d="M317.148 150.786C319.386 150.735 321.631 150.779 323.87 150.786C325.42 152.294 326.784 153.982 328.18 155.631C328.909 156.167 329.859 156.965 330.281 157.764C340.071 163.474 346.161 161.445 352.075 152.005L353.813 153.651C354.714 155.17 355.625 156.442 356.802 157.764C365.767 163.762 369.562 160.916 376.321 155.878L376.656 155.631C377.381 153.902 378.108 152.364 379.122 150.786C381.323 150.824 383.516 150.855 385.717 150.786L384.844 155.631C379.148 178.661 356.312 198.764 334.574 181.921C326.866 178.902 320.178 167.123 318.521 159.514C317.565 156.66 317.29 153.777 317.148 150.786Z"/><path fill="#228E83" transform="matrix(0.117187 0 0 0.117187 0 -7.62939e-06)" d="M379.122 150.786C381.323 150.824 383.516 150.855 385.717 150.786L384.844 155.631C379.148 178.661 356.312 198.764 334.574 181.921C336.6 181.659 338.659 182.47 340.592 183.004C356.44 187.384 367.178 181.22 373.625 166.267C367.944 166.266 358.445 164.392 356.802 157.764C365.767 163.762 369.562 160.916 376.321 155.878L376.656 155.631C377.381 153.902 378.108 152.364 379.122 150.786Z"/><path fill="#A0E2FD" transform="matrix(0.117187 0 0 0.117187 0 -7.62939e-06)" d="M379.122 150.786C381.323 150.824 383.516 150.855 385.717 150.786L384.844 155.631C382.114 155.677 379.385 155.751 376.656 155.631C377.381 153.902 378.108 152.364 379.122 150.786Z"/><path fill="#228E83" transform="matrix(0.117187 0 0 0.117187 0 -7.62939e-06)" d="M352.075 152.005L353.813 153.651C350.465 158.493 347.956 164.224 341.459 165.327C336.345 166.195 331.768 162.524 330.281 157.764C340.071 163.474 346.161 161.445 352.075 152.005Z"/><path fill="#A0E2FD" transform="matrix(0.117187 0 0 0.117187 0 -7.62939e-06)" d="M317.148 150.786C319.386 150.735 321.631 150.779 323.87 150.786C325.42 152.294 326.784 153.982 328.18 155.631C325.605 156.125 321.615 154.159 319.702 156.477C318.969 157.364 319.183 158.627 318.521 159.514C317.565 156.66 317.29 153.777 317.148 150.786Z"/><path fill="#2AACEC" transform="matrix(0.117187 0 0 0.117187 0 -7.62939e-06)" d="M332.235 187.623C345.288 196.639 359.751 193.699 372.701 186.768C373.698 187.406 374.77 188.011 375.693 188.751C378.058 189.523 380.393 190.348 382.558 191.594C380.895 191.392 377.382 189.008 376.016 189.709C378.691 191.427 382.149 191.666 384.079 194.342C386.701 195.215 392.182 198.246 394.511 198.45C398.824 201.262 401.825 204.779 405.543 208.244L340.669 208.241C328.616 208.242 316.548 208.109 304.498 208.244C302.976 208.279 301.445 208.245 299.922 208.244C303.237 202.353 307.525 198.253 313.457 195.02C316.455 193.386 329.549 186.838 332.235 187.623Z"/><path fill="#A0E2FD" transform="matrix(0.117187 0 0 0.117187 0 -7.62939e-06)" d="M299.922 208.244C303.237 202.353 307.525 198.253 313.457 195.02C316.455 193.386 329.549 186.838 332.235 187.623C332.408 189.467 333.357 189.778 334.574 190.889C325.563 194.767 316.573 198.267 308.8 204.414C307.301 205.599 306.007 207.19 304.498 208.244C302.976 208.279 301.445 208.245 299.922 208.244Z"/><path fill="#187DC7" transform="matrix(0.117187 0 0 0.117187 0 -7.62939e-06)" d="M332.235 187.623C345.288 196.639 359.751 193.699 372.701 186.768C373.698 187.406 374.77 188.011 375.693 188.751C374.402 189.196 373.644 189.939 372.701 190.889L372.432 190.939C369.562 191.5 367.618 193.321 365.048 194.503C353.728 199.711 344.148 198.135 334.574 190.889C333.357 189.778 332.408 189.467 332.235 187.623Z"/><path fill="#A0E2FD" transform="matrix(0.117187 0 0 0.117187 0 -7.62939e-06)" d="M375.693 188.751C378.058 189.523 380.393 190.348 382.558 191.594C380.895 191.392 377.382 189.008 376.016 189.709C378.691 191.427 382.149 191.666 384.079 194.342C380.265 193.47 376.447 192.049 372.701 190.889C373.644 189.939 374.402 189.196 375.693 188.751Z"/><path fill="#B7C4DF" transform="matrix(0.117187 0 0 0.117187 0 -7.62939e-06)" d="M304.498 242.836C310.507 243.85 309.707 265.118 308.752 269.647C310.283 275.584 309.233 279.031 304.498 282.715L400.351 282.741C402.963 282.762 406.103 283.265 408.64 282.715C408.045 286.557 409.823 289.882 404.62 290.302C399.718 290.698 394.603 290.429 389.679 290.43L320.505 290.431C317.332 290.435 295.505 291.335 293.927 289.683C292.17 287.844 292.832 283.164 292.914 280.755C306.467 281.033 304.186 275.954 304.269 265.019C304.291 262.138 304.944 259.251 304.748 256.36C304.461 252.127 303.45 255.644 304.504 250.279C304.958 247.968 304.641 245.17 304.498 242.836Z"/><path fill="#1CA9C1" transform="matrix(0.117187 0 0 0.117187 0 -7.62939e-06)" d="M278.259 245.164C278.52 243.798 278.621 242.866 279.707 241.921C282.542 240.914 296.875 239.601 299.114 244.254C299.202 246.034 299.369 247.831 299.114 249.603C292.17 249.612 285.201 249.739 278.259 249.603C278.242 248.135 278.158 246.627 278.259 245.164Z"/><path fill="#A0E2FD" transform="matrix(0.117187 0 0 0.117187 0 -7.62939e-06)" d="M278.259 245.164C278.52 243.798 278.621 242.866 279.707 241.921C282.542 240.914 296.875 239.601 299.114 244.254C297.876 246.46 281.492 245.071 278.259 245.164Z"/><path fill="#1CA9C1" transform="matrix(0.117187 0 0 0.117187 0 -7.62939e-06)" d="M278.259 267.782C283.822 267.529 298.878 265.037 299.114 271.185C298.892 277.978 285.829 275.684 280.647 275.24C278.136 275.025 278.275 273.305 278.259 271.185L278.259 267.782Z"/><path fill="#A0E2FD" transform="matrix(0.117187 0 0 0.117187 0 -7.62939e-06)" d="M278.259 267.782C283.822 267.529 298.878 265.037 299.114 271.185L278.259 271.185L278.259 267.782Z"/><path fill="#72C7F8" transform="matrix(0.117187 0 0 0.117187 0 -7.62939e-06)" d="M406.704 249.603C396.964 242.627 419.789 240.338 424.154 244.254C429.34 251.796 409.138 250.112 406.704 249.603Z"/><path fill="#A0E2FD" transform="matrix(0.117187 0 0 0.117187 0 -7.62939e-06)" d="M406.704 249.603C396.964 242.627 419.789 240.338 424.154 244.254C421.343 247.101 413.728 245.979 409.983 246.003L409.688 246.005C408.408 246.922 407.199 248.059 406.704 249.603Z"/><path fill="#2AACEC" transform="matrix(0.117187 0 0 0.117187 0 -7.62939e-06)" d="M406.704 267.782C410.495 267.772 421.519 266.957 424.03 269.521C430.08 275.699 410.177 277.904 405.543 273.359C403.8 271.489 404.696 268.984 406.704 267.782Z"/><path fill="#72C7F8" transform="matrix(0.117187 0 0 0.117187 0 -7.62939e-06)" d="M405.543 273.359C403.8 271.489 404.696 268.984 406.704 267.782C412.304 268.72 407.773 271.44 405.543 273.359Z"/><path fill="#72C7F8" transform="matrix(0.117187 0 0 0.117187 0 -7.62939e-06)" d="M405.543 261.329C398.233 253.566 420.744 255.816 422.764 255.819C425.732 256.789 426.391 261.141 423.104 262.11C420.533 262.868 408.474 263.227 405.543 261.329Z"/><path fill="#A0E2FD" transform="matrix(0.117187 0 0 0.117187 0 -7.62939e-06)" d="M405.543 261.329C398.233 253.566 420.744 255.816 422.764 255.819C420.311 259.573 414.698 256.555 410.869 257.776C408.72 258.462 407.543 260.484 405.543 261.329Z"/><path fill="#49A2FB" transform="matrix(0.117187 0 0 0.117187 0 -7.62939e-06)" d="M283.954 218.204C284.497 215.914 286.78 213.078 289.47 213.791C289.928 221.019 289.465 228.522 289.47 235.782C287.619 235.857 285.804 235.873 283.954 235.782C283.959 230.001 284.345 223.953 283.954 218.204Z"/><path fill="#72C7F8" transform="matrix(0.117187 0 0 0.117187 0 -7.62939e-06)" d="M283.954 218.204C284.497 215.914 286.78 213.078 289.47 213.791C289.283 215.697 289.39 217.587 289.47 219.497C287.914 219.508 285.407 219.867 284.159 218.799L283.954 218.204Z"/><path fill="#B7C4DF" transform="matrix(0.117187 0 0 0.117187 0 -7.62939e-06)" d="M414.241 214.643C423.069 215.802 419.528 229.34 419.508 237.242L414.241 237.242L414.241 214.643Z"/><path fill="#2AACEC" transform="matrix(0.117187 0 0 0.117187 0 -7.62939e-06)" d="M278.259 257.492C281.254 257.82 296.105 258.007 299.114 257.492C299.204 259.093 299.191 260.65 299.114 262.252C292.215 262.554 285.174 262.258 278.259 262.252C278.305 260.666 278.394 259.075 278.259 257.492Z"/><path fill="#040305" transform="matrix(0.117187 0 0 0.117187 0 -7.62939e-06)" d="M400.898 149.079C406.281 149.605 419.033 156.378 423.603 159.517C444.405 173.807 456.962 196.473 457.528 221.882C457.826 235.312 458.445 253.273 457.176 266.47C453.924 300.301 426.929 328.457 393.02 332.028C386.917 332.67 380.843 332.367 374.725 332.499C372.728 332.349 371.608 330.477 372.382 328.514C373.589 325.454 388.826 326.865 392.699 326.421C418.593 323.456 440.61 304.551 448.734 279.88C452.84 267.41 453.284 223.063 450.468 208.845C445.638 184.461 428.614 166.799 406.581 156.927C403.586 155.586 393.574 152.182 400.898 149.079Z"/><path fill="#040305" transform="matrix(0.117187 0 0 0.117187 0 -7.62939e-06)" d="M299.922 149.079C301.923 148.627 303.662 150.672 303.168 152.63C302.511 155.232 295.657 156.378 293.515 157.101C271.951 164.377 255.941 185.486 251.306 207.201C250.269 212.062 251.267 220.305 247.597 222.711C242.252 222.995 244.237 215.192 244.679 211.996C248.487 184.489 265.224 161.557 291.521 151.597C294.213 150.577 297.064 149.462 299.922 149.079Z"/></svg>