<?xml version="1.0" encoding="utf-8" ?><svg xmlns="http://www.w3.org/2000/svg" xmlns:xlink="http://www.w3.org/1999/xlink" width="60" height="60" viewBox="0 0 60 60"><path fill="#7B468A" transform="matrix(0.117187 0 0 0.117187 -0.000488281 0)" d="M86.4897 95.0596L87.1863 95.0462C109.945 94.8107 132.731 95.0579 155.493 95.0584L378.722 95.0445C390.426 95.0416 402.947 94.9911 407.09 109.464C408.573 114.649 407.887 121.082 407.886 126.434L407.873 145.953C419.105 143.456 432.037 137.526 441.723 147.034C446.27 151.498 447.743 156.793 447.794 163L447.817 389.112C447.834 406.547 443.321 416.956 423.957 416.991L131.321 417.004C104.652 417.006 104.475 410.249 104.472 387.855L104.484 362.159C97.835 363.553 91.1758 367.121 84.6227 367.947C74.9735 369.163 65.6774 360.998 64.6938 351.502C64.0619 345.4 64.2421 339.087 64.2474 332.959L64.2533 126.532C64.2594 110.714 66.0144 96.8388 86.4897 95.0596Z"/><path fill="#39C7B1" transform="matrix(0.117187 0 0 0.117187 -0.000488281 0)" d="M80.347 252.643C83.9032 249.053 88.1562 245.84 92.0366 242.591L146.974 195.629C153.636 189.978 160.123 183.735 167.714 179.35C186.293 168.618 219.352 166.277 240.488 171.989C246.21 171.582 254.106 173.089 260.065 173.597C291.728 176.295 321.854 176.546 353.562 172.827C358.022 172.303 362.424 171.368 366.872 170.838C373.159 201.687 400.693 222.131 431.634 222.192L431.634 275.631C428.887 280.394 420.513 286.568 416.3 290.336L381.845 321.012C378.185 324.26 374.603 327.594 370.52 330.317C334.248 354.512 275.188 337.392 234.857 333.653C206.151 330.992 173.556 331.847 145.167 337.077C138.222 306.332 112.807 281.267 80.347 281.577C80.0201 280.954 80.3489 255.673 80.347 252.643Z"/><path fill="#51E7D6" transform="matrix(0.117187 0 0 0.117187 -0.000488281 0)" d="M80.347 252.643C83.9032 249.053 88.1562 245.84 92.0366 242.591L146.974 195.629C153.636 189.978 160.123 183.735 167.714 179.35C186.293 168.618 219.352 166.277 240.488 171.989L240.285 172.039C235.972 173.067 231.53 173.675 227.2 174.694C173.122 187.422 138.555 229.064 97.9025 263.884C91.4524 269.409 84.6886 274.085 80.347 281.577C80.0201 280.954 80.3489 255.673 80.347 252.643Z"/><path fill="#F8C832" transform="matrix(0.117187 0 0 0.117187 -0.000488281 0)" d="M252.087 186.788C290.014 184.545 322.589 213.448 324.876 251.373C327.163 289.297 298.298 321.905 260.377 324.238C222.392 326.574 189.717 297.65 187.426 259.662C185.135 221.675 214.097 189.034 252.087 186.788Z"/><path fill="#7B468A" transform="matrix(0.117187 0 0 0.117187 -0.000488281 0)" d="M255.17 204.3C260.331 204.198 264.22 208.737 263.574 213.788C286.867 221.854 287.306 251.01 271.784 246.349C265.019 244.317 267.603 237.894 265.021 233.13C258.531 221.156 240.702 231.784 248.138 243.785C253.18 251.922 269.223 244.947 278.608 260.75C285.403 272.192 282.377 287.619 270.997 294.873C268.895 296.213 266.586 297.196 264.434 298.448C263.879 302.65 261.943 304.972 257.777 306.238C252.19 307.161 249.602 303.519 248.748 298.448C241.366 295.386 235.013 290.618 232.432 282.679C230.509 276.762 229.548 266.559 237.245 264.448C246.268 261.973 246.235 272.693 247.41 277.126C250.847 290.093 270.647 282.323 266.04 270.573C263.674 264.537 258.494 264.811 253.141 263.862C227.342 259.29 222.039 223.505 248.748 213.788C248.184 208.695 250.17 205.623 255.17 204.3Z"/><path fill="#EB6364" transform="matrix(0.117187 0 0 0.117187 -0.000488281 0)" d="M281.497 356.402C315.727 360.819 354.637 363.294 383.465 341.081C399.688 328.58 415.816 312.417 431.634 298.968L431.634 335.95C396.141 337.806 370.376 365.976 368.205 400.79L158.298 400.79C149.795 400.79 141.146 401.136 132.657 400.79C116.024 401.344 119.98 401.558 119.976 383.815L119.984 358.179C179.957 344.419 222.798 346.997 281.497 356.402Z"/><path fill="#F58B8B" transform="matrix(0.117187 0 0 0.117187 -0.000488281 0)" d="M119.984 358.179C179.957 344.419 222.798 346.997 281.497 356.402C275.552 358.887 268.421 359.632 262.092 360.835L235.46 366.066C218.595 369.441 144.471 388.556 132.657 400.79C116.024 401.344 119.98 401.558 119.976 383.815L119.984 358.179Z"/><path fill="#F58B8B" transform="matrix(0.117187 0 0 0.117187 -0.000488281 0)" d="M320.768 110.901L379.044 110.887C383.567 110.881 389.359 109.948 392.491 113.97C392.648 118.136 392.503 122.325 392.496 126.495L392.491 150.111C340.804 162.543 294.386 161.255 242.298 155.883C230.652 154.682 219.422 153.416 207.671 153.491C203.788 153.516 199.838 153.809 195.967 153.475C192.455 154.461 188.801 155.055 185.244 155.888C165.267 160.563 155.69 167.013 140.176 180.347L95.2292 218.92C90.3546 223.118 85.6879 227.88 80.347 231.475L80.347 188.267C124.885 188.007 158.89 156.088 158.738 110.901C164.547 110.557 170.56 110.891 176.389 110.896L320.768 110.901Z"/><path fill="#EB6364" transform="matrix(0.117187 0 0 0.117187 -0.000488281 0)" d="M320.768 110.901L379.044 110.887C383.567 110.881 389.359 109.948 392.491 113.97C392.648 118.136 392.503 122.325 392.496 126.495L392.491 150.111C340.804 162.543 294.386 161.255 242.298 155.883C230.652 154.682 219.422 153.416 207.671 153.491C203.788 153.516 199.838 153.809 195.967 153.475C199.197 151.593 205.385 150.472 209.176 149.412L225.705 144.638C237.635 141.147 314.797 116.739 320.768 110.901Z"/><path fill="#AFD370" transform="matrix(0.117187 0 0 0.117187 -0.000488281 0)" d="M86.4897 110.901L142.79 110.901C141.77 131.061 136.289 143.285 122.049 157.542C106.962 167.577 100.512 172.287 80.347 171.989L80.3433 135.307C80.3428 128.38 77.4064 112.558 86.4897 110.901Z"/><path fill="#F8C832" transform="matrix(0.117187 0 0 0.117187 -0.000488281 0)" d="M80.347 296.955C105.094 297.056 123.927 316.938 129.51 340.104C126.186 340.715 122.971 341.36 119.984 342.992C111.188 343.66 102.358 346.764 93.9732 349.47C90.2628 350.668 81.159 355.689 80.4521 348.945C79.8762 343.45 80.3563 337.559 80.3571 332.016L80.347 296.955Z"/><path fill="#AFD370" transform="matrix(0.117187 0 0 0.117187 -0.000488281 0)" d="M429.426 352.099L431.634 352.099L431.604 384.431C431.604 390.102 433.328 396.115 429.426 400.79C424.629 400.944 419.795 400.802 414.994 400.8L387.438 400.79L384.45 400.79C385.014 375.996 404.851 354.697 429.426 352.099Z"/><path fill="#F8C832" transform="matrix(0.117187 0 0 0.117187 -0.000488281 0)" d="M427.379 157.542C434.107 156.849 431.645 171.131 431.645 175.714L431.634 206.097C419.167 205.852 408.414 202.787 398.614 194.95C389.814 188.134 384.946 178.711 382.281 168.12C397.781 165.092 412.2 160.96 427.379 157.542Z"/></svg>