<?xml version="1.0" encoding="utf-8" ?><svg xmlns="http://www.w3.org/2000/svg" xmlns:xlink="http://www.w3.org/1999/xlink" width="60" height="60" viewBox="0 0 60 60"><path fill="#314776" transform="matrix(0.117187 0 0 0.117187 -0.000488281 -3.05176e-05)" d="M170.137 59.1847C182.467 58.9656 194.839 59.1885 207.174 59.1902L320.447 59.1896C340.077 59.1831 360.656 57.3153 367.563 82.152C369.646 89.643 368.839 98.1983 368.831 105.932L368.825 398.681C368.835 422.935 372.525 443.341 342.5 451.668C330.143 451.959 317.719 451.674 305.352 451.673L191.345 451.672C171.768 451.681 148.975 453.764 143.788 427.783C142.873 423.202 143.229 418.23 143.231 413.57L143.244 112.599C143.245 89.8998 139.664 64.8234 170.137 59.1847Z"/><path fill="#96D1EF" transform="matrix(0.117187 0 0 0.117187 -0.000488281 -3.05176e-05)" d="M271.338 120.218L357.531 120.218L357.531 377.682L241.375 377.682L154.235 377.682L154.235 120.218L271.338 120.218Z"/><path fill="#314776" transform="matrix(0.117187 0 0 0.117187 -0.000488281 -3.05176e-05)" d="M305.339 146.289C309.993 145.924 312.117 147.196 313.274 151.883C311.431 160.758 299.065 154.208 298.181 171.502C313.227 185.875 306.484 205.672 288.425 212.542L288.431 268.085C288.434 277.83 289.172 291.626 287.556 301.008C280.126 344.145 216.214 343.898 209.321 299.753C208.593 295.091 208.745 290.347 208.75 285.644L208.788 268.261C208.799 263.137 206.119 246.914 213.624 246.056C218.049 245.55 223.537 253.444 227.066 256.283C229.933 260.373 241.62 269.864 241.714 273.879C241.827 278.706 237.128 281.276 233.087 278.603C229.51 276.236 222.87 268.509 219.519 265.131L219.503 283.02C219.5 294.294 219.19 304.908 227.732 313.518C243.234 329.143 271.696 323.205 276.592 300.621C277.599 295.977 277.311 291.431 277.305 286.725L277.295 212.542C258.876 206.921 252.202 185.596 265.863 171.981C272.357 165.509 279.812 165.271 288.425 165.322C288.376 156.046 296.795 148.294 305.339 146.289Z"/><path fill="#96D1EF" transform="matrix(0.117187 0 0 0.117187 -0.000488281 -3.05176e-05)" d="M281.765 176.554C288.752 176.27 294.651 181.693 294.955 188.679C295.259 195.665 289.854 201.58 282.869 201.904C275.855 202.23 269.91 196.797 269.605 189.782C269.3 182.768 274.75 176.839 281.765 176.554Z"/><path fill="#D4D8DA" transform="matrix(0.117187 0 0 0.117187 -0.000488281 -3.05176e-05)" d="M154.235 388.944L357.531 388.944L357.541 410.546C357.576 420.086 358.577 427.285 351.913 434.973C347.35 439.625 341.299 440.641 335.063 440.704C297.565 441.084 260.022 440.699 222.52 440.702L187.809 440.714C157.678 440.728 154.225 439.132 154.224 410.602L154.235 388.944Z"/><path fill="#314776" transform="matrix(0.117187 0 0 0.117187 -0.000488281 -3.05176e-05)" d="M254.026 394.544C264.889 393.334 274.702 401.095 276.027 411.945C277.353 422.795 269.696 432.69 258.861 434.131C251.748 435.076 244.676 432.128 240.341 426.41C236.007 420.693 235.078 413.087 237.909 406.494C240.74 399.901 246.895 395.338 254.026 394.544Z"/><path fill="#D4D8DA" transform="matrix(0.117187 0 0 0.117187 -0.000488281 -3.05176e-05)" d="M254.638 405.631C257.772 404.997 261.004 406.102 263.095 408.521C265.186 410.939 265.812 414.297 264.732 417.307C263.652 420.316 261.035 422.51 257.883 423.048C253.112 423.863 248.57 420.696 247.683 415.938C246.796 411.179 249.893 406.589 254.638 405.631Z"/><path fill="#D4D8DA" transform="matrix(0.117187 0 0 0.117187 -0.000488281 -3.05176e-05)" d="M171.795 70.1889C181.48 70.0371 191.185 70.1856 200.872 70.189L308.87 70.1951C321.236 70.1946 342.995 67.166 351.897 76.5428C359.311 84.3531 357.735 98.6827 357.531 108.977L340.375 108.977L154.235 108.977C153.28 93.0201 152.093 73.5746 171.795 70.1889Z"/><path fill="#314776" transform="matrix(0.117187 0 0 0.117187 -0.000488281 -3.05176e-05)" d="M243.368 83.2473C248.615 83.2475 284.69 82.6485 287.049 83.7416C291.808 85.9473 290.637 92.9843 285.813 94.4858C279.736 94.4904 244.558 95.1548 241.687 93.9027C236.115 91.4728 238.261 84.561 243.368 83.2473Z"/><path fill="#314776" transform="matrix(0.117187 0 0 0.117187 -0.000488281 -3.05176e-05)" d="M225.416 83.1181C228.492 82.6243 231.394 84.6956 231.927 87.7656C232.459 90.8355 230.425 93.7633 227.362 94.3347C225.346 94.7109 223.283 93.9734 221.962 92.4042C220.642 90.8351 220.267 88.6769 220.982 86.7545C221.697 84.8322 223.391 83.4431 225.416 83.1181Z"/></svg>