<?xml version="1.0" encoding="utf-8" ?><svg xmlns="http://www.w3.org/2000/svg" xmlns:xlink="http://www.w3.org/1999/xlink" width="60" height="60" viewBox="0 0 60 60"><path fill="#34476A" transform="matrix(0.117187 0 0 0.117187 0 -1.90735e-06)" d="M324.614 127.63C329.878 127.295 335.352 127.622 340.631 127.632C364.271 127.679 379.825 125.976 393.498 149.322C408.436 126.481 421.657 127.635 447.327 127.62C452.245 127.618 457.514 127.251 462.388 127.755C473.931 128.946 464.192 149.205 461.135 154.131C444.114 181.564 417.121 174.191 411.78 183.32C404.896 195.088 414.498 228.06 420.798 239.322C422.345 242.087 424.826 243.904 426.895 246.238C450.785 273.194 440.341 319.928 423.705 347.739C398.219 390.342 345.607 410.2 297.823 412.743C283.247 413.519 289.048 412.185 275.92 417.741C264.754 422.467 247.777 428.152 243.858 411.556C190.287 410.261 140.637 383.115 113.798 336.513C106.136 322.417 100.69 306.876 97.355 291.198C96.1284 285.431 95.4772 277.272 93.6002 272.004C88.7978 267.761 82.639 265.11 77.5524 261.104C56.7173 244.693 47.1571 221.932 44.2102 196.218C48.3894 187.805 59.5619 195.426 66.4999 198.061L94.37 208.531C99.1317 210.28 103.885 212.257 108.759 213.666C127.185 208.379 145.577 200.933 164.246 195.452C180.738 190.61 178.765 196.891 175.506 211.14C170.084 234.848 161.677 248.443 143.327 263.199C174.706 295.027 212.261 298.593 251.61 277.848C271.253 267.492 290.31 254.685 310.099 244.078C321.609 237.909 359.141 220.729 372.183 225.391C376.046 213.859 380.031 199.821 376.543 187.803C371.662 170.984 331.744 182.407 320.53 142.9C318.927 137.251 316.992 129.282 324.614 127.63ZM332.223 139.73C336.868 154.367 347.778 161.69 361.879 165.495C379.203 170.17 387.812 172.629 389.543 194.264C392.197 194.325 394.839 194.399 397.493 194.264C399.69 156.505 426.888 174.316 446.552 153.866C450.218 149.773 452.868 144.932 454.617 139.73L438.741 139.718C413.511 139.721 407.513 144.223 399.456 167.204C398.364 170.318 397.534 175.07 393.382 175.239C383.772 175.63 389.442 140.629 358.443 139.619C350.907 139.373 343.235 139.737 335.683 139.73L332.223 139.73Z"/><path fill="#519ACE" transform="matrix(0.117187 0 0 0.117187 0 -1.90735e-06)" d="M57.5886 207.817C61.6926 208.576 65.463 210.46 69.3558 211.914L88.6012 218.916C109.517 226.422 102.894 227.56 123.137 221.104L151.661 211.973C155.754 210.636 159.758 209.027 163.891 207.817C161.926 224.518 151.47 241.25 138.655 251.778C135.023 254.762 129.093 256.632 128.052 261.539C129.815 269.518 147.805 282.623 154.877 287.123C196.767 313.775 230.126 303.596 269.669 281.09C301.674 262.875 342.589 233.368 380.158 236.564C405.964 238.76 424.943 253.674 428.757 279.595C427.794 297.439 428.266 305.899 421.915 324.41C415.948 321.643 409.337 322.49 402.942 322.497L355.499 322.495C335.946 322.474 338.371 319.732 331.589 338.007C319.75 369.904 292.932 402.317 259.165 410.894C249.649 413.311 258.765 404.369 260.981 401.856C274.266 386.786 285.598 364.405 286.925 344.183C283.814 337.147 278.372 339.898 272.465 341.369C211.924 356.443 153.919 326.736 113.615 283.17C103.96 272.735 108.491 277.901 105.189 265.918C104.11 262.005 97.5974 260.099 94.2106 258.229C73.7529 246.929 63.7422 229.292 57.5886 207.817Z"/><path fill="#6CB1E6" transform="matrix(0.117187 0 0 0.117187 0 -1.90735e-06)" d="M128.052 261.539C129.815 269.518 147.805 282.623 154.877 287.123C196.767 313.775 230.126 303.596 269.669 281.09C301.674 262.875 342.589 233.368 380.158 236.564C405.964 238.76 424.943 253.674 428.757 279.595C426.462 278.07 424.553 274.025 422.913 271.757C412.814 257.788 396.075 246.603 378.565 245.086C343.614 242.059 301.45 272.785 272.355 289.32C263.222 294.511 253.671 300.071 243.832 303.77C198.793 320.701 161.11 308.286 128.582 275.437C123.106 269.906 117.551 264.476 128.052 261.539Z"/><path fill="#34476A" transform="matrix(0.117187 0 0 0.117187 0 -1.90735e-06)" d="M372.708 267.272C382.205 266.353 390.637 273.333 391.51 282.835C392.383 292.336 385.363 300.735 375.857 301.562C366.416 302.384 358.086 295.421 357.219 285.984C356.352 276.547 363.275 268.184 372.708 267.272Z"/><path fill="#FEFEFE" transform="matrix(0.117187 0 0 0.117187 0 -1.90735e-06)" d="M373.045 279.424C374.863 278.877 376.836 279.354 378.202 280.673C379.569 281.992 380.116 283.946 379.634 285.782C379.151 287.619 377.714 289.052 375.876 289.529C373.109 290.247 370.276 288.618 369.505 285.865C368.734 283.112 370.308 280.248 373.045 279.424Z"/><path fill="#34476A" transform="matrix(0.117187 0 0 0.117187 0 -1.90735e-06)" d="M345.708 252.899C350.978 252.167 355.844 255.843 356.581 261.113C357.317 266.382 353.645 271.252 348.377 271.993C343.101 272.736 338.223 269.058 337.486 263.782C336.748 258.505 340.431 253.631 345.708 252.899Z"/><path fill="#5ED4DF" transform="matrix(0.117187 0 0 0.117187 0 -1.90735e-06)" d="M117.105 303.708C120.769 305.992 125.433 311.125 128.926 314.116C168.358 347.879 222.518 363.957 273.717 353.233C269.948 369.308 258.238 388.702 246.36 399.977C204.489 395.544 171.575 387.259 141.033 354.574C134.894 347.769 128.126 339.232 123.85 331.158C156.855 365.204 194.22 382.499 242.233 381.159C245.292 381.073 250.065 381.36 252.801 380.065C257.217 377.976 257.625 369.941 252.28 368.975C249.015 368.385 240.399 369.257 236.32 369.263C193.56 369.333 152.921 349.338 126.284 315.861C123.146 311.918 119.496 308.179 117.105 303.708Z"/><path fill="#5ED4DF" transform="matrix(0.117187 0 0 0.117187 0 -1.90735e-06)" d="M353.145 334.88C355.64 334.78 358.141 334.848 360.636 334.88C355.426 363.245 336.85 369.846 335.32 375.262C334.402 378.511 336.74 381.916 339.95 382.648C343.868 383.541 347.744 379.121 350.403 376.86C364.103 365.209 369.29 351.623 373.047 334.88L416.025 334.88C413.743 344.225 405.453 353.596 398.752 360.376C373.046 385.893 337.11 397.399 301.803 401.039C318.608 385.706 329.494 372.354 339.39 351.155C341.806 345.977 343.332 340.394 345.842 335.306L346.055 334.88C348.418 334.956 350.782 334.907 353.145 334.88Z"/><path fill="#519ACE" transform="matrix(0.117187 0 0 0.117187 0 -1.90735e-06)" d="M389.543 206.221C392.552 205.988 395.722 206.229 398.752 206.221C399.214 215.016 402.453 222.619 405.203 230.831L402.483 229.737C396.702 227.572 390.716 226.035 384.57 225.391C386.404 219.123 387.294 212.298 389.543 206.221Z"/></svg>