<?xml version="1.0" encoding="utf-8" ?><svg xmlns="http://www.w3.org/2000/svg" xmlns:xlink="http://www.w3.org/1999/xlink" width="60" height="60" viewBox="0 0 60 60"><path fill="#42456B" transform="matrix(0.117187 0 0 0.117187 -0.000488281 -3.05176e-05)" d="M140.748 67.7922C156.594 66.7488 165.681 77.1383 175.884 87.2734L199.139 110.698C212.425 124.316 228.519 135.653 222.869 157.417C220.067 168.211 214.499 172.767 207.076 180.323L194.484 193.263C184.409 203.546 180.756 203.959 188.904 217.821C211.053 255.504 251.862 297.988 288.94 319.151C294.796 322.493 300.739 326.178 307.584 326.836L330.389 304.018C351.561 282.948 373.12 284.304 393.782 305.1L403.612 314.964C419.736 331.129 444.372 348.52 443.881 372.55C443.496 391.394 429.452 401.07 417.125 413.019C312.191 518.919 128.588 325.899 85.3492 236.509C75.5366 216.222 67.4418 192.12 67.2419 169.322C67.0177 143.755 77.427 114.913 95.4515 96.5939C107.959 83.8816 121.501 67.9438 140.748 67.7922ZM170.329 168.444C165.134 173.311 147.614 189.653 144.232 195.127C139.95 202.057 139.696 211.618 142.184 219.242C148.288 237.95 168.913 264.592 181.135 279.667C208.559 313.495 245.742 349.867 286.379 365.569C311.849 375.411 316.51 368.686 334.588 351.611C337.227 349.119 341.052 344.197 345.221 344.992C345.915 345.124 394.957 393.695 402.457 402.125C410.864 393.595 425.65 383.225 425.361 370.67C425.116 360.047 416.796 354.501 410.025 347.512L391.809 329.067C381.286 318.398 367.581 299.231 351.023 310.405C337.882 319.272 322.117 344.895 306.954 345.29C288.719 345.765 255.651 319.544 241.882 307.649C218.169 287.163 196.782 263.039 179.368 237.049C170.568 223.916 160.847 208.794 170.167 193.01C172.927 188.334 177.711 184.441 181.506 180.571L196.721 164.897C209.842 151.274 209.323 146.753 196.208 133.561L164.667 101.719C156.128 93.0914 145.869 80.1841 132.263 87.9185C127.144 90.8284 114.318 103.795 110.173 108.61C113.24 110.867 115.97 114.036 118.688 116.714L158.539 156.437C162.479 160.391 166.641 164.255 170.329 168.444Z"/><path fill="#92CA9C" transform="matrix(0.117187 0 0 0.117187 -0.000488281 -3.05176e-05)" d="M110.173 108.61C113.24 110.867 115.97 114.036 118.688 116.714L158.539 156.437C162.479 160.391 166.641 164.255 170.329 168.444C165.134 173.311 147.614 189.653 144.232 195.127C139.95 202.057 139.696 211.618 142.184 219.242C148.288 237.95 168.913 264.592 181.135 279.667C208.559 313.495 245.742 349.867 286.379 365.569C311.849 375.411 316.51 368.686 334.588 351.611C337.227 349.119 341.052 344.197 345.221 344.992C345.915 345.124 394.957 393.695 402.457 402.125C386.372 418.488 363.069 426.363 340.393 425.77C248.189 423.362 83.2624 260.021 86.0191 164.897C86.6206 144.141 94.9294 122.984 110.173 108.61Z"/></svg>