<?xml version="1.0" encoding="utf-8" ?><svg xmlns="http://www.w3.org/2000/svg" xmlns:xlink="http://www.w3.org/1999/xlink" width="400" height="400" viewBox="0 0 400 400"><path fill="#8F81FE" transform="matrix(0.390625 0 0 0.390625 0 3.05176e-05)" d="M326.065 219.801C333.772 205.786 343.103 192.528 352.024 179.266C368.556 154.424 386.1 130.272 404.614 106.87C415.924 92.6334 427.802 78.9088 439.572 65.0572C449.249 53.6689 459.222 39.1262 471.872 30.9972C481.845 24.588 497.268 23.6807 508.603 26.3089C514.455 27.6657 520.377 30.3062 525.092 34.0524C536.54 43.1471 545.87 55.5923 555.183 66.7824C593.974 114.186 629.552 164.13 661.68 216.28C676.15 240.267 693.855 273.138 702.418 299.527C705.164 307.988 706.789 316.495 708.858 325.116C718.031 318.195 736.274 306.004 748.022 307.446C753.052 308.064 757.198 311.622 760.091 315.579C778.395 340.616 783.51 413.478 785.085 444.488C785.705 447.848 786.12 452.186 785.575 455.566C796.987 456.033 808.442 455.655 819.835 456.324C859.547 456.764 899.292 456.055 939.014 456.239C952.181 456.3 965.484 455.93 978.632 456.441C980.998 441.396 984.217 426.935 985.224 411.671C989.594 345.629 970.87 280.121 932.258 226.365C898.688 180.263 858.217 147.129 806.594 122.808C794.074 116.91 781.115 112.155 768.344 106.859C771.079 98.3244 774.225 89.9593 777.091 81.4752C796.225 87.4949 814.086 95.8396 831.817 105.164C895.023 138.401 944.416 185.018 977.679 248.667C1001.97 295.144 1015.11 349.692 1013.2 402.22C1012.08 433.227 1005.8 464.931 996.505 494.492C993.49 504.086 987.239 514.767 985.852 524.375C984.473 533.922 985.781 544.44 985.907 554.075C986.109 569.448 985.928 584.842 985.939 600.217C985.724 664.343 985.906 728.468 986.484 792.591C997.832 810.826 999.641 831.468 994.864 852.226C987.848 882.705 969.978 911.994 943.044 928.687C913.117 947.235 879.013 948.231 845.088 945.431C828.801 944.069 812.599 941.832 796.552 938.73L796.636 973.119C796.634 979.47 796.207 986.174 796.924 992.475L601.593 992.41C565.968 992.413 529.555 991.628 494.017 992.607C461.683 993.187 429.251 992.908 396.908 992.907L217.109 992.452C202.074 992.165 186.975 992.485 171.936 992.589C138.163 993.197 104.376 992.152 70.6059 992.712C63.1658 992.835 55.7113 992.452 48.2805 992.843C50.5125 983.242 52.1495 973.434 54.209 963.783C58.3722 944.357 62.8939 925.011 67.7718 905.752C88.7292 823.691 114.068 743.022 139.724 662.34C146.05 642.546 152.265 622.716 158.367 602.852C164.265 583.771 169.952 564.48 177.982 546.16C184.113 532.174 193.612 517.767 205.891 508.414C224.67 494.109 255.558 486.295 278.113 478.376C300.926 470.498 323.617 462.273 346.18 453.703C335.634 441.657 326.135 428.721 316.249 416.135C307.502 404.998 297.939 394.221 290.762 381.968C286.211 374.323 282.788 366.061 280.599 357.437C270.434 316.974 287.141 293.207 304.889 259.731C311.945 246.422 318.302 232.724 326.065 219.801ZM645.598 455.032C663.862 454.657 682.153 455.033 700.421 455.064C715.581 455.089 730.867 454.689 746.011 455.208C752.878 455.534 780.328 457.186 785.134 455.478C779.184 452.584 763.984 449.956 757.267 449.34C725.575 446.143 696.261 441.715 666.847 428.967C659.448 437.392 652.36 446.086 645.598 455.032Z"/><path fill="#FEB7C0" transform="matrix(0.390625 0 0 0.390625 0 3.05176e-05)" d="M777.091 81.4752C796.225 87.4949 814.086 95.8396 831.817 105.164C895.023 138.401 944.416 185.018 977.679 248.667C1001.97 295.144 1015.11 349.692 1013.2 402.22C1012.08 433.227 1005.8 464.931 996.505 494.492C993.49 504.086 987.239 514.767 985.852 524.375C984.473 533.922 985.781 544.44 985.907 554.075C986.109 569.448 985.928 584.842 985.939 600.217C985.724 664.343 985.906 728.468 986.484 792.591C997.832 810.826 999.641 831.468 994.864 852.226C987.848 882.705 969.978 911.994 943.044 928.687C913.117 947.235 879.013 948.231 845.088 945.431C828.801 944.069 812.599 941.832 796.552 938.73L796.636 973.119C796.634 979.47 796.207 986.174 796.924 992.475L601.593 992.41C565.968 992.413 529.555 991.628 494.017 992.607L494 548.084C526.52 554.719 553.772 548.179 583.561 535.343L583.459 455.116C604.14 454.603 624.909 454.99 645.598 455.032C663.862 454.657 682.153 455.033 700.421 455.064C715.581 455.089 730.867 454.689 746.011 455.208C752.878 455.534 780.328 457.186 785.134 455.478L785.575 455.566C796.987 456.033 808.442 455.655 819.835 456.324C859.547 456.764 899.292 456.055 939.014 456.239C952.181 456.3 965.484 455.93 978.632 456.441C980.998 441.396 984.217 426.935 985.224 411.671C989.594 345.629 970.87 280.121 932.258 226.365C898.688 180.263 858.217 147.129 806.594 122.808C794.074 116.91 781.115 112.155 768.344 106.859C771.079 98.3244 774.225 89.9593 777.091 81.4752Z"/><path fill="#5C49E6" transform="matrix(0.390625 0 0 0.390625 0 3.05176e-05)" d="M583.561 535.343L583.844 700.628L583.585 756.385C583.53 768.541 583.173 780.784 583.992 792.919C613.978 792.154 643.978 792.149 673.965 792.903C673.381 795.86 672.622 798.767 673.428 801.76C675.23 808.45 679.533 815.373 682.72 821.512C694.829 844.877 708.322 867.499 723.128 889.255C726.428 894.182 729.629 898.812 734.56 902.257C746.957 898.065 758.136 890.625 769.466 884.182L808.018 862.497L842.258 843.236C848.927 839.537 855.986 836.327 862.263 831.985C865.389 829.822 867.106 828.044 868.801 824.583C873.48 815.029 875.08 802.544 876.088 791.994C898.288 792.455 920.493 792.644 942.698 792.561C957.316 792.551 971.87 791.961 986.484 792.591C997.832 810.826 999.641 831.468 994.864 852.226C987.848 882.705 969.978 911.994 943.044 928.687C913.117 947.235 879.013 948.231 845.088 945.431C828.801 944.069 812.599 941.832 796.552 938.73L796.636 973.119C796.634 979.47 796.207 986.174 796.924 992.475L601.593 992.41C565.968 992.413 529.555 991.628 494.017 992.607L494 548.084C526.52 554.719 553.772 548.179 583.561 535.343Z"/><path fill="#FE314F" transform="matrix(0.390625 0 0 0.390625 0 3.05176e-05)" d="M746.011 455.208C752.878 455.534 780.328 457.186 785.134 455.478L785.575 455.566C796.987 456.033 808.442 455.655 819.835 456.324C818.581 460.118 819.529 504.961 819.529 512.526L819.644 701.734L820.055 760.484C820.079 770.781 820.549 781.354 819.581 791.6C817.095 791.633 814.591 791.514 812.106 791.464C800.525 782.302 789.467 772.337 778.237 762.749C767.475 753.561 756.253 744.578 746.009 734.817L746.011 455.208Z"/><path fill="#5C49E6" transform="matrix(0.390625 0 0 0.390625 0 3.05176e-05)" d="M813.762 792.478C822.482 792.071 831.359 792.519 840.11 792.39C838.677 795.499 837.042 798.547 835.511 801.611L832.739 807.381C825.984 803.154 819.597 797.888 813.762 792.478Z"/><path fill="#5C49E6" transform="matrix(0.390625 0 0 0.390625 0 3.05176e-05)" d="M326.065 219.801C333.772 205.786 343.103 192.528 352.024 179.266C368.556 154.424 386.1 130.272 404.614 106.87C415.924 92.6334 427.802 78.9088 439.572 65.0572C449.249 53.6689 459.222 39.1262 471.872 30.9972C481.845 24.588 497.268 23.6807 508.603 26.3089C514.455 27.6657 520.377 30.3062 525.092 34.0524C536.54 43.1471 545.87 55.5923 555.183 66.7824C593.974 114.186 629.552 164.13 661.68 216.28C655.014 215.482 648.089 212.45 641.66 210.402C632.088 207.352 622.391 204.413 612.648 201.97C573.76 192.22 533.019 188.309 493 187.998C454.768 187.967 415.773 193.606 378.665 202.715C372.649 204.192 366.599 205.653 360.695 207.532C355.041 209.33 349.462 211.576 343.658 212.838C338.031 215.909 332.34 218.379 326.065 219.801Z"/><path fill="#C3BDF1" transform="matrix(0.390625 0 0 0.390625 0 3.05176e-05)" d="M343.658 212.838C357.241 191.412 372.538 171.206 387.71 150.902C403.61 129.337 419.833 108.012 436.374 86.9343C447.942 72.314 461.337 53.145 475.191 41.0553C480.308 36.5899 486.545 34.2039 492.886 32.0279C493.306 50.8688 492.936 69.7514 492.927 88.5976L493 187.998C454.768 187.967 415.773 193.606 378.665 202.715C372.649 204.192 366.599 205.653 360.695 207.532C355.041 209.33 349.462 211.576 343.658 212.838Z"/><path fill="#FE314F" transform="matrix(0.390625 0 0 0.390625 0 3.05176e-05)" d="M708.858 325.116C718.031 318.195 736.274 306.004 748.022 307.446C753.052 308.064 757.198 311.622 760.091 315.579C778.395 340.616 783.51 413.478 785.085 444.488C785.705 447.848 786.12 452.186 785.575 455.566L785.134 455.478C779.184 452.584 763.984 449.956 757.267 449.34C725.575 446.143 696.261 441.715 666.847 428.967C658.108 424.513 647.965 419.465 642.09 411.278C639.074 407.075 637.483 402.342 638.363 397.174C642.456 373.125 689.584 338.592 708.858 325.116Z"/><path fill="#FEB7C0" transform="matrix(0.390625 0 0 0.390625 0 3.05176e-05)" d="M757.267 449.34C756.12 445.288 744.71 435.086 741.155 431.195C733.968 423.329 727.217 415.077 720.25 407.019C715.645 401.694 709.898 396.27 706.268 390.244C704.99 388.122 704.151 386.12 704.352 383.597C704.61 380.341 706.489 377.523 708.938 375.459C711.552 373.256 715 371.667 718.484 372.078C721.138 372.391 723.08 373.871 725.004 375.614C734.321 384.051 742.436 395.058 750.655 404.616C762.108 417.935 773.968 430.883 785.085 444.488C785.705 447.848 786.12 452.186 785.575 455.566L785.134 455.478C779.184 452.584 763.984 449.956 757.267 449.34Z"/><path fill="#5C49E6" transform="matrix(0.390625 0 0 0.390625 0 3.05176e-05)" d="M171.936 992.589C173.119 981.737 175.402 971.078 177.469 960.369C180.574 944.544 183.592 928.701 186.524 912.843C196.257 857.118 206.623 801.507 217.621 746.018L228.928 688.602C230.912 678.371 233.076 662.899 236.643 653.518L222.932 888.708C221.696 908.841 220.611 928.983 219.676 949.132C219.001 963.581 218.775 978.075 217.109 992.452C202.074 992.165 186.975 992.485 171.936 992.589Z"/><path fill="#FEB7C0" transform="matrix(0.390625 0 0 0.390625 0 3.05176e-05)" d="M394.359 256.384C399.737 252.94 414.182 252.655 420.723 251.83C464.027 246.368 506.23 244.995 549.717 249.349C564.725 250.851 579.498 254.072 594.526 255.545C610.267 258.77 669.316 269.549 677.398 282.399C679.066 285.051 679.22 288.142 678.489 291.121C674.651 306.762 650.544 337.067 640.77 351.22C629.172 368.013 617.848 384.987 606.01 401.614C590.05 424.032 573.599 446.048 558.197 468.866C550.012 479.614 541.887 490.407 533.82 501.243C526.27 511.545 511.277 535.478 501.353 542.315C498.952 543.969 496.053 544.176 493.262 543.506C488.557 542.376 484.57 538.963 481.302 535.533C473.277 527.112 467.298 516.864 460.767 507.295C451.666 493.961 442.385 480.786 433.748 467.14C420.983 447.143 404.79 428.025 390.45 409.069C376.429 390.535 363.432 371.287 350.068 352.283C339.138 336.74 319.659 314.109 316.723 295.509C315.963 290.695 316.32 285.575 319.297 281.527C328.851 268.538 377.803 258.647 394.359 256.384Z"/><path fill="#5C49E6" transform="matrix(0.390625 0 0 0.390625 0 3.05176e-05)" d="M594.526 255.545C610.267 258.77 669.316 269.549 677.398 282.399C679.066 285.051 679.22 288.142 678.489 291.121C674.651 306.762 650.544 337.067 640.77 351.22C629.172 368.013 617.848 384.987 606.01 401.614C590.05 424.032 573.599 446.048 558.197 468.866C542.587 444.573 548.258 413.756 548.636 386.592C552.819 382.213 557.016 377.849 560.59 372.946C584.543 340.088 591.913 295.129 594.526 255.545Z"/><path fill="#5C49E6" transform="matrix(0.390625 0 0 0.390625 0 3.05176e-05)" d="M433.748 467.14C420.983 447.143 404.79 428.025 390.45 409.069C376.429 390.535 363.432 371.287 350.068 352.283C339.138 336.74 319.659 314.109 316.723 295.509C315.963 290.695 316.32 285.575 319.297 281.527C328.851 268.538 377.803 258.647 394.359 256.384C396.874 294.491 404.862 333.786 425.052 366.716C429.788 374.44 437.105 380.266 441.414 387.457C442.586 419.399 450.22 436.327 433.748 467.14Z"/><path fill="#5C49E6" transform="matrix(0.390625 0 0 0.390625 0 3.05176e-05)" d="M547.356 283.705C550.096 283.421 555.304 283.187 557.832 284.376C559.076 284.961 559.368 285.523 559.889 286.743C559.792 288.808 559.016 290.236 557.825 291.91C550.2 302.632 536.274 308.539 523.716 310.739C520.342 311.089 514.187 311.82 511.456 309.378C510.873 308.857 510.438 308.136 510.359 307.359C510.086 304.672 512.187 301.998 513.809 300.047C522.22 289.933 534.486 284.81 547.356 283.705Z"/><path fill="#5C49E6" transform="matrix(0.390625 0 0 0.390625 0 3.05176e-05)" d="M436.424 283.59C443.778 283.321 450.655 283.776 457.544 286.598C464.959 289.635 475.394 296.563 478.338 304.382C478.947 305.998 478.945 307.101 478.228 308.709C477.052 309.905 476.181 310.115 474.613 310.461C469.99 310.87 465.346 310.788 460.768 309.978C451.086 308.265 438.864 301.491 433.307 293.184C432.171 291.485 431.216 289.339 431.908 287.275C432.621 285.148 434.553 284.438 436.424 283.59Z"/><path fill="#FEB7C0" transform="matrix(0.390625 0 0 0.390625 0 3.05176e-05)" d="M247.633 82.0182L248.67 82.0923C251.14 84.4439 255.87 103.348 257.093 107.485C203.131 127.099 158.21 151.445 118.229 193.227C67.6177 246.118 36.7418 319.212 38.5268 392.831C40.8984 468.286 72.5189 539.862 126.704 592.427C120.931 598.508 114.618 604.501 107.947 609.593C106.832 609.834 106.408 609.726 105.478 609.101C101.033 606.112 92.9154 595.305 89.0729 590.764C57.2393 553.144 34.3766 511.304 21.8863 463.526C1.52975 386.319 12.8231 304.181 53.2611 235.332C88.8672 174.764 139.625 130.939 202.484 100.385C215.685 93.9691 233.636 85.6598 247.633 82.0182Z"/><path fill="#FE314F" transform="matrix(0.390625 0 0 0.390625 0 3.05176e-05)" d="M791.105 444.247C792.712 430.577 792.944 416.735 794.096 403.019C796.069 379.536 801.565 331.167 815.795 312.201C819.072 307.832 823.548 304.284 829.112 303.606C846.959 301.431 880.821 330.669 894.809 341.289C899.176 346.533 905.091 350.991 910.036 355.739C915.234 360.728 920.349 367.314 926.195 371.41C932.062 379.05 941.051 388.205 939.664 398.7C938.693 406.049 933.223 411.666 927.463 415.818C900.066 435.565 848.193 443.141 815.401 450.023C806.614 451.612 797.738 452.989 789.083 455.2C789.916 451.568 790.525 447.926 791.105 444.247Z"/><path fill="#FEB7C0" transform="matrix(0.390625 0 0 0.390625 0 3.05176e-05)" d="M791.105 444.247C791.223 444.168 791.342 444.091 791.458 444.009C796.741 440.254 801.334 432.089 805.153 426.775C814.022 414.434 823.193 402.402 832.453 390.354C837.259 384.1 842.2 375.365 848.727 370.822C851.295 368.999 854.475 368.257 857.585 368.755C860.634 369.272 863.525 371.053 865.307 373.587C867.079 376.107 867.866 379.143 867.283 382.185C865.606 390.947 834.372 429.662 827.099 438.077C823.456 442.292 819.431 446.181 815.401 450.023C806.614 451.612 797.738 452.989 789.083 455.2C789.916 451.568 790.525 447.926 791.105 444.247Z"/><path fill="#FEB7C0" transform="matrix(0.390625 0 0 0.390625 0 3.05176e-05)" d="M292.092 164.646C293.205 164.427 293.774 164.269 294.821 164.767C298.826 169.49 301.226 183.489 302.799 189.759C262.505 197.1 227.825 208.726 195.768 235.123C157.075 266.983 130.724 313.518 125.905 363.677C120.904 415.728 136.207 463.337 169.336 503.552C163.457 508.41 156.929 512.694 150.707 517.105L147.954 519.105C125.39 493.384 109.048 457.408 102.681 423.923C91.5507 366.731 104.073 307.47 137.39 259.671C174.114 205.858 229.108 176.556 292.092 164.646Z"/><path fill="#FEB7C0" transform="matrix(0.390625 0 0 0.390625 0 3.05176e-05)" d="M727.169 162.115C738.751 164.301 750.31 166.601 761.595 170.043C814.08 186.05 857.568 219.55 888.405 264.734C909.211 295.219 922.739 334.772 926.195 371.41C920.349 367.314 915.234 360.728 910.036 355.739C905.091 350.991 899.176 346.533 894.809 341.289C879.87 287.069 843.943 241.036 794.975 213.374C772.376 200.68 748.327 193.432 722.818 189.292C724.087 180.319 724.98 170.892 727.169 162.115Z"/><path fill="#FEB7C0" transform="matrix(0.390625 0 0 0.390625 0 3.05176e-05)" d="M228.086 279.924C231.34 281.157 243.409 296.046 246.624 299.715C228.222 313.891 214.245 331.808 207.293 354.177C198.609 382.12 204.097 409.349 217.539 434.738C213.15 437.593 208.555 440.219 204.076 442.937C200.749 444.924 197.578 447.165 194.234 449.141C179.621 422.685 172.822 394.206 177.891 364.052C182.562 336.471 195.696 311.026 215.473 291.242C219.43 287.248 223.495 283.186 228.086 279.924Z"/><path fill="#FEB7C0" transform="matrix(0.390625 0 0 0.390625 0 3.05176e-05)" d="M642.392 49.9207C651.369 50.4884 660.36 52.4118 669.213 53.9285C696.957 58.6813 724.067 64.8519 750.967 73.1718C748.993 80.065 746.306 86.7951 744.097 93.6252C743.664 94.7426 743.165 95.8296 742.675 96.9225C739.191 98.9906 729.045 94.8763 725.068 93.6584C696.879 85.0251 667.783 80.4531 638.523 77.3517C639.599 68.1792 640.89 59.0331 642.392 49.9207Z"/><path fill="#FEB7C0" transform="matrix(0.390625 0 0 0.390625 0 3.05176e-05)" d="M377.855 50.7355C378.232 50.6671 378.614 50.8467 378.986 50.9406C381.41 54.833 381.53 71.2563 382.01 76.7048C373.141 79.3795 362.276 80.229 353.043 81.8597C335.486 84.9608 318.245 88.6445 301.072 93.4218C298.188 94.224 283.744 98.7659 281.988 98.2034L281.498 97.2475C278.457 89.4845 276.306 81.2148 273.874 73.2363C306.028 63.3244 344.639 54.7656 377.855 50.7355Z"/></svg>